<svg xmlns="http://www.w3.org/2000/svg" width="28" height="38.756" viewBox="0 0 38.815 38.756">
  <g id="Group_64" data-name="Group 64" transform="translate(-4932.122 1640.99)">
    <g id="Group_63" data-name="Group 63" transform="translate(4932.122 -1640.99)">
      <path id="Path_8" data-name="Path 8" d="M4939.412-1570.662c0,.99-.009,1.957,0,2.924a3.566,3.566,0,0,0,.113.857,3.131,3.131,0,0,0,3.366,2.309,3.145,3.145,0,0,0,2.819-3.088c.01-.918,0-1.837,0-2.755v-.246h11.623v.251c0,.9,0,1.794,0,2.691a3.157,3.157,0,0,0,2.91,3.159,3.155,3.155,0,0,0,3.335-2.551,3.334,3.334,0,0,0,.057-.631c.007-.883,0-1.766,0-2.649v-.256a.362.362,0,0,1,.089-.027c1.257,0,2.517-.037,3.771.025a3.668,3.668,0,0,1,3.428,3.561c0,.085,0,.17,0,.254q0,14.05,0,28.1a3.692,3.692,0,0,1-2.634,3.66,3.757,3.757,0,0,1-1.041.156q-15.734.012-31.467.006a3.7,3.7,0,0,1-3.67-3.592c0-.063,0-.127,0-.191q0-14.082,0-28.164a3.7,3.7,0,0,1,2.91-3.724,3.816,3.816,0,0,1,.8-.089c1.137-.01,2.274,0,3.412,0C4939.29-1570.677,4939.338-1570.669,4939.412-1570.662Zm-4.33,10.519v20.334a1.853,1.853,0,0,0,1.968,1.961h28.944a1.856,1.856,0,0,0,1.981-1.99q0-10.033,0-20.067v-.238Z" transform="translate(-4932.121 1573.667)"/>
      <path id="Path_9" data-name="Path 9" d="M5146.79-1637.282c0,.727,0,1.454,0,2.182a1.449,1.449,0,0,1-1.444,1.506,1.449,1.449,0,0,1-1.467-1.5q-.005-2.192,0-4.385a1.45,1.45,0,0,1,1.466-1.506,1.451,1.451,0,0,1,1.445,1.505C5146.791-1638.75,5146.79-1638.016,5146.79-1637.282Z" transform="translate(-5134.891 1640.99)"/>
      <path id="Path_10" data-name="Path 10" d="M5569.421-1637.248c0,.727,0,1.454,0,2.181a1.448,1.448,0,0,1-1.449,1.5,1.447,1.447,0,0,1-1.46-1.489q0-2.2,0-4.4a1.449,1.449,0,0,1,1.472-1.5,1.453,1.453,0,0,1,1.438,1.511v2.2Z" transform="translate(-5539.594 1640.962)"/>
      <path id="Path_11" data-name="Path 11" d="M5584.5-964.233h4.44v3.308h-4.44Z" transform="translate(-5556.818 992.946)"/>
      <path id="Path_12" data-name="Path 12" d="M5094.266-964.078v3.3h-4.455v-3.3Z" transform="translate(-5083.12 992.797)"/>
      <path id="Path_13" data-name="Path 13" d="M5259.112-964.092v3.3h-4.453v-3.3Z" transform="translate(-5240.975 992.811)"/>
      <path id="Path_14" data-name="Path 14" d="M5423.96-964.08v3.3h-4.453v-3.3Z" transform="translate(-5398.829 992.799)"/>
      <path id="Path_15" data-name="Path 15" d="M5419.711-1098.677h4.436v3.306h-4.436Z" transform="translate(-5399.024 1121.686)"/>
      <path id="Path_16" data-name="Path 16" d="M5254.653-1095.217v-3.3h4.446v3.3Z" transform="translate(-5240.969 1121.532)"/>
      <path id="Path_17" data-name="Path 17" d="M5588.955-1098.524v3.3h-4.447v-3.3Z" transform="translate(-5556.829 1121.539)"/>
      <path id="Path_18" data-name="Path 18" d="M5094.292-1098.463v3.3h-4.454v-3.3Z" transform="translate(-5083.147 1121.481)"/>
      <path id="Path_19" data-name="Path 19" d="M5094.376-1229.6h-4.445v-3.294h4.445Z" transform="translate(-5083.235 1250.213)"/>
      <path id="Path_20" data-name="Path 20" d="M5424.088-1229.6h-4.442v-3.294h4.442Z" transform="translate(-5398.961 1250.211)"/>
      <path id="Path_21" data-name="Path 21" d="M5584.331-1229.713v-3.3h4.446v3.3Z" transform="translate(-5556.66 1250.319)"/>
      <path id="Path_22" data-name="Path 22" d="M5254.673-1229.706v-3.3h4.443v3.3Z" transform="translate(-5240.988 1250.312)"/>
    </g>
    <path id="Path_23" data-name="Path 23" d="M5078.223-1068.12l1.916,4.4c.18.412.83.273.931-.122a9.853,9.853,0,0,1,4.092-5.78,10.245,10.245,0,0,0,1.911-1.354c.454-.473-.265-1.194-.72-.72a8.6,8.6,0,0,1-1.648,1.159,10.775,10.775,0,0,0-1.551,1.217,10.859,10.859,0,0,0-2.292,3.111,10.852,10.852,0,0,0-.773,2.1l.931-.122-1.917-4.395a.512.512,0,0,0-.7-.183.522.522,0,0,0-.183.7Z" transform="translate(-139.845 -544.987)" fill="#c6a866"/>
  </g>
</svg>
