<svg xmlns="http://www.w3.org/2000/svg" width="14" height="40" viewBox="0 0 23.23 64.728">
  <g id="Group_90" data-name="Group 90" transform="translate(-944.433 -954.866)">
    <g id="Group_87" data-name="Group 87" transform="translate(-1502.716 1627.25)">
      <g id="Group_84" data-name="Group 84" transform="translate(2447.149 -642.344)">
        <g id="Group_83" data-name="Group 83">
          <path id="Path_37" data-name="Path 37" d="M2459.094-473.139c.055.576-.294,1.1-.751,1.1h-.009c-6.18,0-11.185-7.769-11.185-17.349,0-8.805,4.23-16.069,9.712-17.188a.776.776,0,0,1,.844.658c2.292,8.607,1.889,11.963.714,17.619C2456.856-480.741,2458.646-477.839,2459.094-473.139Z" transform="translate(-2447.149 506.729)"/>
          <path id="Path_38" data-name="Path 38" d="M2521.144-490c0,8.76-4.2,16.01-9.645,17.179-.233.05-.453-.16-.475-.459-.367-4.981-2.327-7.824-.708-15.631,1.18-5.687,1.573-9.048-.749-17.747-.088-.33.1-.681.378-.681h.005C2516.13-507.336,2521.144-499.577,2521.144-490Z" transform="translate(-2497.914 507.336)"/>
        </g>
      </g>
    </g>
    <g id="Group_89" data-name="Group 89" transform="translate(3.042 47.75)">
      <g id="Group_88" data-name="Group 88" transform="translate(945.317 906.116)">
        <g id="Group_72" data-name="Group 72" transform="translate(12.276)">
          <path id="Path_30" data-name="Path 30" d="M2841.652-785.963c2.084-9.775-7.265-10.38-2.368-19.162a.263.263,0,0,1,.482.2c-2.659,9.079,6.959,8.773,2.384,19.124A.264.264,0,0,1,2841.652-785.963Z" transform="translate(-2843.845 806.264)"/>
        </g>
        <g id="Group_74" data-name="Group 74" transform="translate(-1 7.424)">
          <path id="Path_32" data-name="Path 32" d="M2778.219-755.852c2.248-9.775-7.833-10.38-2.552-19.163.165-.276.615-.1.52.2-2.867,9.079,7.5,8.773,2.57,19.124A.284.284,0,0,1,2778.219-755.852Z" transform="translate(-2774.116 775.152)"/>
        </g>
      </g>
    </g>
  </g>
</svg>
