<svg id="Group_14" data-name="Group 14" xmlns="http://www.w3.org/2000/svg" width="158.374" height="103.764" viewBox="0 0 158.374 103.764">
  <path id="Path_604" data-name="Path 604" d="M298.192,330.1a14.9,14.9,0,0,1-1.983,1.666,3.454,3.454,0,0,0-.743.562,34.143,34.143,0,0,1-4.557,3.175,56.434,56.434,0,0,1-6.735,3.37c-.212.1-.4.241-.6.363-.4.693-1.154.842-1.808,1.118-1.143.481-2.32.873-3.5,1.259a39.1,39.1,0,0,0-5.208,2.329c-.369.182-.728.466-1.19.28a17.037,17.037,0,0,1-1.535-2.252c-.4-.59-.16-.96.615-1.137a24.37,24.37,0,0,1,5.41-.7,15.25,15.25,0,0,0,6.847-1.6,14.473,14.473,0,0,1,1.518-.621,1.639,1.639,0,0,0,1.113-1.113,2.361,2.361,0,0,1,1.465-1.513,45.636,45.636,0,0,0,7.666-4.19,25.107,25.107,0,0,0,4.2-3.475,17.7,17.7,0,0,1,1.29-1.275c-2.724,1.675-5.62,3.241-8.567,4.721a16.182,16.182,0,0,1-4.072.925,34.825,34.825,0,0,1-7.087.37c-1.054.009-1.089.042-1.1,1.065-.007.7-.013,1.4,0,2.1.013.735-.335,1.063-1.054,1.03a41.279,41.279,0,0,1-6.247-.616,4.349,4.349,0,0,0-.63-.1c-.341-.015-.813-.238-.936.254-.109.433.374.486.66.612.639.282,1.3.51,1.953.761,1.159.444,1.323.652,1.1,1.319-.444,1.325-.984,1.622-2.1,1.336-3.859-.986-7.082-3.136-10.216-5.467-.365-.271-.737-.534-1.144-.822a35.614,35.614,0,0,0,1.633,3.549c.109.24.289.52.072.763s-.523.144-.763.018c-2.471-1.292-5.15-2.22-7.247-4.161-.219-.2-.5-.352-.558-.689.284-.415.6-.125.868-.005.663.291,1.3.641,1.894.929-.658-1.447-2.044-2.113-3.381-2.847-2.709-1.487-5.371-3.052-7.933-4.782a1.068,1.068,0,0,1-.241-.24.872.872,0,0,0,.394.348,61.2,61.2,0,0,1,5.605,4.4c.2.162.429.361.278.687a3.253,3.253,0,0,1-2.377-.923,58.305,58.305,0,0,0-5.58-3.916c-.722-.387-1.441-.778-2.147-1.194-.286-.17-.606-.295-.737-.639a.98.98,0,0,0-.345-.7c-1.039-.816-1.979-1.749-2.983-2.606.947.888,1.944,1.719,2.9,2.6.138.125.26.26.109.457a.51.51,0,0,1-.442.011c-3.2-1.4-6.632-2.228-9.53-3.9,1.6,1.951,3.973,3.151,6.086,4.7a11.426,11.426,0,0,1,1.579,1.76c.182.2.354.492.186.748-.2.3-.5.076-.744.009a17.946,17.946,0,0,1-5.294-2.8,55.266,55.266,0,0,0-5.447-2.755c-.214-.111-.5-.234-.641.055-.116.236.17.346.311.494.428.439,1.177.571,1.264,1.334a.483.483,0,0,1-.442.287,6.145,6.145,0,0,1-2.163-.918,2.99,2.99,0,0,0-1.924-.324,17.755,17.755,0,0,1-7.555-.7c-1.528-.418-2.67-1.64-3.89-2.635-.369-.3-.345-.682.085-.984.166-.116.409-.147.483-.4-.391-.3-.962-.2-1.3-.6-.3-.5.5-.4.418-.785a5.346,5.346,0,0,0-1.487-1.693,13.569,13.569,0,0,0-6.3-3.081,6.723,6.723,0,0,0-3.138.42,7.614,7.614,0,0,0,2.3,2.41c1.848,1.435,3.7,2.864,5.5,4.36a9.58,9.58,0,0,1,.805.741c.131.136.232.3.118.49a.363.363,0,0,1-.405.144,8.116,8.116,0,0,1-3.182-1.025,10.611,10.611,0,0,1-1.867-1.594c-1.607-1.861-3.94-1.97-6.037-2.7.923,1.491,1.669,3,3.429,3.838a72.016,72.016,0,0,0,7.852,3.173,45.748,45.748,0,0,1,11.6,6.23c.754.534.726.907-.053,1.336-.531.293-1.095.5-1.284,1.19-.085.306-.452.376-.752.442-1.605.346-3.238.553-4.824.99a1.746,1.746,0,0,1-1.3-.265c-1.588-.833-3.144-1.727-4.782-2.462-.426-.2-.859-.38-1.288-.571l-.238-.1a.9.9,0,0,0,.258.142,13.171,13.171,0,0,1,1.211.54.715.715,0,0,1,.286,1.017c-.212.422-.621.291-.967.212-1.177-.273-2.344-.588-3.52-.866-.341-.079-.7-.262-1.03.037a.937.937,0,0,1-.42.354,1.589,1.589,0,0,1-.982-.077c-1.889-.586-3.778-1.168-5.663-1.762-1.441-.455-1.483-.68-.42-1.749a3.637,3.637,0,0,0-4.187.671,1.919,1.919,0,0,1-2.637.225c-.722-.444-1.489-.824-2.217-1.266a1.907,1.907,0,0,0-.9-.418c-1.955.009-3.94-.223-5.788.732-.693.357-.636.849-.475,1.456.177.66.628.536,1.085.44.357-.074.73-.079,1.078-.184a8.68,8.68,0,0,1,5.016.077,22.6,22.6,0,0,0,4.531.343,10.549,10.549,0,0,1,2.943.512c1.6.584,3.192,1.189,4.787,1.787a2.137,2.137,0,0,1,.334.144c.184.107.4.219.37.466-.035.267-.3.3-.5.3-.853.026-1.7.146-2.543.2a36.547,36.547,0,0,1-5.552-.228c-1.815-.149-3.625-.382-5.434-.6a1.848,1.848,0,0,0-1.141.247,3.635,3.635,0,0,1-3.241.179,18.42,18.42,0,0,0-2.716-.757,1.773,1.773,0,0,0,.271,1.006c.288.783.214.927-.621,1.128-.636.153-1.356.123-1.8.934.969.256,1.942.181,2.873.348.267.048.547.011.818.057.975.168,1.461.449.7,1.382-.341.42-.116.573.293.663.652.146,1.317.243,1.964.415.258.068.586.122.623.448s-.264.459-.514.562a3.533,3.533,0,0,1-3.147.216c-.811-.4-1.7-.654-2.536-1.028a4.489,4.489,0,0,0-3.96-.238c1.48,1.065,2.816,2.268,4.832,2.292,1.62.02,2.967,1.017,4.432,1.587a.588.588,0,0,1,.394.735.791.791,0,0,1-.809.61,3.041,3.041,0,0,1-.964-.26,38.032,38.032,0,0,0-5.886-1.927c-.267-.042-.656-.286-.785.122-.1.311.212.547.477.706a12.014,12.014,0,0,0,1.423.816c1.929.82,3.151,2.434,4.465,3.942.227.26.569.568.357.958-.2.372-.636.3-.993.295a9.892,9.892,0,0,1-3.151-.861c-2.187-.748-4.369-1.511-6.477-2.467a.347.347,0,0,0-.37,0,4.927,4.927,0,0,0,2.926,4.155,9.2,9.2,0,0,1-1.017-1.235c-.321-.507-.159-.855.409-1.037a1.581,1.581,0,0,1,1.535.33c.673.525,1.377,1.012,2.012,1.575a1.514,1.514,0,0,0,1.758.343,2.016,2.016,0,0,1,2.633.717c.569.669,1.242,1.251,1.859,1.881a1.608,1.608,0,0,1,.6.892.406.406,0,0,1-.345.378c-1.561-.188-2.873-1.067-4.27-1.506,1.962,1.52,3.569,3.555,5.657,5.047a2.924,2.924,0,0,1-2.008,1.036.955.955,0,0,1-.5-.219c-1.36-.851-2.8-1.553-4.2-2.338a39.719,39.719,0,0,1-8.863-6.107,1.581,1.581,0,0,1-.59-1.172c0-.792-.586-1.3-.969-1.913-.361-.577-1.008-.991-1.025-1.769,1.218-.934,1.222-.936.376-2.34-.232-.383-.422-.791-.632-1.144-.258.971.488,1.983-.053,2.981-.77-.192-.936-.837-.949-1.465a18.982,18.982,0,0,1,.38-3.617c.083-.49.345-.536.662-.158a3.405,3.405,0,0,1,.549.9,3.479,3.479,0,0,0-1.83-1.961,5.558,5.558,0,0,1-3.223-3.271,5.7,5.7,0,0,1,.426-2.165,1.668,1.668,0,0,1,2.073-.907c2.079.84,4.082.2,6.092-.168,1.253-.23,2.443-.739,3.671-1.093a4.712,4.712,0,0,0,1.948-1.316,5.507,5.507,0,0,1,3.586-1.747,44.812,44.812,0,0,0,5.862-.875,3.81,3.81,0,0,1,1.808.092,10.772,10.772,0,0,0,6.2-.38,6.646,6.646,0,0,1,4.188-.09,23.448,23.448,0,0,0,7.75.966,3.713,3.713,0,0,1,2.39.719c.838.606,1.723,1.144,2.574,1.732.475.328.792.251,1.139-.219,1.222-1.655,1.227-1.623-.652-2.48-1.692-.772-3.451-1.36-5.171-2.056a9.761,9.761,0,0,0-4.135-.461,6.7,6.7,0,0,1-3.435-.72,10.914,10.914,0,0,0-4.439-.912c-2.607-.173-5.222-.282-7.837-.2a7.667,7.667,0,0,1-2.705-.324,1.647,1.647,0,0,0-1.841.415c-1.2,1.235-2.829,1.469-4.378,1.887a1.284,1.284,0,0,1-1.168-.378,16.307,16.307,0,0,1-4.209-4.249,7.072,7.072,0,0,0-1.012-1.4c-1.992-2.047-2.1-4.692-2.368-7.284a8.5,8.5,0,0,1,.792-3.444c.249-.778.146-1.271-.6-1.636-.352-.171-.66-.437-1.012-.615a1.637,1.637,0,0,1-.982-1.942c.37-.877.645-1.852,1.872-1.876a18.186,18.186,0,0,0,2.322-.23c.6-.182.735.037.5.577a1.506,1.506,0,0,1-.146.23c-.844,1.222-.9,1.33.448,2.023a3.652,3.652,0,0,1,2.279,3.553c-.006.656.247,1.31.28,1.977.026.516.28.617.72.481.638-.2,1.292-.343,1.924-.556a1.6,1.6,0,0,1,1.892.464,3.163,3.163,0,0,0,.671.582,2.283,2.283,0,0,1,.2.147c.669.56,1.386,1.056,2.08,1.581.14.112.265.24.3.273-.041-.015-.135-.164-.262-.273-.658-.66-1.408-1.212-2.112-1.822-1.286-2.117-2.768-4.129-3.464-6.56a6.275,6.275,0,0,0-1.052-2c-.492-.665-.389-1.061.324-1.459a3.713,3.713,0,0,1,1.452-.45,34.484,34.484,0,0,1,10.4.8c1.174.263,1.561-.042,1.458-1.205a32.27,32.27,0,0,1,.028-3.632c.153-1.526.262-3.061.542-4.57a33.327,33.327,0,0,1,4-10.649,6.764,6.764,0,0,1,1.721-2.5,45.573,45.573,0,0,0,6.09-.89,7.094,7.094,0,0,1,1.17-.048,20.581,20.581,0,0,1,3.743,1.662,4.044,4.044,0,0,1-2.569.171,17.151,17.151,0,0,0-1.817-.1c-.91.017-.938.094-.837,1.036a21.616,21.616,0,0,0,1.62,6.238,6.592,6.592,0,0,1,.383,1.12c.1.428.634.964.028,1.283-.545.286-.942-.228-1.249-.658a23.859,23.859,0,0,1-3.689-6.877,10.636,10.636,0,0,0-.765-1.854,16.816,16.816,0,0,0-1.868,2.77c-.956,1.517-1.874,3.059-2.827,4.577a7.7,7.7,0,0,0-.768,1.848c-.619,2.025-1.505,3.995-1.393,6.184.105,2.064.2,4.12,1.43,5.926a2.522,2.522,0,0,0,1.177,1.067c.934.369,1.861.757,2.812,1.069a13.573,13.573,0,0,1,3.754,1.832,8.248,8.248,0,0,0,3.112,1.247,22.4,22.4,0,0,1,7.437,3.551c1.881,1.24,4.08,1.7,6.164,2.445a1.416,1.416,0,0,0,.975-.114,1.274,1.274,0,0,1,.966-.136c.229.289-.007.516-.124.741a14.989,14.989,0,0,1-.962,1.857,5.207,5.207,0,0,0-.829,3.549,17.094,17.094,0,0,1,.147,3.372,3.448,3.448,0,0,0,.632-1.2c.284-.663.619-1.246,1.419-1.4.488-.094.49-.391.181-.713-.4-.416-.722-.9-1.12-1.318-.919-.969-.921-1.012-.225-2.185.481-.809.947-1.627,1.463-2.414a.922.922,0,0,0-.029-1.227c.431-.533,1.1-.422,1.662-.615.486-.168,1-.258,1.5-.4.912-.2,1.822-.416,2.727-.652a1.391,1.391,0,0,1,1.22.044c.123.543-.369.54-.643.663-1,.446-2.073.676-3.09,1.209a41.374,41.374,0,0,0,12.621,2.76,31.626,31.626,0,0,1-3.7-2.255c-.271-.2-.645-.409-.553-.765.1-.381.542-.311.864-.328.962-.053,1.9.2,2.77.232a1.76,1.76,0,0,1-.521-.131,12.939,12.939,0,0,0-6.569-1.087c-.4.022-.868.118-1.161-.326a.418.418,0,0,1,.249-.251,16.637,16.637,0,0,1,4.824-.785A56.876,56.876,0,0,1,238.362,308a79.362,79.362,0,0,0,10.1,2.735,39.862,39.862,0,0,1,6.2,2.115,40.329,40.329,0,0,0,6.068,1.2c.4.076.606-.146.772-.483a2.475,2.475,0,0,0,.118-2.349c-.363-.732-.7-1.482-1.058-2.221a2.031,2.031,0,0,1,.221-2.364c.507-.643.862-1.393,1.33-2.069.278-.4.193-.678-.276-.82-.9-.269-1.8-.558-2.7-.829a1.951,1.951,0,0,0-1.161.12c-1.248.387-2.453.9-3.7,1.3a2.157,2.157,0,0,1-1.59-.052c-.923-.391-1.865-.739-2.792-1.119a1.51,1.51,0,0,1-.984-.752c-.2-1.817.013-3.639-.122-5.456a1.7,1.7,0,0,1-.085-.3,1.934,1.934,0,0,1,.112-1.2.917.917,0,0,1,1.034-.02,10.156,10.156,0,0,0,6.606.3,12.255,12.255,0,0,0,2.2-.584c.54-.241,1.065-.214,1.341.346.884,1.791,2.583,2.034,4.268,2.338a3.906,3.906,0,0,0,2.051-.321,5.218,5.218,0,0,1,3.564-.068c.63.212,1.308.275,1.951.462.321.094.726.147.8.514.066.326-.28.51-.51.7-.888.739-1.828,1.413-2.838,2.246,2.064-.2,4.023-.131,5.941-.488a22.465,22.465,0,0,1,8.054-.177,3.64,3.64,0,0,0,2.742-.628c1.754-1.111,1.732-1.684,3.256.72.243.385.525.746.748,1.144.381.682.252.986-.514,1-.855.017-1.692.19-2.543.221-.286.009-.78-.164-.73.392.042.453.413.544.829.477,1.712-.267,3.448-.37,5.137-.785,1.122-.276,2.248-.54,3.361-.848a2.073,2.073,0,0,1,1.891.339c.717.514,1.428,1.037,2.165,1.52a3.439,3.439,0,0,1,1.1,1.946c.507,1.349,1.1,1.494,2.173.51.157-.144.295-.31.457-.446.361-.306.673-.949,1.148-.757.544.221.287.916.308,1.408.033.82.006,1.644.009,2.464.006,1.128.009,1.13,1.124,1,.485-.057.973-.037,1.456-.1.234-.031.531-.094.634.194.09.256-.112.472-.295.625-.7.59-1.312,1.279-2.025,1.837a12.01,12.01,0,0,0-2.668,2.974,18.3,18.3,0,0,1-6.256,5.994,7.322,7.322,0,0,0-2.233,2.241c-.68.967-1.358,1.937-2.15,2.936,2-1.509,3.916-2.993,5.882-4.4a46.94,46.94,0,0,0,4.894-4.229,4.448,4.448,0,0,1,2.44-1.3c.181-.028.357-.09.538-.1a3.73,3.73,0,0,0,3.438-2.281.7.7,0,0,1,.1-.151c.264-.308.407-.877.921-.728s.566.662.551,1.143a1.3,1.3,0,0,1-.063.263c-.914,1.413-1.83,2.828-2.725,4.255-.278.481-.641.9-.96,1.351-2.036,2.191-4,4.457-6.16,6.525A35.087,35.087,0,0,1,298.192,330.1Z" transform="translate(-158.621 -274.079)" fill="#c45e27"/>
  <path id="Path_605" data-name="Path 605" d="M272.478,312.921a2.642,2.642,0,0,0-.055-.544c-.079-.251-.12-.6-.426-.639-.276-.031-.363.321-.45.516a4.644,4.644,0,0,1-4.4,2.875,3.544,3.544,0,0,0-2.333,1.257,75.881,75.881,0,0,1-8.946,7.256c-.765.577-1.542,1.139-2.313,1.708l-.181-.159c.662-.929,1.376-1.824,1.972-2.793a10.8,10.8,0,0,1,4.045-3.811,13.975,13.975,0,0,0,4.66-4.732,25.278,25.278,0,0,1,4.843-5,1.118,1.118,0,0,0,.518-.741c-.807.387-1.631.081-2.421.343-.591.2-.967.03-.942-.739a26.31,26.31,0,0,0-.2-4.468c-.45.477-.892.962-1.351,1.428a2.148,2.148,0,0,1-.634.5c-1.047.44-1.528.308-1.754-.846-.437-2.239-2.386-2.891-3.884-4.024-.326-.245-.719-.046-1.052.053a61.451,61.451,0,0,1-8.882,1.734c-.848.123-.842-.621-.956-1.054-.144-.542.42-.391.7-.376,1.036.053,2.042-.3,3.079-.2.4.039.6-.085.3-.518-.569-.822-1.113-1.662-1.653-2.506a.6.6,0,0,0-.986-.181c-.072.053-.147.107-.216.166a5.671,5.671,0,0,1-5.329,1.093,13.527,13.527,0,0,0-5.388.2,27.381,27.381,0,0,1-4.41.45c-1.058.024-2.1.26-3.387.2l3.953-3.107c-.208-.431-.632-.321-.951-.429a9.123,9.123,0,0,0-6.26-.105c-1.426.521-4.242-.533-5.032-1.778-.557-.875-1.013-1.026-2.075-.671a12.353,12.353,0,0,1-9.265-.118,2.978,2.978,0,0,1-.463-1.61,25.725,25.725,0,0,0-1.561-6.748,3.814,3.814,0,0,1-.645-1.483,20.35,20.35,0,0,0-1.351-3.822.84.84,0,0,1-.092-.7.158.158,0,0,1,.241-.05c.737,1.179.936,2.655,2.025,3.638.58.534,1.26.951,1.81,1.522a16.025,16.025,0,0,0,2.009,1.575,13.094,13.094,0,0,0-1.159-.87c-.3-.238-.533-.5-.385-.919a6.4,6.4,0,0,1,3.514-2.1c1.424-.262,2.841-.579,4.284-.744,2.268-.19,4.542-.179,6.812-.26,2.935-.1,5.847-.466,8.777-.606a18.8,18.8,0,0,1,4.34.111,3.49,3.49,0,0,0,1.082-.077,11.366,11.366,0,0,1,4.6.971,4.388,4.388,0,0,0,2.757.122,8.7,8.7,0,0,1,5.77-.075c2.724.608,5.436,1.27,8.165,1.852a10.466,10.466,0,0,1,2.906,1.279c.873.492,1.732,1.012,2.633,1.447a5.883,5.883,0,0,1,1.8,1.489,12.483,12.483,0,0,1,2.757,5.465c.319,1.271.387,1.255,1.625.859,2.257-.719,1.749-.861,3.122,1.238a7.735,7.735,0,0,1,1.019,5.305c-.146.874-.068,1.762-.157,2.639a1.647,1.647,0,0,1-.031.286c-.3,1.27-.8,2.482-.993,3.781a2.05,2.05,0,0,1-.112.545c-.625,1.257-.993,2.622-1.622,3.881-.249.468-.481.945-.752,1.4C272.987,312.743,272.887,313.08,272.478,312.921Z" transform="translate(-120.095 -271.825)" fill="#df8f4e"/>
  <path id="Path_606" data-name="Path 606" d="M176.512,343.987l-2.37-1.283c-.356-.144-.7-.321-1.052-.47a1.373,1.373,0,0,1-.923-1.623.735.735,0,0,1,.136-.247,30.316,30.316,0,0,1,3.022-2.027c.566-.354,1.118-.732,1.669-1.108,2.519-1.717,2.58-1.85,2.757-4.924a8.738,8.738,0,0,0-.022-3.512,4.545,4.545,0,0,1,1.843-2.069,96.653,96.653,0,0,0,8.419-7.242,3.6,3.6,0,0,1,1.316-.789c4.3-1.439,8.469-3.188,12.6-5.045a7.079,7.079,0,0,1,2.751-.521c3.912-.124,7.773-.883,11.707-.831a24.331,24.331,0,0,0,5.661-.862c.973-.221,1.743-.938,2.851-1.273-.912-.429-1.78-.337-2.5-.728a.484.484,0,0,1-.14-.737c.3-.321.144-.439-.208-.518-.826-.186-1.671-.265-2.489-.483-.234-.061-.684-.059-.356-.533a7.852,7.852,0,0,1,3.741.293c.234.055.463.142.7.184a5.53,5.53,0,0,0,.945.2c2.506.208,4.209,1.874,6.064,3.293a4.211,4.211,0,0,1,1.9,3.241,1.428,1.428,0,0,0,.927,1.249c.409.2.787.459,1.181.691.28.166.5.4.424.739-.19.816.254.768.807.65a1.747,1.747,0,0,1,2.158,1.047c.387.789.892,1.52,1.253,2.325.151.387.446.7.568,1.1.153,1.669.063,3.341.061,5.01a1.657,1.657,0,0,1-.372,1.012c-.669.868-1.382,1.7-2.1,2.523a1.425,1.425,0,0,1-.684.44,50.29,50.29,0,0,1-6.271,1.579c-.289.042-.662.182-.85-.12-.221-.354.109-.615.321-.862a3.231,3.231,0,0,1,1.679-1.034,21.545,21.545,0,0,0,5.29-1.944,1.4,1.4,0,0,0,.879-1.432,18.636,18.636,0,0,1,.182-1.994c.009-.457-.123-.61-.592-.435a5.41,5.41,0,0,1-1.692.346,5.908,5.908,0,0,0-4.174,1.955c-1.251,1.3-2.935,1.668-4.559,2.156-.634.192-.8-.02-.608-.638.035-.116.105-.221.142-.335.17-.529.38-1.157-.087-1.537s-.916.14-1.281.413c-2.889,2.176-6.333,3.033-9.682,4.118-2.195.709-4.448,1.24-6.4,2.583a7.767,7.767,0,0,1-3.037.918c-1.517.3-3.013.942-4.572.728-3.2-.439-5.969.649-8.668,2.136a8.911,8.911,0,0,1-2.6,1.084,6.465,6.465,0,0,0-3.606,2.2,11.178,11.178,0,0,1,2.558-.241,7.23,7.23,0,0,0,2.954-.835,33.558,33.558,0,0,1,7.137-2.982,6.212,6.212,0,0,1,.7-.2c.251-.042.5-.048.614.24a.6.6,0,0,1-.142.673,2.788,2.788,0,0,1-.768.483c-1.458.744-2.939,1.441-4.364,2.243a1.75,1.75,0,0,1,1.032-.142,12.916,12.916,0,0,0,8.968-2.91c.328-.269.689-.5,1.021-.765a1.642,1.642,0,0,1,1.946-.251.478.478,0,0,1,.181.722c-.743.568-1.563,1.025-2.265,1.653-.649.58-.66.6.052,1.076.306.2.761.319.676.848-.289.372-.807.236-1.141.514a29.964,29.964,0,0,1-6.536.9,3.71,3.71,0,0,0-1.259.088,3.633,3.633,0,0,1-.77.085,42.221,42.221,0,0,0-6.343.455,17.048,17.048,0,0,1-3.816.006c-1.513-.2-3.031-.057-4.548-.188-.9-.079-1.542.687-2.025,1.378-.291.416.234.752.5,1.056s.545.155.8-.061c.573-.5,1.181-.954,1.71-1.5a1.424,1.424,0,0,1,1.493-.42,22.717,22.717,0,0,0,7.3.778,2.463,2.463,0,0,1,.636.046c.536.116.571.413.225.761a2.756,2.756,0,0,1-1.806.96,30.027,30.027,0,0,1-3.451.2,1.258,1.258,0,0,0-1.157.391.882.882,0,0,1-.927.227c-.654-.125-1.318-.216-1.924-.374a15.739,15.739,0,0,1,2.2,1.3c.282.17.614.365.586.75-.029.429-.468.409-.75.553a2,2,0,0,1-.426.16,13.177,13.177,0,0,1-3.459-.684h0a9.485,9.485,0,0,1-1.933-1.15,12.465,12.465,0,0,0-4-2.1A5.28,5.28,0,0,1,176.512,343.987Z" transform="translate(-148.842 -247.976)" fill="#cb5d22"/>
  <path id="Path_607" data-name="Path 607" d="M232.086,281.1c.982,1.861,1.286,3.976,2.2,5.862a.528.528,0,0,1,.041.529c-.6.022-.619-.509-.763-.86a32.468,32.468,0,0,0-3.488-6.591c-.573-.811-.851-.827-1.5-.042a5.977,5.977,0,0,0-.52.75,21.237,21.237,0,0,1-4.933,5.434,26.164,26.164,0,0,0-3.177,3.868,1.857,1.857,0,0,1-1.445.792,1.748,1.748,0,0,1-1.846-1.023c-.391-.77-.909-1.474-1.312-2.27-.033,1.3.182,2.558.247,3.827a7.831,7.831,0,0,0,.978,2.536c.234.542.818,1.187.381,1.666s-1.021-.193-1.533-.376a6.313,6.313,0,0,1-1.5-.669,6.406,6.406,0,0,0-4.035-.787c-.557.015-.759.271-.741.794a9.819,9.819,0,0,1-.011,1.093c-.022.273-.028.582-.343.687a.81.81,0,0,1-.835-.24,4.934,4.934,0,0,1-.846-1.292c-.639-1.211-1.3-2.408-1.962-3.6a2.541,2.541,0,0,0-.918-.991c-1.257-.741-2.449-1.587-3.691-2.355a.926.926,0,0,0-1.294.061c-2.169,1.951-4.376,3.864-6.355,6.013-1.5,1.625-3.142,3.151-3.989,5.274a1.478,1.478,0,0,1-1.262.92c-.781.118-1.559.269-2.34.383-.461.066-.625.225-.275.626a5.926,5.926,0,0,0,2.723,2.176,32.962,32.962,0,0,1,8.919,4.3,9.129,9.129,0,0,0,4.321,1.26,20.014,20.014,0,0,1,3.153.643c.287.47.09.768-.345.982-1.4.9-2.711.221-4.061-.193a25.246,25.246,0,0,1-7-3.6,12.094,12.094,0,0,0-3.693-1.472,16.576,16.576,0,0,1-5.054-2.178c-1.48-1.036-3.3-1.343-4.953-2.023a3.535,3.535,0,0,1-2.055-1.725c-1.636-3.192-1.491-6.394-.628-9.764.857-3.348,2.79-6.085,4.522-8.952a22.4,22.4,0,0,1,1.977-2.972c.726,1.813,1.373,3.562,2.125,5.263a31.955,31.955,0,0,0,2.733,4.277c.149.23.5.466.789.269.267-.181-.039-.431-.116-.636a33.516,33.516,0,0,1-2.27-8.281c-.064-.614.083-.857.761-.872,1.611-.033,3.2.35,4.813.188l2.449,1.288a66.564,66.564,0,0,1,5.65,4.758,34.151,34.151,0,0,1,2.747,3.088c1.515.835,3.092,1.544,4.623,2.346.475.249.726,0,.966-.363.584-.89,1.207-1.754,1.763-2.659,1.3-2.114,3.177-3.743,4.758-5.62a2.178,2.178,0,0,1,1.257-.695,31.033,31.033,0,0,0,8.281-3.245,4.858,4.858,0,0,1,1.7-.627,1.38,1.38,0,0,1,1.375.063c.881.468,1.775.912,2.687,1.319a4.943,4.943,0,0,1,1.31,1.638C231.41,279.814,231.992,280.356,232.086,281.1Z" transform="translate(-145.829 -274.18)" fill="#6b7a1b"/>
  <path id="Path_608" data-name="Path 608" d="M204.327,333.808a5.106,5.106,0,0,0-.969-.647c-.853-.324-.632-.7-.1-1.106a9.32,9.32,0,0,1,2.53-1.71c.326-.186.33-.368,0-.551a2.046,2.046,0,0,0-2.222.549c-.789.66-1.629,1.259-2.473,1.846-1.047.728-2.335.814-3.492,1.255-1.673.634-3.409.267-5.381.391a53.2,53.2,0,0,1,4.826-2.6c.352-.194,1.095-.243.807-.853-.19-.4-.695.041-1.037.14a32.591,32.591,0,0,0-6.571,2.655,7.563,7.563,0,0,1-3.042,1.106,27.135,27.135,0,0,0-3.545.221,6.541,6.541,0,0,1,3.525-2.493,12.684,12.684,0,0,0,3.663-1.559c1.951-1.078,4.089-2.064,6.278-1.848,2.819.276,5.383-.544,8.042-1.017a2.257,2.257,0,0,0,.855-.295c3.151-2.156,6.9-2.77,10.409-3.953a27.2,27.2,0,0,0,6.249-3.081c.455-.3.96-.932,1.5-.367a1.839,1.839,0,0,1,.088,1.889c-.083.243-.324.429-.339.761a10.446,10.446,0,0,0,5.6-2.738,4.729,4.729,0,0,1,3.133-1.4,5.984,5.984,0,0,0,3-.814c.238,1.4-.223,2.646-.138,3.91.026.361-.365.442-.621.593a20.408,20.408,0,0,1-5.762,2.182,3.914,3.914,0,0,0-2.06,1.6A25.752,25.752,0,0,0,232.2,324.8c.615-.159,1.227-.326,1.839-.5a1.676,1.676,0,0,0,.894-.592c.507-.639,1.023-1.273,1.563-1.885a2.457,2.457,0,0,0,.706-1.795c-.05-1.55-.017-3.1-.017-4.653a.261.261,0,0,1,.026-.4c.507.109.547.536.566.921.072,1.426.324,2.838.381,4.264a1.17,1.17,0,0,0,.9,1.2,13.077,13.077,0,0,0,3.737,1.067c.214.459-.21.457-.433.6a28.07,28.07,0,0,0-3.1.844.537.537,0,0,1-.265-.006c-.815-.348-1.214-.013-1.362.794a1.6,1.6,0,0,1-.308.639c-1.712,2-3.5,3.923-5.2,5.928a31.735,31.735,0,0,0-2.191,2.889c-.186.276-.311.689-.791.608-.2-.457.457-.779.2-1.246.061-.662.744-.79,1.065-1.253.861-1.244,1.786-2.449,2.6-3.492a28.417,28.417,0,0,1-3.925,2.425,91.717,91.717,0,0,0-9.589,6.156c-1.15.914-2.6,1.159-3.914,1.706-.757.313-1.535.575-2.287.9a23.038,23.038,0,0,0,2.91-.844c.367-.111.752-.315,1.109.037a7.549,7.549,0,0,1-3.232,1.135c-1.9.361-3.673,1.192-5.618,1.439-3.359.427-6.724.746-10.109.89-1.662.07-3.324.212-4.986.313a45.8,45.8,0,0,1-7.843-.52,11.107,11.107,0,0,0-1.867-.171c-.275-.033-.634.094-.717-.343.063-.063.129-.125.192-.19.234-.243.818-.055.814-.407,0-.394-.536-.509-.855-.717a18.775,18.775,0,0,1-2.311-1.629c.842.151,1.686.286,2.521.457.348.072.669.2.767-.306.076-.383.385-.341.649-.326,1.336.074,2.657-.142,3.986-.171.9-.022,1.365-.671,2.045-1.137a1.122,1.122,0,0,0-.908-.147,22.537,22.537,0,0,1-7.627-.846.9.9,0,0,0-.977.273c-.656.627-1.362,1.2-2,1.846-.378.381-.623.339-.96-.029-1.072-1.172-1.085-1.168.1-2.224a3.007,3.007,0,0,1,2.338-.754c3.19.1,6.387.569,9.595-.037a16.282,16.282,0,0,1,4.343-.243c.028.3-.216.368-.411.374a26.229,26.229,0,0,1-2.845.24c1.585.273,3.459-.208,5.335-.07.122.028-.033-.155,0-.039.068.232-.923-.147-1.364-.521.531-.339,1.117-.138,1.675-.162a32.2,32.2,0,0,0,6.19-.916c1.107-.074,2.176-.426,3.291-.459a2.182,2.182,0,0,0,2.117-1.262c.072-.123.2-.21.269-.343-.168.059-.295.179-.451.249-.807.411-1.6.844-2.43,1.209C205.5,333.806,204.948,334.144,204.327,333.808Z" transform="translate(-144.343 -241.269)" fill="#9a3613"/>
  <path id="Path_609" data-name="Path 609" d="M255.911,328.69a28.28,28.28,0,0,1-5.781,3.873c-1.187.577-2.184,1.531-3.523,1.828-.109-.278.048-.459.271-.673a31.767,31.767,0,0,0-4.552,1.762,7.189,7.189,0,0,1-2.534.665,13.829,13.829,0,0,0-4.87,1.4,7.075,7.075,0,0,1-3.381.52c-1.181-.12-2.362-.142-3.542-.2-.464-.026-1.124.116-1.264-.641a2.187,2.187,0,0,1,1.59-.158,11,11,0,0,0,5.27-.457c.693-.216,1.4-.372,2.1-.56.182-.055.37-.094.558-.133a1.225,1.225,0,0,0,.752-.619,34.9,34.9,0,0,0,4.27-7.7,2.536,2.536,0,0,0-.039-2.18c-.295-.564-.516-1.166-.757-1.756-.4-.973-.135-1.3.927-1.139a10.912,10.912,0,0,0,1.9.118c-.28-1.275-.641-1.62-1.786-1.762-.453-.055-.9-.14-1.354-.188-.2-.02-.468-.037-.474-.319,0-.2.2-.293.357-.372a24.455,24.455,0,0,0,2.326-1.06c-1.447-.265-2.856-.26-3.849-1.338a.517.517,0,0,1-.052-.273c.031-.12.072-.264.182-.3,1.332-.477,2.672-1.262,4.111-.776a6.972,6.972,0,0,0,6.066-.973c1.048-.617,2.086-1.247,3.18-1.784a2.09,2.09,0,0,1,1.668-.127c1.041.345,2.062.737,3.092,1.109.245.088.6.157.582.483-.024.367-.387.433-.691.474a45.359,45.359,0,0,0-7.444,1.762c-1,.312-1.463,1.133-2.066,1.837-.227.263-.05.485.225.658a2.4,2.4,0,0,0,3.2-.063,7.571,7.571,0,0,1,6.943-1.378,15.448,15.448,0,0,1,2.471.619,3.3,3.3,0,0,1,.938,2.628,34.446,34.446,0,0,1-2.261,4.924C257.7,327.112,256.934,328.056,255.911,328.69Z" transform="translate(-102.835 -242.729)" fill="#c66732"/>
  <path id="Path_610" data-name="Path 610" d="M224.6,309.387l2.961.581c.083.223-.005.3-.116.359a20.162,20.162,0,0,1-6.313,2.042c-2.567.415-5.143.075-7.688.485-2.714.437-5.48.4-8.191.789a14.452,14.452,0,0,0-3.437,1.391c-3.33,1.456-6.7,2.814-10.15,3.96a3.5,3.5,0,0,0-1.3.79,87.308,87.308,0,0,1-8.392,7.2,16.083,16.083,0,0,0-1.928,1.922.589.589,0,0,1-.146.361,36.133,36.133,0,0,0-5.027,6.308,12.789,12.789,0,0,0-1.4,3.238,12.367,12.367,0,0,1-.864,1.769l-.048.006-.048,0c-.439-.123-.359-.549-.5-.848a2.285,2.285,0,0,1,.155-1.515l.953-2.548c.4-.914.814-1.822,1.187-2.747a1.491,1.491,0,0,1,.752-.875c1.609-.691,2.152-2.208,2.906-3.606-.3-.153-.42.055-.538.2a4.762,4.762,0,0,0-.713,1.054c-.638,1.452-1.922,1.76-3.287,1.85a1.791,1.791,0,0,1-1.6-.783c.791-.063,1.336-.65,2.02-.94a.834.834,0,0,1,.518-.547c2.1-.921,3.26-2.849,4.723-4.446a9.336,9.336,0,0,0,1.229-1.459,26.142,26.142,0,0,1,3.859-3.208c2.407-2.091,5.34-3.367,7.955-5.139a44.418,44.418,0,0,1,9.558-5.091,40.507,40.507,0,0,1,8.721-2.248,12.337,12.337,0,0,0,1.968-.369,39.017,39.017,0,0,1,7.852-.337,1.418,1.418,0,0,1,1.071.411c1.034.422,2.173.358,3.225.7.238.077.636-.076.669.28.028.311-.383.317-.6.464C224.276,309.022,224.272,309.206,224.6,309.387Z" transform="translate(-149.105 -248.061)" fill="#f9b685"/>
  <path id="Path_611" data-name="Path 611" d="M165.073,290.125c-.2,1,.339,1.528,1.165,1.972,1.778.955,1.911,1.037,1.2,2.965-.772,2.1-.249,4.1-.116,6.164.094,1.463,1.067,2.383,1.763,3.488a19.417,19.417,0,0,0,5.545,6.022c.168.112.275.354.536.263,1.5-.518,3.192-.562,4.378-1.832a1.742,1.742,0,0,1,2.093-.59,6.648,6.648,0,0,0,2.775.357c2.67-.085,5.338.05,8,.192a13.159,13.159,0,0,1,5.478,1.432,1.6,1.6,0,0,0,.967.2c3.772-.488,7.072,1,10.382,2.462q.915.4,1.822.824c.357.166.407.37.146.708a15.6,15.6,0,0,0-1.126,1.649c-.332.56-.671.584-1.141.181-.251-.216-.582-.339-.829-.557a8.361,8.361,0,0,0-6.35-2.036,16.346,16.346,0,0,1-5.875-.969,5.068,5.068,0,0,0-3.265-.039,11.554,11.554,0,0,1-7.026.516,6.279,6.279,0,0,0-2.757.179c-1.88.267-3.763.525-5.65.744a3.071,3.071,0,0,0-2,1.15c-1.413,1.693-3.435,2.043-5.347,2.679a37.463,37.463,0,0,1-4.891.894,2.574,2.574,0,0,1-1.577-.354,1.935,1.935,0,0,0-2.489.556c-.28-.632.059-1.118.381-1.607.046-.02.092-.039.138-.057a14.034,14.034,0,0,1,4.537-.757c.84-.085,1.7-.017,2.545-.017a1.525,1.525,0,0,0,1.231-.475c.794-.916,1.633-1.791,2.462-2.674.435-.464.413-.779-.243-1.072a2.877,2.877,0,0,0-2.847-.114.742.742,0,0,1-.931.017,33.518,33.518,0,0,0-1.649-3.444,16.151,16.151,0,0,1-1.68-4.012,1.5,1.5,0,0,1-.028-1.065c.439-.252.51.179.658.385a11.889,11.889,0,0,1,1.356,2.878c.472,1.283.955,2.559,1.522,4.03a6.377,6.377,0,0,0,.51-3.457,13.09,13.09,0,0,0-3.54-6.147c-.352-.378-.665-.789-1.017-1.168-.168-.369.072-.639.227-.929.431-.8.79-1.646,1.242-2.438a1.3,1.3,0,0,0-.173-1.66c-.509-.6-.99-1.233-1.465-1.865a4.078,4.078,0,0,1-.638-1.2.721.721,0,0,1,.125-.637C164.19,291.356,164.275,290.442,165.073,290.125Z" transform="translate(-158.406 -262.211)" fill="#f9b685"/>
  <path id="Path_612" data-name="Path 612" d="M266.244,321.464a20.78,20.78,0,0,0-4.067-.82c-1.614-.013-3.319.057-4.682,1.249-1.522,1.332-2.613,1.4-4.312.3-.592-.383-.063-.715.131-1.028.84-1.362,2.217-1.826,3.658-2.243a38.51,38.51,0,0,1,6.284-1.3c.1-.011.2-.107.428-.236-1.513-.533-2.9-1.019-4.286-1.511a.843.843,0,0,0-.689.142,21.782,21.782,0,0,0-3.02,1.668,11.849,11.849,0,0,1-4.273,1.684,4.524,4.524,0,0,1-2.1-.409,6.307,6.307,0,0,0-4.446.875c-.984-1.275-2.469-1.05-3.805-1.275-1.867-1.187-3.7-2.425-5.441-3.789a2.643,2.643,0,0,0-2.244-.656c-1.612.323-3.256.328-4.868.584a25.834,25.834,0,0,0-7.964,2.39c-.4.061-.743.394-1.185.252-.129-.111-.1-.236-.041-.367a.9.9,0,0,1,.173-.2,9.457,9.457,0,0,1,2.937-1.494,13.851,13.851,0,0,0,1.318-.59,50.368,50.368,0,0,1,7.948-3.26,19.915,19.915,0,0,0,2.384-1.093c.055.564.47.6.87.527,2.609-.512,5.259-.186,7.874-.405,1.736-.144,3.433.028,5.147.052a9.832,9.832,0,0,1,2.959.755,19.218,19.218,0,0,0,3.431.691,19.713,19.713,0,0,1,4.94,1.476,54.217,54.217,0,0,1,5.368,4.036,4.434,4.434,0,0,1,.829,1.294c.251.582.479,1.176.706,1.769C266.316,320.832,266.509,321.14,266.244,321.464Z" transform="translate(-109.128 -245.179)" fill="#df8f4e"/>
  <path id="Path_613" data-name="Path 613" d="M253.065,334.915c-2.077.6-4.109,1.428-6.337,1.251a14.774,14.774,0,0,0-2.8-.16c-.588.394-1.1.077-1.627-.16-1.047-.647-2.187-1.111-3.265-1.7-.376-.2-.761-.088-1.135-.168-.748-.608-1.054-.567-1.189.337a4.527,4.527,0,0,1-.885,1.716,9.646,9.646,0,0,0-1.2,3.254c-.042.227-.111.549.107.689.6.393.175.669-.118.835-1.205.682-2.438,1.316-3.66,1.966.035-.805.781-1.166,1.111-1.815a7.493,7.493,0,0,0-1.463,1.99,34.62,34.62,0,0,1-4.75,2.077,5.517,5.517,0,0,1-2.941-.125,2.777,2.777,0,0,0-.872-.247,32.758,32.758,0,0,1-9.853-3.448,21.961,21.961,0,0,0-4.846-2.641.888.888,0,0,1-.608-.52c-.636-1.741-.82-4.411,1.144-5.72a8.892,8.892,0,0,0,2.6-3.444c.829-.866,1.7-1.7,2.537-2.554a3.07,3.07,0,0,0,.875-1.235c.251-.5.8-.615,1.181-.942A17.826,17.826,0,0,1,218,323.021l.575-.35c.632-.676,1.592-.627,2.335-1.056a27.2,27.2,0,0,0,2.744-.886,2.288,2.288,0,0,0,1.249-1.222c.462-.947.816-1.944,1.33-2.867a3.8,3.8,0,0,1,1.22-1.561c.324-.114.6-.394.991-.275.208.435-.114.754-.245,1.115a4.631,4.631,0,0,0-.356.837c-.717,1.644-1.395,3.3-2.224,4.9a3.024,3.024,0,0,1-1.2,1.331,32.647,32.647,0,0,0-4.891,3.787.876.876,0,0,0-.289,1.19,1.689,1.689,0,0,1-.26,1.872c-.474.632-.954,1.259-1.406,1.909-.138.2-.293.45-.542.455a5.774,5.774,0,0,0-2.707,1.22,2.8,2.8,0,0,1-2.1.343c-1.12-.155-2.263-.068-3.376-.293a12.58,12.58,0,0,0,1.625.171,4.873,4.873,0,0,1,2.72,1.354,1.789,1.789,0,0,0,1.754.468,15.144,15.144,0,0,1,1.81-.157c.509-.059.746.225.684.709a11.147,11.147,0,0,1-.523,2.114,1.144,1.144,0,0,1-.813.667c-.486.17-.991.278-1.48.437-.335.116-.722-.074-1.093.2-.057.022.109.125.042.022-.028-.042-.009-.059.037-.085a1.621,1.621,0,0,1,.888-.066,4.58,4.58,0,0,1,2.987,1.29,14.072,14.072,0,0,0,3.5,2.191.188.188,0,0,1,.079.042,4.964,4.964,0,0,0,5.373.649c2.252-.276,3.717-1.664,5.261-3.228,2.029-2.053,3.168-4.566,4.539-6.98a1.807,1.807,0,0,1,1.456-1.028c1.358-.2,2.733-.037,4.08-.3a2.209,2.209,0,0,1,1.242.216c.761.3,1.55.555,2.277.921a16.4,16.4,0,0,0,6.44,1.4A1.654,1.654,0,0,1,253.065,334.915Z" transform="translate(-120.052 -241.438)" fill="#b49185"/>
  <path id="Path_614" data-name="Path 614" d="M255.336,298.9a2.679,2.679,0,0,1,.009-.455c.444-2.366-.827-4.188-1.9-6.081-.2-.354-.431-.254-.684-.173-.72.23-1.452.444-2.152.728-.486.2-.719.105-.848-.4-.157-.616-.37-1.216-.54-1.828a11.134,11.134,0,0,0-5.668-6.789c-3.007-1.743-6.313-2.191-9.536-3.061a8.766,8.766,0,0,1-2.414-.721q-.094-.064-.061-.127c.022-.042.042-.063.064-.063a4.493,4.493,0,0,1,1.526.179,56.015,56.015,0,0,1,8.766,2.226,8.771,8.771,0,0,1,1.6.831,16.126,16.126,0,0,0,6.033,2.39c.831.158,1.675-.245,2.506.046a26.281,26.281,0,0,1,2.934,5.1c.5,2.226,1.222,4.424.754,6.763a6.785,6.785,0,0,0-.024,1.27,5.1,5.1,0,0,0-.1,1.467c-.02.184.039.461-.317.337A4.543,4.543,0,0,1,255.336,298.9Z" transform="translate(-98.79 -270.815)" fill="#e9deaf"/>
  <path id="Path_615" data-name="Path 615" d="M173.5,298.555a1.725,1.725,0,0,0-2.126-.37c-.68.243-1.4.367-2.088.591-.44.144-.5-.026-.542-.409-.158-1.4-.365-2.8-.538-4.205a.805.805,0,0,0-.483-.606c-.748-.453-1.465-.971-2.243-1.367-.757-.387-.748-.8-.227-1.351a9.109,9.109,0,0,0,.68-.733c.3-.394.077-.516-.313-.514a17.154,17.154,0,0,1,6.042-1.231A5.434,5.434,0,0,0,170,289.2c-.219.182-.427.387-.147.674a9.523,9.523,0,0,1,1.732,3.531,39.546,39.546,0,0,0,3.005,5.335c.153.391.022.5-.359.359h0C173.976,298.932,173.755,298.719,173.5,298.555Z" transform="translate(-154.958 -263.699)" fill="#f9b685"/>
  <path id="Path_616" data-name="Path 616" d="M211.44,324.01a9.082,9.082,0,0,1-3.11,4.023,3.4,3.4,0,0,0-1.056,3.147c.127,1.34.422,2.55,2.156,2.828a6.235,6.235,0,0,1,2.869,1.669,15.688,15.688,0,0,0,4.725,2.3c1.913.726,3.932,1.176,5.908,1.745a.129.129,0,0,1,.053.135q-.019.072-.044.072c-4.491-.33-8.887-1.006-12.775-3.516a23.72,23.72,0,0,1-2.736-1.94,6.153,6.153,0,0,1-2-4.126c-.011-.1.105-.206.162-.31.881-.8,1.316-1.926,2.112-2.8,1.482-1.625,2.876-3.326,4.321-4.984.512-.588,1.065-1.142,1.6-1.712a1.54,1.54,0,0,1,.509.3c.221.4-.166.522-.343.715C213.027,322.4,212.14,323.112,211.44,324.01Z" transform="translate(-120.792 -236.58)" fill="#ad5f3f"/>
  <path id="Path_617" data-name="Path 617" d="M165.474,317.215q.744,1.028,1.485,2.056a2.462,2.462,0,0,1,.713,1.891c-.063.385.247.6.486.827a35.653,35.653,0,0,0,6.593,4.8c1.935,1.142,3.929,2.169,5.908,3.225.181.1.411.144.481.383a.291.291,0,0,1-.343-.015c-3.63-1.944-7.362-3.741-10.612-6.295a31.135,31.135,0,0,1-5.259-4.861,46.243,46.243,0,0,1-3.457-5.128l-.934-4.907c-.179-.73-.5-1.485.363-2.027a5.631,5.631,0,0,0,3.028,2.956,3.362,3.362,0,0,1,2.064,2.65l-1.17-1.491c-.155,1.146-.3,2.2-.437,3.251a2.424,2.424,0,0,0,.713,2.15A.488.488,0,0,1,165.474,317.215Z" transform="translate(-158.799 -247.855)" fill="#e77b3e"/>
  <path id="Path_618" data-name="Path 618" d="M201.179,333.107c-1.356.064-2.526.811-3.836,1.039-.223.039-.547.393-.693,0-.127-.345.287-.418.514-.51a28.106,28.106,0,0,1,3.14-1.187,13.874,13.874,0,0,0,4.555-2.545c2.442-1.789,5.112-3.228,7.7-4.8a54.049,54.049,0,0,0,4.948-3c-1.458,1.778-2.419,3.932-4.3,5.357a36.04,36.04,0,0,1-4.542,2.3,56.8,56.8,0,0,0-5.653,2.67A5.142,5.142,0,0,1,201.179,333.107Z" transform="translate(-128.208 -235.257)" fill="#731d0e"/>
  <path id="Path_619" data-name="Path 619" d="M213.63,276.159A46.666,46.666,0,0,0,208.8,278.5a27.093,27.093,0,0,1-5,1.607,3.617,3.617,0,0,0-1.646,1.049,50.509,50.509,0,0,0-6.32,8.165c-.135.217-.212.558-.6.359-1.588-.824-3.245-1.515-4.767-2.465-.092-.057-.136-.194-.2-.293.826.4,1.131-.417,1.658-.713a17.465,17.465,0,0,0,3.722-1.078,7.21,7.21,0,0,0,3.676-2.4,14.579,14.579,0,0,1,7.417-4.688c1.747-.569,3.5-1.139,5.239-1.727l1.633-.379a.139.139,0,0,1,.059.142C213.659,276.133,213.644,276.159,213.63,276.159Z" transform="translate(-133.568 -274.165)" fill="#90a04d"/>
  <path id="Path_620" data-name="Path 620" d="M167.883,302.6c.177-.028.4,0,.525-.092,1.358-1.012,2.618-.359,3.892.193.372.162.56.31.192.706-1.045,1.128-2.062,2.283-3.083,3.433a1.029,1.029,0,0,1-.9.323,38.076,38.076,0,0,0-7.38.531,38.68,38.68,0,0,1,6.109-4.6A5.844,5.844,0,0,0,167.883,302.6Z" transform="translate(-158.121 -252.223)" fill="#fcca93"/>
  <path id="Path_621" data-name="Path 621" d="M227.339,327.727a3.326,3.326,0,0,0,1.642.389,1.761,1.761,0,0,0,1.106.324c1.734-.083,3.444.288,5.172.2a8.607,8.607,0,0,0,2.832-.929,15.437,15.437,0,0,1,4.734-1.1,10.519,10.519,0,0,0,3.04-1.139,20.165,20.165,0,0,1,3.846-1.34l-.838,1.069a23.287,23.287,0,0,1-5.117,2.115c-1.568.485-3.151.921-4.739,1.338a25.527,25.527,0,0,1-4.233.719,22.68,22.68,0,0,1-7.514-.523,12.064,12.064,0,0,1-2.149-1.06c-.295-.136-.6-.271-.892-.429-.385-.411-.085-.52.26-.5a6.1,6.1,0,0,1,1.749.45C226.6,327.456,226.97,327.6,227.339,327.727Z" transform="translate(-105.1 -233.548)" fill="#834d36"/>
  <path id="Path_622" data-name="Path 622" d="M211.22,276.146a46.97,46.97,0,0,1-4.979,1.881c-1.316.534-2.653,1.019-3.977,1.535a3.089,3.089,0,0,0-1.124.752c-.564.6-1.214,1.115-1.723,1.752a10.947,10.947,0,0,1-5.736,3.6,3.827,3.827,0,0,1-2.515.376c3.4-2.565,6.7-5.244,10.754-6.831a75.6,75.6,0,0,1,8.5-2.93C210.678,276.208,210.953,276.188,211.22,276.146Z" transform="translate(-132.81 -273.991)" fill="#b2bd71"/>
  <path id="Path_623" data-name="Path 623" d="M162.631,291.412a19.788,19.788,0,0,0,2.228,3.037,1.318,1.318,0,0,1,.155,1.7c-.6,1.074-1.111,2.2-1.66,3.3a10.633,10.633,0,0,1,.542,3.464,11.592,11.592,0,0,0,1.2,4.052,2.069,2.069,0,0,1,.422,1.085,24.527,24.527,0,0,1-3.09-7.139,8.432,8.432,0,0,1-.046-5.261,7.155,7.155,0,0,0,.225-3.142A1.485,1.485,0,0,1,162.631,291.412Z" transform="translate(-157.403 -261.126)" fill="#fcb471"/>
  <path id="Path_624" data-name="Path 624" d="M240.609,280.465l0,.19a.535.535,0,0,1-.181-.007c-2.209-.908-4.308-.024-6.425.42a2.416,2.416,0,0,1-1.321-.048c-1.205-.394-2.418-.767-3.628-1.142a2.2,2.2,0,0,0-.614-.136c-2.147.011-4.284-.319-6.433-.184a1.515,1.515,0,0,1-1.146-.024,2.42,2.42,0,0,1,1.59-.217c2.541.127,5.082.006,7.623.05A46.393,46.393,0,0,1,240.609,280.465Z" transform="translate(-107.789 -271.348)" fill="#e9deaf"/>
  <path id="Path_625" data-name="Path 625" d="M185.739,276.873a21.62,21.62,0,0,1-4.557.912,11.114,11.114,0,0,1-2.775.2c-.19-.228,0-.383.107-.555.448-.709.975-1.365,1.4-2.091a.434.434,0,0,1,.51-.265Z" transform="translate(-143.63 -274.909)" fill="#91a94b"/>
  <path id="Path_626" data-name="Path 626" d="M235.24,309.633c1.505-1.789,3.431-3.145,4.994-4.878,1.354-1.5,2.755-2.954,4.135-4.428.162.691-.553.966-.715,1.5a11.722,11.722,0,0,1-2.13,2.44c-1.257,1.273-2.412,2.622-3.542,4a1.711,1.711,0,0,1-1.351.814C236.075,309.07,235.784,309.661,235.24,309.633Z" transform="translate(-95.669 -253.613)" fill="#de8e4e"/>
  <path id="Path_627" data-name="Path 627" d="M209.142,283.107c-.453-.639-1.4-.79-1.634-1.647,1.428.28,2.615-.636,3.954-.8,1.97-.241,3.9-.776,5.893-.84.1.064.1.133,0,.2a19.679,19.679,0,0,1-3.6.77,7.615,7.615,0,0,0-3.9,2.125C209.662,283.128,209.461,283.345,209.142,283.107Z" transform="translate(-119.038 -270.895)" fill="#e9dead"/>
  <path id="Path_628" data-name="Path 628" d="M171.435,320.952l.343.015.383.171a3.152,3.152,0,0,0,4.492-.921q.528-.79,1.06-1.579a.613.613,0,0,1,.809-.217c.394.2.033.466-.066.673-.21.435-.474.842-.7,1.271a3.956,3.956,0,0,1-1.944,2.042A2.744,2.744,0,0,0,174.4,324.2a7.045,7.045,0,0,1-.942,1.846,11.044,11.044,0,0,1,.96-2.613c.2-.571.138-.846-.462-1.109A8.409,8.409,0,0,1,171.435,320.952Z" transform="translate(-149.437 -238.427)" fill="#f9cfa4"/>
  <path id="Path_629" data-name="Path 629" d="M161.6,308.89a3.9,3.9,0,0,0-.363,2.027q-.71-1.045-1.421-2.09a1.405,1.405,0,0,1,.057-1.843,6.094,6.094,0,0,1,2.5-1.876l-.381,1.607Q161.793,307.8,161.6,308.89Z" transform="translate(-159.497 -249.584)" fill="#fcca93"/>
  <path id="Path_630" data-name="Path 630" d="M183.216,275.14a15.738,15.738,0,0,0-2.014,2.911,4.561,4.561,0,0,0-1.006,1.493,35.431,35.431,0,0,0-4.594,11.882c-.21,1.155-.269,2.338-.394,3.509-.026.236.041.5-.2.667a28.306,28.306,0,0,1,1.557-8.985,48.586,48.586,0,0,1,5.946-11.3C182.7,275.031,182.882,274.813,183.216,275.14Z" transform="translate(-146.424 -274.977)" fill="#cbb570"/>
  <path id="Path_631" data-name="Path 631" d="M174.513,327.08a19.691,19.691,0,0,1,7.467,4.037,6.907,6.907,0,0,1-2.7-.986A16.078,16.078,0,0,1,174.513,327.08Z" transform="translate(-146.843 -231.069)" fill="#e4aa78"/>
  <path id="Path_632" data-name="Path 632" d="M212.856,280.361l0-.2a18.7,18.7,0,0,1,3.975-.311c3.59-.166,7.188-.182,10.776-.429l1.144.024a.675.675,0,0,1-.584.179c-2.932.031-5.832.459-8.747.691C217.241,280.485,215.043,280.356,212.856,280.361Z" transform="translate(-114.535 -271.234)" fill="#e9dbac"/>
  <path id="Path_633" data-name="Path 633" d="M245.229,317.881c-.144-.964-.75-1.767-.934-2.716a.489.489,0,0,1,.011-.577c1.118,1.419,2.173,2.871,2.182,4.793a2.924,2.924,0,0,1-.35,1.458.312.312,0,0,1-.024-.42A5.588,5.588,0,0,0,245.229,317.881Z" transform="translate(-88.113 -241.596)" fill="#edd1ba"/>
  <path id="Path_634" data-name="Path 634" d="M163.822,290.945a16.811,16.811,0,0,1-1.273,1.817,4.165,4.165,0,0,1,.184-3.274,7.084,7.084,0,0,1,2.762-.335C164.561,289.4,164.257,290.234,163.822,290.945Z" transform="translate(-157.156 -263.031)" fill="#e8dbb5"/>
  <path id="Path_635" data-name="Path 635" d="M245.6,288.1a41.489,41.489,0,0,1-2.934-5.1C244.962,283.942,245.29,286.015,245.6,288.1Z" transform="translate(-89.411 -268.213)" fill="#fdecd4"/>
  <path id="Path_636" data-name="Path 636" d="M207.218,279.527l-1.246-1.485a4.75,4.75,0,0,1-1.852-2.349c1.29-.407,1.306-.417,1.859.72.5,1.025.955,2.069,1.43,3.1C207.348,279.6,207.286,279.6,207.218,279.527Z" transform="translate(-121.893 -274.584)" fill="#e8deae"/>
  <path id="Path_637" data-name="Path 637" d="M172.508,323.908l.05,1.629c.033.735.442,1.471-.009,2.2a1.391,1.391,0,0,1-1.091-1.7A3.045,3.045,0,0,1,172.508,323.908Z" transform="translate(-149.439 -233.742)" fill="#fae9d5"/>
  <path id="Path_638" data-name="Path 638" d="M205.119,275.578l1.852,2.349a19.228,19.228,0,0,1-2.832-1.342,1.42,1.42,0,0,0-1.185-.122l-.018-.219Q204.027,275.913,205.119,275.578Z" transform="translate(-122.892 -274.47)" fill="#778b2f"/>
  <path id="Path_639" data-name="Path 639" d="M246.65,317.752l.024.42a11.212,11.212,0,0,1-2.569,5.338.785.785,0,0,1-.527.317c-.1-.617.534-.833.719-1.3q.918-1.915,1.835-3.835A3,3,0,0,1,246.65,317.752Z" transform="translate(-88.65 -238.93)" fill="#ecd0ba"/>
  <path id="Path_640" data-name="Path 640" d="M247.014,316.758l-.011.577c-.615-1.542-2.158-2.11-3.289-3.1-.877-.772-1.892-1.377-2.722-2.211.061,0,.136-.018.181.009C243.3,313.386,245.582,314.543,247.014,316.758Z" transform="translate(-90.821 -243.766)" fill="#edcfb4"/>
  <path id="Path_641" data-name="Path 641" d="M227.84,326.969c-.923-.216-1.848-.424-2.768-.654-.295-.074-.492-.111-.343.295a1.814,1.814,0,0,1-1.275-1.277c.275-.138.47-.442.879-.208C225.479,325.778,226.734,326.23,227.84,326.969Z" transform="translate(-105.601 -232.789)" fill="#966750"/>
  <path id="Path_642" data-name="Path 642" d="M163,289.334c.081,1.1-.3,2.173-.184,3.274-.188.144-.169.352-.166.555-.009.369-.018.735-.026,1.1a13.406,13.406,0,0,1-.662-3.343A1.715,1.715,0,0,1,163,289.334Z" transform="translate(-157.425 -262.878)" fill="#fbe6d4"/>
  <path id="Path_643" data-name="Path 643" d="M245.188,291.959c.459-.544-.109-1.29.363-1.832a20.145,20.145,0,0,1-1.465,8.147c-.094.221-.14.468-.365.608-.33-.483.053-.872.171-1.3l.024-.521a18.648,18.648,0,0,0,1.078-3.84l0,0C245.261,292.836,244.937,292.353,245.188,291.959Z" transform="translate(-88.632 -262.209)" fill="#f5e5c6"/>
  <path id="Path_644" data-name="Path 644" d="M239.806,304c.007-.612.671-.91.715-1.5a5.127,5.127,0,0,1,.9-1.273c.755-.931,1.378-1.955,2.038-2.952.135-.2.116-.663.586-.483a.506.506,0,0,1-.068.51A37.876,37.876,0,0,1,239.806,304Z" transform="translate(-91.821 -255.785)" fill="#de9353"/>
  <path id="Path_645" data-name="Path 645" d="M182.026,329.816c.527.3,1.111.129,1.668.2a1.662,1.662,0,0,1,.916.315,11.824,11.824,0,0,1-6.042-1.06Z" transform="translate(-143.427 -229.223)" fill="#e4aa78"/>
  <path id="Path_646" data-name="Path 646" d="M160.946,310.924a42.769,42.769,0,0,1,3.457,5.128A14.5,14.5,0,0,1,160.946,310.924Z" transform="translate(-158.276 -244.684)" fill="#fee0b3"/>
  <path id="Path_647" data-name="Path 647" d="M191.359,282.4a31.5,31.5,0,0,1-3.322-2.781,13.478,13.478,0,0,1-2.327-1.977,6.428,6.428,0,0,1,2.349,1.655A21.214,21.214,0,0,1,191.359,282.4Z" transform="translate(-137.408 -272.73)" fill="#c4c38a"/>
  <path id="Path_648" data-name="Path 648" d="M242.1,300.134l0-.54c-.21-.311.088-.5.181-.735l.039-.146c.741-.4.678-1.341,1.242-1.861.431-.337.28-1.1.929-1.275A15.224,15.224,0,0,1,242.1,300.134Z" transform="translate(-89.943 -257.617)" fill="#f3e0bd"/>
  <path id="Path_649" data-name="Path 649" d="M245.14,320.346c-.018.555-.514.844-.719,1.3-.5.553-.945,1.214-1.852,1.063A13.4,13.4,0,0,1,245.14,320.346Z" transform="translate(-89.492 -236.744)" fill="#b9988c"/>
  <path id="Path_650" data-name="Path 650" d="M219.5,331.211a3.69,3.69,0,0,1,1.865-2.5c-.192.978-1.06,1.518-1.513,2.325C219.781,331.19,219.628,331.181,219.5,331.211Z" transform="translate(-108.935 -229.695)" fill="#c29e92"/>
  <path id="Path_651" data-name="Path 651" d="M172.038,326.993q.006-1.1.009-2.2c.28.17.059.544.3.732-.057,1.321,1.045,1.647,1.885,2.2C173.424,327.706,172.8,327.152,172.038,326.993Z" transform="translate(-148.929 -232.996)" fill="#f1ccaf"/>
  <path id="Path_652" data-name="Path 652" d="M243.8,296.758c-.451.323-.385,1.021-.929,1.275a38.138,38.138,0,0,1,1.634-3.859l-.171,1.3C244.024,295.846,244.155,296.4,243.8,296.758Z" transform="translate(-89.241 -258.798)" fill="#eddcb3"/>
  <path id="Path_653" data-name="Path 653" d="M205.8,277.663l.192-.009a6.546,6.546,0,0,1,.929,1.994l-.188-.005A5.849,5.849,0,0,1,205.8,277.663Z" transform="translate(-120.477 -272.72)" fill="#d9b074"/>
  <path id="Path_654" data-name="Path 654" d="M214.935,331.159l-.009-.206a.638.638,0,0,1,.732.326C215.405,331.3,215.143,331.4,214.935,331.159Z" transform="translate(-112.787 -227.812)" fill="#b6846f"/>
  <path id="Path_655" data-name="Path 655" d="M233.761,306.844a.753.753,0,0,1,.743-.562A.972.972,0,0,1,233.761,306.844Z" transform="translate(-96.915 -248.596)" fill="#d58041"/>
  <path id="Path_656" data-name="Path 656" d="M267.961,327.539l-2.924,1.644c-.407-.488-.287-1.109-.348-1.658a2.325,2.325,0,0,0-1-1.635,34.317,34.317,0,0,0-5.329-3.326,60.7,60.7,0,0,0-9.8-4.612,20.031,20.031,0,0,0-4.4-.569,5.822,5.822,0,0,1-2.1-.518c-2.22-1.131-4.461-2.22-6.68-3.472a2.337,2.337,0,0,0,1.423,1.795c4.336,2.464,9.118,3.671,13.859,4.983a31.355,31.355,0,0,1,7.419,3.453c1.476.864,2.407,2.458,3.591,3.717a.7.7,0,0,1,.157.6c-.1.263-.324.321-.568.35a11.225,11.225,0,0,1-3.085-1.06c-.566-.251-.674-.855-.774-1.378a1.785,1.785,0,0,0-1.329-1.447c-1.231-.433-2.458-.883-3.665-1.343a13.657,13.657,0,0,1,2.213,2.5c.521,1.008.44,1.268-.564,1.776a3.216,3.216,0,0,1-1.019.381c-1.349.182-1.939-.284-1.926-1.629a1.33,1.33,0,0,0-.98-1.434c-1.052-.394-2.068-.881-3.107-1.31-.284-.118-.6-.291-.826.035-.477.685-1.083.516-1.714.322-.405-.123-.814-.236-1.236-.324a.475.475,0,0,0,.212.367c1.835,1.587,2.705,3.778,3.695,5.891a1.453,1.453,0,0,1,.223,1.129c-.221.208-.313-.005-.433-.133q-.652-1.133-1.3-2.265c-.634-1.1-.881-1.216-2.108-.951-1.074.234-1.113.214-.864-.79.083-.341.011-.518-.282-.65-.083-.037-.162-.085-.245-.12-1.286-.544-2.267-1.323-2.219-2.889.041-1.271-1.146-1.611-1.813-2.324-.551-.586-1.308-.971-1.911-1.517a8.089,8.089,0,0,0-3.855-1.644,4.433,4.433,0,0,0-.9-.37c-1.058-.44-2.062-1-3.134-1.4.678.477,1.517.6,2.22,1.015.164.1.459.083.341.413a15.263,15.263,0,0,0-4.019-.365,38.777,38.777,0,0,0-9.1.177c-2.04.251-4.071.562-6.1.918-1.27.223-2.408.837-3.643,1.157a1.383,1.383,0,0,1-1.307-.112c-1.367-1.141-3.05-1.281-4.7-1.542-.54-.087-1.08-.181-1.62-.264a1.72,1.72,0,0,0-1.275.381c-.367.251-.35.462.044.651.743.356,1.454.767,2.16,1.187.254.153.63.317.507.662-.116.326-.51.265-.809.219-1.474-.223-2.943-.474-4.411-.73a9.893,9.893,0,0,0-3.256-.14c-1.319.2-2.663.221-3.988.409a1.953,1.953,0,0,0-1.168.424c1.795.671,3.345,1.717,5.254,1.793,1.034.041,2.055.2,3.085.287.475.042.755.015.466-.556-.146-.286-.453-.6-.2-.912.289-.359.73-.188,1.111-.109.446.1.892.2,1.327.335.833.26.99.625.448,1.33a10.522,10.522,0,0,1-2.27,2.35,22.807,22.807,0,0,1-5.348.894c-.662.057-1.321.144-1.985.188-.52.035-.678.276-.577.774.138.682.321,1.354.444,2.04a1.364,1.364,0,0,1-.136,1.131L186,332.837c-.4.671-.9.663-1.535.319-.988-.536-2-1.025-3.015-1.509-.271-.131-.608-.468-.875-.052s-.011.752.337,1c.737.534,1.485,1.056,2.219,1.594.276.2.732.385.6.8-.1.332-.531.359-.861.405-1.172.164-2.348.3-3.52.466-.461.065-.857.024-1.039-.486q-1.65-1.7-3.3-3.394c-.181-.186-.4-.335-.647-.186-2.021,1.224-3.2-.339-4.546-1.36-.405-.308-.755-.746-1.323-.7-.291.022-.711.092-.824.286-.182.313.164.59.38.84.468.545.932,1.095,1.448,1.7-2.548-1.035-3.634-2.4-4.26-5.362a29.453,29.453,0,0,1,3.129,1.207c2.176.759,4.334,1.566,6.514,2.314.536.182,1.341.337,1.612-.066.225-.332-.477-.851-.794-1.271a14.491,14.491,0,0,0-5.43-4.144c-.026-.013-.052-.03-.079-.042a1.01,1.01,0,0,1-.569-1.209c.105-.361.647-.123.958-.076a37.506,37.506,0,0,1,6.038,1.95c.114.039.217.114.332.149.45.138,1,.472,1.259-.175.28-.695-.463-.673-.8-.822a12.954,12.954,0,0,0-5.545-1.524,1.081,1.081,0,0,1-.586-.227c-1.017-.706-2.025-1.428-3.2-2.261,1.6-.446,2.993-.7,4.439.048a22.636,22.636,0,0,0,2.781,1.12,3.523,3.523,0,0,0,3.556-.481c-1.142-.569-2.443-.407-3.553-.991.295-.529,1.1-.967.84-1.417-.252-.433-1.1-.273-1.7-.354a19.427,19.427,0,0,1-3.287-.424,2.487,2.487,0,0,1,2.377-1.358c.586-.055.566-.256.354-.682-.227-.457-.4-.942-.68-1.62,1.347.378,2.536.673,3.7,1.05a2.372,2.372,0,0,0,2.25-.065c1.034-.737,2.165-.453,3.241-.317a68.646,68.646,0,0,0,9.035.7,22.846,22.846,0,0,1,3.333-.164l.046-.219c-1.074-.416-2.174-.774-3.214-1.26a19.071,19.071,0,0,0-8.425-1.45,9.605,9.605,0,0,1-2.488-.477,4.165,4.165,0,0,0-2.226-.1c-.752.21-1.544.273-2.316.415-1.437.262-1.411.26-1.763-1.113a.776.776,0,0,1,.455-1.023,4.957,4.957,0,0,1,3.2-.816,4.634,4.634,0,0,0,1.437-.175,4.37,4.37,0,0,1,3.238.9c.555.369,1.205.6,1.74.986a1.421,1.421,0,0,0,2.093-.208c1.325-1.452,2.9-1.325,4.561-.857.138.04.269.1.405.153-.031.083-.037.155-.076.186-.367.3-1.043.51-.984.949.063.479.785.448,1.224.591,1.843.6,3.7,1.161,5.556,1.727a6.373,6.373,0,0,0,.8.136c.612.276.426.9.658,1.384-.162-.606-.293-1.189-.464-1.763.109-.534.453-.332.768-.254,1.364.339,2.727.678,4.1,1,.236.057.549.337.721-.006a.636.636,0,0,0-.295-.919c-.041-.166-.007-.254.186-.186a16.019,16.019,0,0,1,3.534,1.634,3.629,3.629,0,0,1,.464.284,3.55,3.55,0,0,0,3.33.453,27.386,27.386,0,0,1,3.453-.713c.451-.083.833-.048.818-.768-.009-.481.73-.544,1.144-.767.931-.5.921-.49.052-1.131a51.131,51.131,0,0,0-9.221-5.3,28.551,28.551,0,0,0-3.846-1.388,47.384,47.384,0,0,1-7.415-3.247c-.632-.31-.868-.912-1.231-1.419a11.882,11.882,0,0,1-1.373-2.423,24.849,24.849,0,0,0,2.9.844,8.242,8.242,0,0,1,4.465,2.775c1.26,1.3,2.8,1.666,4.644,2-1.354-1.33-2.74-2.324-4.045-3.416-1.57-1.314-3.38-2.34-4.679-3.982-.457-.577-.442-.709.3-1.006,1.605-.639,3.059-.1,4.588.217,2.29.479,3.805,2.161,5.578,3.437.339.243.485.754.719,1.141-.252.551-.774.326-1.12.278a4.773,4.773,0,0,1-1.563-.437c.615.335,1.38.264,1.955.709.553.44,1.341.3,1.913.73a1.085,1.085,0,0,1-.689.472c-.733.273-.739.6-.14,1.039.927.676,1.824,1.4,2.788,2.027a7.391,7.391,0,0,0,3.138.809c1.931.26,3.881.645,5.83.053.317-.1.582.124.857.247A21.288,21.288,0,0,0,223.4,308a2.75,2.75,0,0,1,1.242.562c-.306-.243-.7-.357-.868-.754-.534-.437-1.074-.87-1.6-1.314-.16-.136-.518-.212-.26-.542.2-.258.4-.542.822-.308,1.881,1.041,3.949,1.71,5.751,2.926a16.433,16.433,0,0,0,5.932,2.946,9.568,9.568,0,0,0-2.16-2.469c-1.959-1.415-4.153-2.523-5.74-4.422a2.156,2.156,0,0,1-.4-.6c3.363,1.7,6.988,2.705,10.437,4.152a.364.364,0,0,1,.357.19,14.126,14.126,0,0,0,2.946,1.752,53.26,53.26,0,0,1,5.55,3.923,6.708,6.708,0,0,0,2.279,1.074,4.364,4.364,0,0,1,2.548,1.467,18.287,18.287,0,0,0,5.37,3.5c1.012.461,1.99.988,3.208,1.6-.678-1.856-1.752-3.25-2.143-5,2.3,1.568,4.5,3.164,6.8,4.6a27.269,27.269,0,0,0,5.675,2.163c.6.208.608-.49.818-.791.73-1.043.7-1.076-.47-1.555-.84-.343-1.692-.663-2.537-1-.291-.114-.75-.118-.531-.627.155-.363.225-.756.886-.612a47.732,47.732,0,0,0,7.1.831c.883.055,1.1-.275,1.041-1.082s.007-1.642-.022-2.462c-.018-.525.2-.685.7-.678,1.552.02,3.11.112,4.651-.015,3.407-.28,6.75-.715,9.776-2.637,1.933-1.229,4.019-2.248,6-3.422a1.781,1.781,0,0,1,.654-.227,33.123,33.123,0,0,1-6.709,5.939,54.31,54.31,0,0,1-7.065,3.744,2.188,2.188,0,0,0-1.386,1.531,1.377,1.377,0,0,1-.936,1.017c-1.631.656-3.238,1.375-4.894,1.955a7.041,7.041,0,0,1-2.318.319,41.523,41.523,0,0,0-7.019.744c-.73.123-.579.518-.286.886A9.51,9.51,0,0,1,267.961,327.539Z" transform="translate(-154.661 -257.441)" fill="#9a3613"/>
  <path id="Path_657" data-name="Path 657" d="M196.909,307.588a8.995,8.995,0,0,1-5.539-1.97,38.594,38.594,0,0,0-8.48-3.892c-1.152-.435-1.66-1.55-2.364-2.434-.317-.4.229-.409.418-.444.859-.158,1.727-.273,2.593-.391a1.271,1.271,0,0,0,1.19-.816c.743-2.025,2.294-3.474,3.7-5.008,2.15-2.355,4.57-4.434,6.914-6.59a.707.707,0,0,1,1.025-.077c1.347.873,2.69,1.752,4.061,2.585a4.448,4.448,0,0,1,1.4,1.856q1.061,1.852,2.049,3.75a.842.842,0,0,0,.849.553c.4-.074.208-.51.214-.783.035-1.857.039-1.729,1.88-1.892,1.935-.173,3.293,1.095,4.94,1.62a3.653,3.653,0,0,0,1.421.475,13.724,13.724,0,0,1-1.985-8.515,14.715,14.715,0,0,1,1.653,2.569,1.67,1.67,0,0,0,3,.193c.722-.932,1.364-1.933,2.15-2.806a17.176,17.176,0,0,1,2.642-2.484,14.747,14.747,0,0,0,2.972-3.516c.234-.315.446-.649.669-.973.861-1.257,1.257-1.264,2.075-.072a30.758,30.758,0,0,1,3.472,6.669,5.985,5.985,0,0,0,.492.861,8.864,8.864,0,0,1,.973,3.459c.256,1.456.494,2.913.673,4.38.144,2.423.234,4.85.19,7.279-.018,1.091-.138,2.178-.147,3.271a1.566,1.566,0,0,1-.245.776c-.606,1.019-1.19,2.051-1.789,3.074a1.072,1.072,0,0,1-1.437.534c-1.653-.494-3.306-1-4.949-1.517-.608-.194-1.235-.291-1.846-.451-1.953-.343-3.912-.678-5.869-.954a13.738,13.738,0,0,0-4.583-.157,20.761,20.761,0,0,0-3.778.748l-.006,0a17.181,17.181,0,0,0-3.227.623l-.789.118c-.059-.4.284-.444.516-.5.6-.155.728-.555.708-1.1-.026-.761-.219-1.5-.206-2.268.007-.45-.332-.61-.711-.7-.859-.206-1.7-.492-2.554-.691a1.05,1.05,0,0,1-.91-1.168c.011-.579.013-1.157-.006-1.734-.022-.746-.105-.791-.807-.464-.523.245-.986.6-1.513.844-.772.356-1.069.269-1.517-.437-.083-.129-.147-.267-.221-.4-.7-1.237-1.017-1.262-1.916-.1-.781,1.012-1.439,2.11-2.154,3.168a1.238,1.238,0,0,0-.142,1.214,2.835,2.835,0,0,1,.131.341,4.62,4.62,0,0,0,3.768,3.7C196.3,307.005,196.839,307.011,196.909,307.588Z" transform="translate(-141.858 -272.73)" fill="#435e1e"/>
  <path id="Path_658" data-name="Path 658" d="M241.917,310.818a2.685,2.685,0,0,1-1.391.778c-1.356.308-2.714.632-4.039,1.045-1.224.381-2.408-.12-3.593-.02-2.482.21-3.556-1.553-4.808-3.169-1.795-2.318-3.6-4.634-5.5-6.859-.776-.907-2.077-1.085-3.138-1.594-.87-.418-1.763-.783-2.76-1.222a7.608,7.608,0,0,1,2.353-.864c1.354-.472,1.358-.461.842-1.837,1.222.61,2.344,1.117,3.411,1.719a1.245,1.245,0,0,0,1.775-.2.7.7,0,0,1,.221-.157c.4-.193.772-.778,1.139-.6.411.2.171.829.155,1.26-.029.77.227.814.827.479a14.253,14.253,0,0,0,1.563-.724,3.2,3.2,0,0,1,3.779-.026c1.006.551,2.108.925,3.144,1.428a1.242,1.242,0,0,0,1.041-.077c2.755-.925,5.554-1.756,7.909-3.567a.815.815,0,0,1,.269-.074,1.093,1.093,0,0,1-.127,1.117,5.016,5.016,0,0,0,.319,4.7,13.315,13.315,0,0,1,.818,3.971,1.572,1.572,0,0,1-.7,1.7c-1,.715-1.867,1.625-2.943,2.257-.252-.44.114-.669.346-.908.628-.652,1.146-1.4,1.922-2.161-1.517.942-2.9,1.734-4.282,2.6C240.891,310.327,241.567,310.335,241.917,310.818Z" transform="translate(-111.303 -256.809)" fill="#954016"/>
  <path id="Path_659" data-name="Path 659" d="M211.73,301.472a1.9,1.9,0,0,0-1.006-.365,3.529,3.529,0,0,1-2.222-1.286c-1.356-1.546-2.663-3.131-3.872-4.8-.109-.151-.254-.3-.153-.485.125-.232.313-.059.475-.026,2.337.474,4.7.837,7,1.448,2.779.739,5.377,2.04,8.112,2.919,5.548,1.78,9.934,5.447,14.532,8.779a3.651,3.651,0,0,1,.781,1.106c.628.964,1.279,1.913,1.922,2.867.153.229.367.464.311.737-.1.5-.192,1.1-.615,1.376-.37.24-.757-.214-1.109-.424a87.368,87.368,0,0,0-8.012-4.3,9.026,9.026,0,0,1-3.076-2.209c-.522-.592-1.109-1.124-1.669-1.682-1.047-1.047-1.058-1.067-2.386-.33-.381.212-.634.052-.925-.092-1.279-.636-2.569-1.253-3.827-1.926a11.834,11.834,0,0,0-3.531-1.12C212.254,301.449,211.929,301.7,211.73,301.472Z" transform="translate(-121.621 -258.591)" fill="#f9b685"/>
  <path id="Path_660" data-name="Path 660" d="M202.844,299.424a10.6,10.6,0,0,1,3.438.756c1.168.313,2.324.689,3.462,1.1a.676.676,0,0,0,.967-.315c.669-1.154,1.356-2.294,2.023-3.448a1.115,1.115,0,0,0,.144-.518c.063-2.607.345-5.213.164-7.817-.063-.9-.168-1.806-.147-2.714.416,0,.221.326.258.516.063.31-.1.645.107.94l0-.006c.188,1.623.028,3.252.088,4.878.013.322-.1.665.1.969,1.371.564,2.746,1.122,4.111,1.7a.764.764,0,0,0,.608-.028,10.928,10.928,0,0,0,2.136-.754c2.206-1.349,4.3-.523,6.413.19.492.166.372.413.146.752-.623.93-1.185,1.9-1.822,2.823a1.035,1.035,0,0,0-.105,1.17c.49,1.041.945,2.1,1.4,3.153a3.585,3.585,0,0,1-.529,2.714.6.6,0,0,1-.593.1c-1.662-.291-3.339-.51-4.979-.888a17.825,17.825,0,0,1-3.162-1.109,44.635,44.635,0,0,0-7.844-2.165A52.151,52.151,0,0,1,202.844,299.424Z" transform="translate(-122.969 -265.296)" fill="#5f6d1c"/>
  <path id="Path_661" data-name="Path 661" d="M191.782,298.605c-1.061-.426-2.121-.859-3.186-1.273-.289-.111-.579-.2-.709-.514-.431-1.034-.855-2.069-1.292-3.1a.878.878,0,0,1,.122-.931c.851-1.214,1.675-2.447,2.512-3.671a1.609,1.609,0,0,1,.3-.332c.848-.687.945-.671,1.533.247,1.036,1.616,1.025,1.594,2.709.656.485-.269,1.058-.864,1.524-.58.389.236.129,1.015.135,1.552.017,1.841.006,1.841,1.8,2.366a1.786,1.786,0,0,1,.258.09c.673.323,1.854.081,2.021.763a10.845,10.845,0,0,1,.3,3.5c-.028.33-.249.435-.551.5a1.373,1.373,0,0,0-.894.376l-3.12.886a.1.1,0,0,1-.16.02A19.757,19.757,0,0,1,191.782,298.605Z" transform="translate(-136.731 -263.748)" fill="#232f16"/>
  <path id="Path_662" data-name="Path 662" d="M220.7,308.988c.173-.057.437.249.525-.1a.606.606,0,0,0-.372-.733c-1.378-.759-2.711-1.609-4.124-2.292a4.438,4.438,0,0,1-1.7-1.7c-.678-.984-1.378-1.953-2.161-3.059a4.432,4.432,0,0,1,2.825,1.026,31.271,31.271,0,0,0,7.074,4.229c1.673.709,2.681,2.11,3.844,3.437-.676-.254-1.347-.527-2.029-.761-.744-.254-.831-.107-.77.7a2.06,2.06,0,0,0,1.588,2.086,3.456,3.456,0,0,1,.772.455c-.05.459-.328.251-.556.192-1.229.269-1.942-.636-2.764-1.249-.868-.645-1.688-1.354-2.53-2.036C220.307,308.84,220.484,308.879,220.7,308.988Z" transform="translate(-114.523 -252.96)" fill="#e38f43"/>
  <path id="Path_663" data-name="Path 663" d="M197.194,293.333a16.507,16.507,0,0,0,1.911-.015c2.519-.3,4.75.628,7.111,1.59a13.776,13.776,0,0,1-2.187-.024,20.714,20.714,0,0,0-2.342-.1,31.316,31.316,0,0,0,5.217,3.343c-2.134.416-11.686-1.592-14.24-3,1.45-.82,3.122-.982,4.526-1.8Z" transform="translate(-131.548 -259.569)" fill="#e77631"/>
  <path id="Path_664" data-name="Path 664" d="M199.078,296.153c1.655.16,3.208.558,4.78.844a4.937,4.937,0,0,0,.534.1c.275.017.58-.009.711.291.157.361-.179.531-.348.77-1.034,1.476-2.742,1.76-4.266,2.141a5.464,5.464,0,0,1-3.162-.571,28.736,28.736,0,0,1-2.653-1.4.686.686,0,0,1-.429-.553c-.009-.354.324-.334.527-.391C196.223,296.971,197.578,296.21,199.078,296.153Z" transform="translate(-130.216 -257.131)" fill="#ed7f35"/>
  <path id="Path_665" data-name="Path 665" d="M179.191,291.333a39.993,39.993,0,0,1,6.109,1.942c2.25.728,4.129,2.13,6.153,3.273a1.929,1.929,0,0,1,.426,1.868c-.164.247-.363.142-.562.068-1.616-.6-3.234-1.19-4.846-1.8-.518-.2-.6-.735-.814-1.155-.936-1.837-.932-2.02-2.9-1.983C180.936,293.585,180.315,292.162,179.191,291.333Z" transform="translate(-142.901 -261.193)" fill="#e37836"/>
  <path id="Path_666" data-name="Path 666" d="M172.5,319.247a1.25,1.25,0,0,0,1.161.227c1.093-.214,2.215-.276,3.322-.416a9.329,9.329,0,0,0,.96-.241c-1.128-.824-2.147-1.576-3.177-2.311a.749.749,0,0,1-.372-.9c.155-.682.372-.848,1.028-.481,1.087.608,2.239,1.1,3.33,1.7a1.034,1.034,0,0,0,1.432-.118,6.674,6.674,0,0,1-1.439,1.822c-.72.884-1.494,1.728-2.222,2.611a7.757,7.757,0,0,1-2.379,1.574,7.815,7.815,0,0,0-1.533-2.477c-.168-.262-.536-.409-.475-.805A.374.374,0,0,0,172.5,319.247Z" transform="translate(-148.851 -241.307)" fill="#c45d27"/>
  <path id="Path_667" data-name="Path 667" d="M174.085,295.336c2.677.376,5.429.206,7.87,1.548.177.1.466.1.477.348s-.276.295-.455.372c-1.3.573-2.618,1.119-3.919,1.7-.381.169-.636.116-.824-.256-.055-.107-.142-.2-.208-.3A9.289,9.289,0,0,0,174.085,295.336Z" transform="translate(-147.204 -257.82)" fill="#ae3210"/>
  <path id="Path_668" data-name="Path 668" d="M184.746,302.087c-3.144-.789-6.086-1.494-7.99-4.317a23.9,23.9,0,0,0,3.514.391c1.841-.057,2.749,1.013,3.509,2.427C184.031,301.057,184.355,301.489,184.746,302.087Z" transform="translate(-144.953 -255.769)" fill="#a62e10"/>
  <path id="Path_669" data-name="Path 669" d="M180.708,301.167c-1.784.21-3.367.381-4.944.586a3.218,3.218,0,0,1-1.872-.573c-.319-.158-.229-.4-.085-.606a22.2,22.2,0,0,0,1.791-2.6c.194-.376.44-.118.6-.007C177.651,298.981,179.092,300.017,180.708,301.167Z" transform="translate(-147.549 -255.762)" fill="#b0310f"/>
  <path id="Path_670" data-name="Path 670" d="M192.366,294.207a.254.254,0,0,1,.16-.02c.545.048.912.123.461.815-.713,1.089-1.3,2.263-2.012,3.35a.723.723,0,0,0,.131,1.087c.593.606,1.143,1.255,1.712,1.881.306.337.437.686-.164.756-1.146.133-1.515.938-1.819,1.874a2.719,2.719,0,0,1-.827,1.3c.064-2.167-.564-4.155-.114-6.044a19.08,19.08,0,0,1,2.091-4.115Z" transform="translate(-134.02 -258.793)" fill="#ec7d33"/>
  <path id="Path_671" data-name="Path 671" d="M215.318,310.166l-2.548-1.467a35,35,0,0,0-3.805-3.258,12.251,12.251,0,0,0-2.215-1.675.241.241,0,0,1,0-.363c2.895,1.708,5.758,3.47,8.7,5.093a7.6,7.6,0,0,1,2.8,2.482c.111.169.286.311.2.593C217.346,311.207,216.432,310.453,215.318,310.166Z" transform="translate(-119.748 -251.022)" fill="#d4813f"/>
  <path id="Path_672" data-name="Path 672" d="M170.563,291.911c1.448.022,2.674.5,3.953.632a8.537,8.537,0,0,1,1.056.234c.256.059.448.164.442.477-.006.256-.037.564-.3.6-1.459.19-1.92,1.43-2.6,2.429-.3.435-.488.383-.678-.055C171.831,294.845,171.234,293.461,170.563,291.911Z" transform="translate(-150.172 -260.706)" fill="#b23817"/>
  <path id="Path_673" data-name="Path 673" d="M168.317,309.8a4.907,4.907,0,0,1-2.077,2.279.387.387,0,0,1-.243-.054,3.7,3.7,0,0,1-.763-2.637c.365-.861.743-1.717,1.1-2.58.193-.463.392-.5.779-.144A3.441,3.441,0,0,1,168.317,309.8Z" transform="translate(-154.705 -248.473)" fill="#eb763f"/>
  <path id="Path_674" data-name="Path 674" d="M174.314,318.19a23.76,23.76,0,0,1,2.064,2.541c.229.256.063.5-.055.741l-.551.367a1.348,1.348,0,0,1-1.117-.518c-1.675-1.651-3.378-3.271-5.108-4.92Z" transform="translate(-151.028 -240.068)" fill="#ae3c15"/>
  <path id="Path_675" data-name="Path 675" d="M181.227,291.5c-2.143-.087-4.255-.468-6.378-.735-.514-.064-.752-.477-1.045-.816s-.56-.7-.986-1.238a70.419,70.419,0,0,1,9.151,2.6C181.835,291.809,181.509,291.568,181.227,291.5Z" transform="translate(-148.271 -263.399)" fill="#9c3f17"/>
  <path id="Path_676" data-name="Path 676" d="M212.008,301.9a.331.331,0,0,1-.433.17,7.042,7.042,0,0,0-4.074.426c-.324.1-.592.175-.744-.216-.337-.864-.669-1.73-1.056-2.727A18.315,18.315,0,0,1,212.008,301.9Z" transform="translate(-120.562 -254.263)" fill="#e89447"/>
  <path id="Path_677" data-name="Path 677" d="M215.124,307.065a58.189,58.189,0,0,0-5.519-3.308c-.912-.4-1.811-.838-2.714-1.264-.33-.155-.66-.317-.632-.838a23.6,23.6,0,0,1,8.863,5.047A.243.243,0,0,1,215.124,307.065Z" transform="translate(-120.092 -252.495)" fill="#b5440e"/>
  <path id="Path_678" data-name="Path 678" d="M231.294,306.114a8.055,8.055,0,0,1-2-.942l5.082-3.055a10.447,10.447,0,0,1-1.854,2.524c-.232.3-.647.481-.667.938Z" transform="translate(-100.68 -252.105)" fill="#5f200f"/>
  <path id="Path_679" data-name="Path 679" d="M217.819,307.766a7.646,7.646,0,0,1-4.207-2.119c-.453-.481-1.109-.744-1.456-1.343-.039-.175.011-.262.206-.2a26.33,26.33,0,0,1,5.841,3.466C218.221,307.91,218.037,307.871,217.819,307.766Z" transform="translate(-115.131 -250.45)" fill="#e7974d"/>
  <path id="Path_680" data-name="Path 680" d="M170.491,301.355c-1.277-.206-1.859-1.233-2.528-2.154-.794-1.093-1.585-2.191-2.335-3.328a9.282,9.282,0,0,1,2.6,2.23c.756.87,1.544,1.7,2.357,2.512a.794.794,0,0,1,.286.547C170.872,301.477,170.712,301.475,170.491,301.355Z" transform="translate(-154.33 -257.367)" fill="#e8773e"/>
  <path id="Path_681" data-name="Path 681" d="M224.185,297.25c1.056-.317,2.108-.645,3.168-.945.337-.094.407.162.413.431.013.669.608,1.281.193,1.974-.031.052-.339-.035-.5-.092-1.082-.381-2.161-.772-3.241-1.159Z" transform="translate(-104.985 -257.02)" fill="#a84c1b"/>
  <path id="Path_682" data-name="Path 682" d="M163.371,314.527c-.125-.181-.251-.359-.376-.538.125-1.161-.383-2.3-.076-3.639.662,1.137,1.264,2.158,1.848,3.188.134.236-.03.4-.241.5A3.937,3.937,0,0,1,163.371,314.527Z" transform="translate(-156.697 -245.167)" fill="#b43914"/>
  <path id="Path_683" data-name="Path 683" d="M221.708,311.141l-4.636-3.083.079-.2a26.658,26.658,0,0,0,2.779,1c1.176.291,1.329,1.373,1.942,2.1Z" transform="translate(-110.979 -247.268)" fill="#d88441"/>
  <path id="Path_684" data-name="Path 684" d="M211.688,291.981a5.321,5.321,0,0,1-.826-1.612c-.153-.28-.009-.459.254-.556.671-.245,1.345-.481,2.237-.8A22.777,22.777,0,0,1,211.688,291.981Z" transform="translate(-116.264 -263.147)" fill="#9d4e20"/>
  <path id="Path_685" data-name="Path 685" d="M209.337,291.754c-.451-.4.063-1.048-.365-1.456-.488-2.615-.56-5.309-1.472-7.844l0-.54a14.664,14.664,0,0,1,1.253,4.284c.271,1.41.405,2.845.6,4.269C209.352,290.9,209.344,291.325,209.337,291.754Z" transform="translate(-119.045 -269.13)" fill="#616b1b"/>
  <path id="Path_686" data-name="Path 686" d="M219.784,307.763c.2-.009.426.03.556-.192.673-.055.074-.612.38-.89l2.554,1.268A14.691,14.691,0,0,1,219.784,307.763Z" transform="translate(-108.693 -248.259)" fill="#df8840"/>
  <path id="Path_687" data-name="Path 687" d="M205.947,304.261l-.357-.19-3.615-3.238c.23-.332.45-.105.564-.007,1.152.982,2.285,1.985,3.418,2.985C206.113,303.951,206.151,304.115,205.947,304.261Z" transform="translate(-123.702 -253.333)" fill="#cd6c2f"/>
  <path id="Path_688" data-name="Path 688" d="M208.5,298.247c.251.029.536-.076.728.186-.118.013-.28-.018-.348.046-.19.182.042.24.142.313q1.379,1.014,2.764,2.02c.116.085.284.129.24.339-.251.249-.45.02-.623-.1-.934-.656-1.83-1.375-2.8-1.975C208.117,298.77,208.259,298.556,208.5,298.247Z" transform="translate(-118.389 -255.367)" fill="#ce692b"/>
  <path id="Path_689" data-name="Path 689" d="M219.639,306.321a.4.4,0,0,0-.374.19q-2.573-1.119-5.145-2.242A23.989,23.989,0,0,1,219.639,306.321Z" transform="translate(-113.466 -250.293)" fill="#db813b"/>
  <path id="Path_690" data-name="Path 690" d="M203.087,299.552a4.451,4.451,0,0,1,3.322,2.408Z" transform="translate(-122.764 -254.267)" fill="#db7935"/>
  <path id="Path_691" data-name="Path 691" d="M203.717,295.932l4.439,2.219-.14.293-4.437-2.221Z" transform="translate(-122.349 -257.317)" fill="#d36c2e"/>
  <path id="Path_692" data-name="Path 692" d="M204.589,297.221a13.064,13.064,0,0,1,3.6,2.325A13.143,13.143,0,0,1,204.589,297.221Z" transform="translate(-121.498 -256.231)" fill="#d16c2e"/>
  <path id="Path_693" data-name="Path 693" d="M243.425,297.358l-.181.735c-.615.929-1.227,1.857-1.845,2.784a1.8,1.8,0,0,1-.715.68A26.945,26.945,0,0,1,243.425,297.358Z" transform="translate(-91.08 -256.116)" fill="#df8f4e"/>
  <path id="Path_694" data-name="Path 694" d="M169.955,294.353a.322.322,0,0,0,.359-.359,9.284,9.284,0,0,1,2.014,1.821c.048.171-.013.234-.184.186A7.436,7.436,0,0,1,169.955,294.353Z" transform="translate(-150.684 -258.951)" fill="#d96e35"/>
  <path id="Path_695" data-name="Path 695" d="M228.811,305.524l3.446-.934A5.416,5.416,0,0,1,228.811,305.524Z" transform="translate(-101.086 -250.021)" fill="#c97437"/>
  <path id="Path_696" data-name="Path 696" d="M208.693,293.1c-.295-.229-.188-.555-.19-.844-.007-1.668,0-3.335,0-5,.31.3.17.687.173,1.034C208.695,289.89,208.689,291.495,208.693,293.1Z" transform="translate(-118.214 -264.633)" fill="#616b1b"/>
  <path id="Path_697" data-name="Path 697" d="M230.345,294.971a10.3,10.3,0,0,1-3.3.518A12.133,12.133,0,0,1,230.345,294.971Z" transform="translate(-102.573 -258.131)" fill="#b3612c"/>
  <path id="Path_698" data-name="Path 698" d="M188.976,299.156l-2.173-.591c.564-.21,1.076.057,1.6.125.444.059.881.23,1.3-.085.271.276.14.429-.175.422C189.32,299.023,189.119,298.925,188.976,299.156Z" transform="translate(-136.486 -255.166)" fill="#b95221"/>
  <path id="Path_699" data-name="Path 699" d="M177.382,290.317c.256-.031.551.081.743-.193a4.271,4.271,0,0,1,1.623.5C178.98,290.323,178.139,290.706,177.382,290.317Z" transform="translate(-144.425 -262.212)" fill="#a7471b"/>
  <path id="Path_700" data-name="Path 700" d="M197.174,302.311l1.38.919a3.4,3.4,0,0,1-1.754-.728A.4.4,0,0,0,197.174,302.311Z" transform="translate(-128.062 -251.942)" fill="#b9501f"/>
  <path id="Path_701" data-name="Path 701" d="M171.143,295.168l.184-.186c.284.24.689.341.923.807A1.111,1.111,0,0,1,171.143,295.168Z" transform="translate(-149.683 -258.118)" fill="#d1672f"/>
  <path id="Path_702" data-name="Path 702" d="M183.222,305.678a5.522,5.522,0,0,1,.6,1.962c-.5-.557-.352-1.214-.789-1.583A.41.41,0,0,0,183.222,305.678Z" transform="translate(-139.667 -249.104)" fill="#b64e1f"/>
  <path id="Path_703" data-name="Path 703" d="M215.224,306.173a.4.4,0,0,0,.385-.2c.405.066.667.357,1.126.665A2.584,2.584,0,0,1,215.224,306.173Z" transform="translate(-112.536 -248.857)" fill="#e08b46"/>
  <path id="Path_704" data-name="Path 704" d="M211.07,304.757l0-.363a3.165,3.165,0,0,1,.956.789A.807.807,0,0,1,211.07,304.757Z" transform="translate(-116.038 -250.187)" fill="#bd511c"/>
  <path id="Path_705" data-name="Path 705" d="M207.169,303.608l0,.363-1.006-.8C206.727,303.119,206.989,303.278,207.169,303.608Z" transform="translate(-120.17 -251.226)" fill="#ca6a2e"/>
  <path id="Path_706" data-name="Path 706" d="M186.717,305.729l-.186.186-1.1-.54a.117.117,0,0,1-.042-.129c.017-.042.031-.063.048-.063A4.361,4.361,0,0,1,186.717,305.729Z" transform="translate(-137.685 -249.521)" fill="#a84118"/>
  <path id="Path_707" data-name="Path 707" d="M168.267,298.936a.407.407,0,0,0,.38-.193,1.515,1.515,0,0,1,.649.7A1.9,1.9,0,0,1,168.267,298.936Z" transform="translate(-152.107 -254.949)" fill="#e17139"/>
  <path id="Path_708" data-name="Path 708" d="M212.74,304.33l-.206.2c-.284-.181-.647-.263-.837-.728A2.251,2.251,0,0,1,212.74,304.33Z" transform="translate(-115.508 -250.681)" fill="#de8843"/>
  <path id="Path_709" data-name="Path 709" d="M185.786,305.331l-.006.192a1.069,1.069,0,0,1-.816-.475A.744.744,0,0,1,185.786,305.331Z" transform="translate(-138.036 -249.668)" fill="#b34b1d"/>
  <path id="Path_710" data-name="Path 710" d="M207.463,298.9c-.387.17-.5-.053-.77-.2C207.078,298.481,207.227,298.671,207.463,298.9Z" transform="translate(-119.725 -255.066)" fill="#d16c2e"/>
  <path id="Path_711" data-name="Path 711" d="M169.559,293.892a.863.863,0,0,1,.73.547A.863.863,0,0,1,169.559,293.892Z" transform="translate(-151.018 -259.037)" fill="#d96e35"/>
  <path id="Path_712" data-name="Path 712" d="M235.493,287c1.393.468,1.428.534,1.03,1.933-.608,2.145-.608,2.143-2.79,1.587a13.839,13.839,0,0,0-1.5-.367c-.625-.09-.964-.288-.973-1.025a1.028,1.028,0,0,1,.932-1.189c.8-.173,1.585-.381,2.377-.575C234.782,287,235.044,286.762,235.493,287Z" transform="translate(-99.019 -264.925)" fill="#c3713a"/>
  <path id="Path_713" data-name="Path 713" d="M243.084,288.6q.486,2.134.971,4.27a.383.383,0,0,1,.013.09c-.053.8-.7.49-1.034.442-.485-.07-1.493.44-1.388-.365a30.334,30.334,0,0,1,1.233-4.461Z" transform="translate(-90.276 -263.513)" fill="#eaae78"/>
  <path id="Path_714" data-name="Path 714" d="M226.109,286.577l-1.8,2.7A2.69,2.69,0,0,1,226.109,286.577Z" transform="translate(-104.878 -265.201)" fill="#cd7335"/>
  <path id="Path_715" data-name="Path 715" d="M208.4,281.691l.72-.19c.293.849,1.214,1.019,1.751,1.6.112.122.321.153.4.581A10.5,10.5,0,0,1,208.4,281.691Z" transform="translate(-118.291 -269.478)" fill="#e69a58"/>
  <path id="Path_716" data-name="Path 716" d="M244.845,291.808a6.906,6.906,0,0,1-1.078,3.84A20.567,20.567,0,0,1,244.845,291.808Z" transform="translate(-88.483 -260.793)" fill="#ead9ab"/>
  <path id="Path_717" data-name="Path 717" d="M234.393,287.36c-.385-.074-.628.2-.919.365-.046-.6-.621-.759-.9-1.249Z" transform="translate(-97.919 -265.286)" fill="#ca773d"/>
  <path id="Path_718" data-name="Path 718" d="M244.552,291.88c-.081.42.175.894-.2,1.27.105-.973-.193-1.973.186-2.93Z" transform="translate(-87.997 -262.131)" fill="#ead9ab"/>
  <path id="Path_719" data-name="Path 719" d="M186.5,321.758c1.633-.927,3.245-1.892,4.9-2.77,1.964-1.036,3.617-2.578,5.646-3.486a28.977,28.977,0,0,1,8-2.3,44.989,44.989,0,0,0,6.984-1.54c2.2-.665,4.443-1.187,6.652-1.821.6-.171.652.033.693.534.151,1.911.14,1.813-1.631,2.309a26.163,26.163,0,0,1-8.277.864c-.225-.009-.451,0-.728,0a1.43,1.43,0,0,0,.14.217c.389.346,1.264.3,1.2.894-.042.356-.9.291-1.371.459-.341.12-.724.129-1.054.267a1.173,1.173,0,0,1-1.583-.44,1.18,1.18,0,0,0-1.5-.405c-1.275.38-2.574.676-3.86,1.021a7.708,7.708,0,0,0-2.738,1.815h.945c.429-.249.6.04.744.365.2.024.426-.042.658.149-.479.684-1.439.544-1.948,1.133a14.32,14.32,0,0,1-3.733,1.7c-1.981.289-3.907.85-5.873,1.2a8.2,8.2,0,0,1-1.7.262C186.81,322.117,186.5,322.145,186.5,321.758Z" transform="translate(-136.744 -245.648)" fill="#ec893e"/>
  <path id="Path_720" data-name="Path 720" d="M194.763,317.053c2.254-.321,4.457-.886,6.682-1.36a4.647,4.647,0,0,1,.979-.105c.041.383-.3.409-.518.529a8.937,8.937,0,0,1-2.558.942,14.44,14.44,0,0,0-4.706,1.8,5.689,5.689,0,0,0,.628.14c.216.064.564.031.545.35-.017.28-.346.317-.573.359-1.192.232-2.383.479-3.582.68a1.189,1.189,0,0,0-1.179,1.166c1.15-.2,2.189-.6,3.258-.864.4-.1.807-.328,1.218-.013a.273.273,0,0,1-.212.343c-2.22.7-4.321,1.728-6.554,2.394a33.907,33.907,0,0,1-5.37,1.259,2.927,2.927,0,0,0-1.576.837c-.306.271-.591.634-1.093.479l-.184-.181c-.5-.317-1.041-.042-1.563-.1-.835-.1-1.052-.284-1.054-1.128a11.293,11.293,0,0,1,.23-1.878c.1-.628.691-.674,1.152-.864.433-.129.866-.273,1.3-.389.582-.153,1.17-.407,1.5.448.149.381.538.118.805.037a23.472,23.472,0,0,0,4.457-1.8,23.745,23.745,0,0,1,3.473-1.572,3.188,3.188,0,0,1,1.03-.262c-.258-.02-.544.107-.748-.157a6.011,6.011,0,0,1,1.646-.363c.359.109.639-.1.934-.238A5.026,5.026,0,0,1,194.763,317.053Z" transform="translate(-144.451 -240.753)" fill="#cb5d22"/>
  <path id="Path_721" data-name="Path 721" d="M208.986,316.394a12.7,12.7,0,0,0-5.622,1.854c-1.872,1.065-3.918,1.1-5.922,1.413a4.895,4.895,0,0,0-2.29.721,4.751,4.751,0,0,1-3.319.947c-.5.017-1.049.378-1.472-.193,1.817-.647,3.632-1.294,5.388-2.112,2.167-1.006,4.389-1.894,6.573-2.867a4.011,4.011,0,0,1,1.286-.418c2.431-.173,4.465-1.437,6.63-2.34a2.83,2.83,0,0,1,.673-.264,1.461,1.461,0,0,1,1.268.324c.335.383-.276.656-.369,1-.394,1.478-1.677,1.6-2.825,1.937Z" transform="translate(-133.489 -242.838)" fill="#eb8f41"/>
  <path id="Path_722" data-name="Path 722" d="M202.692,316.424a12.1,12.1,0,0,1,2.167.155c1,.212,1.48-.678,1.909-1.294a5.151,5.151,0,0,1,3.415-2.16c.529-.1.838-.085.724.553a6.59,6.59,0,0,1-.5,2.458c-.315.516-.2.805.345,1.047a5.312,5.312,0,0,1,1.275.864,25.194,25.194,0,0,0-8.257,2.055,1.418,1.418,0,0,1-.09-.3c.033-.45.584-.921.313-1.246-.289-.343-.918-.085-1.4-.125a3.194,3.194,0,0,0-1.771.3,2.475,2.475,0,0,1-3-.468l4.867-1.843Z" transform="translate(-127.196 -242.869)" fill="#b1400f"/>
  <path id="Path_723" data-name="Path 723" d="M204.474,317.611c-1.192.626-2.571.529-3.461,1.5-1.572,1.716-3.711,2.475-5.666,3.56a6.624,6.624,0,0,1-2.641.525c-.894.1-1.806.087-2.709.208-.468.063-.66-.12-.295-.553,0,0,.033-.052.048-.077,1.47-2.445,1.47-2.443,4.26-2.825A51.024,51.024,0,0,0,200.2,318.2a1.3,1.3,0,0,0,.4-.221c.461-.337.748-1.107,1.3-1.065A13.375,13.375,0,0,1,204.474,317.611Z" transform="translate(-134.203 -239.634)" fill="#a63610"/>
  <path id="Path_724" data-name="Path 724" d="M179.511,319.036l.181-.184c.5.088.357.483.374.794.094,1.819-.346,3.6-.392,5.412-.022.813-.919,1.093-1.452,1.513a69.756,69.756,0,0,1-5.963,3.956c-.061-.713.466-1.2.687-1.808a13.343,13.343,0,0,1,3.017-4.671,15.022,15.022,0,0,0,2.488-3.437A12.6,12.6,0,0,1,179.511,319.036Z" transform="translate(-148.747 -238.003)" fill="#ac3d10"/>
  <path id="Path_725" data-name="Path 725" d="M181.642,319.428c1.192-.654,2.372-1.334,3.579-1.959,3.254-1.684,6.35-3.645,9.562-5.4.293-.16.586-.322.888-.463.175-.081.378-.276.56-.02.162.228.3.486.07.748-.59.68-1.281,1.3-1.194,2.335.007.088-.194.217-.321.289a19.289,19.289,0,0,1-5.454,2.591c-2.058.455-4.054,1.2-6.081,1.808-.345.105-.7.177-1.05.265C181.966,319.7,181.7,319.859,181.642,319.428Z" transform="translate(-140.836 -244.234)" fill="#ef8939"/>
  <path id="Path_726" data-name="Path 726" d="M179.706,323.459a13.018,13.018,0,0,1,4.126-1.465,2.837,2.837,0,0,1,.545,0,8.886,8.886,0,0,0,5.464-1.268,3.538,3.538,0,0,1,3.989.529c.391.356.011,1.421-.63,1.585a8.163,8.163,0,0,1-2.49.437,19.317,19.317,0,0,0-7.785.919C181.679,324.648,180.795,323.776,179.706,323.459Z" transform="translate(-142.467 -236.752)" fill="#a63711"/>
  <path id="Path_727" data-name="Path 727" d="M189.093,321.447c-1.537.186-2.954.844-4.461,1.15l-.345.072c.173-1.411.358-1.563,1.686-1.782,1.3-.216,2.578-.5,4.045-.8l-1.968-.35a15.828,15.828,0,0,1,5.172-2.114,10.788,10.788,0,0,0,3.356-1.288l3.65-1.461,1.483-.177c-1.924,1.118-3.656,2.154-5.418,3.14s-3.779,1.214-5.572,2.125l1.625-.35.055.131-2.77,1.513C189.5,321.451,189.338,321.567,189.093,321.447Z" transform="translate(-138.606 -241.503)" fill="#b23e0f"/>
  <path id="Path_728" data-name="Path 728" d="M188.12,322.223c1.205,0,2.289-.07,3.359.013,3.249.254,6.018-1.054,8.721-2.585.956-.542,1.784-.129,1.828.991.017.439-.361.418-.638.483a49.7,49.7,0,0,0-5.79,1.469c-.853.313-1.719.59-2.563.923C191.142,324.262,189.592,323.7,188.12,322.223Z" transform="translate(-135.376 -237.53)" fill="#e07f36"/>
  <path id="Path_729" data-name="Path 729" d="M180.541,322.53a1.5,1.5,0,0,0,.4-.206c2.126-2.1,5.132-1.55,7.629-2.532.232-.079.494-.24.555.188-1.424.65-2.862,1.277-4.271,1.957-2.617,1.262-5.11,2.753-7.6,4.247-.217.127-.372.125-.369-.186Z" transform="translate(-144.841 -237.292)" fill="#e67937"/>
  <path id="Path_730" data-name="Path 730" d="M189.936,317.414c-2.794,1.161-5.368,2.836-8.333,3.6-.394.1-.859.387-.809-.413.028-.457-.241-.457-.6-.348-.579.175-1.17.3-1.756.44-.227.063-.5.271-.555-.186a12.192,12.192,0,0,1,2.235-1.656.734.734,0,0,1,.848,0,3.294,3.294,0,0,0,3.674-.131,7.412,7.412,0,0,1,4.376-1.5C189.346,317.16,189.716,316.926,189.936,317.414Z" transform="translate(-144.007 -239.469)" fill="#eb893d"/>
  <path id="Path_731" data-name="Path 731" d="M179.94,326.437a2.644,2.644,0,0,1-.276-2.051c.193-.2.4-.087.577.02a1.52,1.52,0,0,0,1.627-.111c1.384-.719,2.786-1.4,4.159-2.088-.652,2.189-2.462,2.934-4.406,3.525a2.049,2.049,0,0,0-1.135.521A.528.528,0,0,1,179.94,326.437Z" transform="translate(-142.597 -235.175)" fill="#a73813"/>
  <path id="Path_732" data-name="Path 732" d="M203.508,318.383l-6.473,2.025c-.175.053-.448.125-.4-.135.076-.383,0-.879.479-1.095.579-.262,1.157-.527,1.743-.772a6.033,6.033,0,0,0,1.26-.492C201.317,317.038,202.255,317.79,203.508,318.383Z" transform="translate(-128.204 -239.13)" fill="#e37d2f"/>
  <path id="Path_733" data-name="Path 733" d="M178.716,318.955c.133.217.35.179.553.186-.287.317-1,.1-1.036.581a9.9,9.9,0,0,0-.216,2.594c.061.324.343.287.579.289.573.007,1.148-.02,1.719.011.516.028.042.234.044.357-.936.409-1.885.791-2.8,1.235-.551.267-.717.111-.66-.44a21.048,21.048,0,0,1,.768-4.059C177.8,319.261,178.274,319.08,178.716,318.955Z" transform="translate(-144.844 -237.916)" fill="#ea883d"/>
  <path id="Path_734" data-name="Path 734" d="M195.556,315.576c1.99-1.36,4.393-1.419,6.588-2.138-1.953,1.5-4.328,1.852-6.591,2.5A.24.24,0,0,1,195.556,315.576Z" transform="translate(-129.182 -242.564)" fill="#ea7f33"/>
  <path id="Path_735" data-name="Path 735" d="M189.347,325.983l1.85.6c-2.206.039-4.378.68-6.578.107a6.568,6.568,0,0,1,2.889-.52c.376-.007.792.147,1.124-.173Z" transform="translate(-138.327 -231.993)" fill="#7d210f"/>
  <path id="Path_736" data-name="Path 736" d="M192.551,325.982c.779.138,1.36-.35,2-.634a15.837,15.837,0,0,1,2.184-1.012c.221-.118.383-.12.381.2a2.14,2.14,0,0,1-2.252,1.633c-1.139.059-2.278.127-3.416.19C191.728,325.962,192.277,326.374,192.551,325.982Z" transform="translate(-132.568 -233.443)" fill="#c95a20"/>
  <path id="Path_737" data-name="Path 737" d="M195.237,313.7l6.273-.822C200.395,313.795,198.438,314.058,195.237,313.7Z" transform="translate(-129.379 -243.038)" fill="#bf490c"/>
  <path id="Path_738" data-name="Path 738" d="M183.784,321.191c-.133-.217-.352-.179-.555-.188,2.01-.737,4.023-1.469,6.029-2.219.247-.092.547-.092.726-.337l.54-.19c.245.037.387.157.352.424a.324.324,0,0,1-.372.308c-2.1-.081-3.728,1.26-5.611,1.83C184.519,320.932,184.152,321.066,183.784,321.191Z" transform="translate(-139.498 -238.503)" fill="#de7132"/>
  <path id="Path_739" data-name="Path 739" d="M177.814,327.035a8.182,8.182,0,0,1-1.815.545.307.307,0,0,1-.437-.206,1.985,1.985,0,0,1,.046-1.247c.127-.24.394-.018.555.079C176.676,326.517,177.333,326.537,177.814,327.035Z" transform="translate(-146.024 -231.963)" fill="#b3440e"/>
  <path id="Path_740" data-name="Path 740" d="M181.094,324.867c.135-.2.348-.168.545-.182,1.034.013,1.915-.663,2.961-.61a26.169,26.169,0,0,1-6.42,1.863C179.091,325.4,180.193,325.416,181.094,324.867Z" transform="translate(-143.752 -233.604)" fill="#da6d27"/>
  <path id="Path_741" data-name="Path 741" d="M202.259,308.217a16.373,16.373,0,0,0-2.56-1.082c-.251-.123-.6-.2-.477-.527.177-.457.507-.12.744-.015,1.021.452,1.962,1.071,3.029,1.428.1.2-.035.275-.177.348C202.616,308.378,202.4,308.426,202.259,308.217Z" transform="translate(-126.043 -248.517)" fill="#7a1f0f"/>
  <path id="Path_742" data-name="Path 742" d="M209.794,316.6c-.809-.4-1.616-.813-2.427-1.212-.264-.129-.468-.287-.457-.61.006-.118-.007-.269.059-.344.125-.142.289-.03.4.052.861.645,1.712,1.3,2.567,1.955Z" transform="translate(-119.542 -241.783)" fill="#b7420e"/>
  <path id="Path_743" data-name="Path 743" d="M194.227,311.533l5.04-.881a4.68,4.68,0,0,1-2.626.886c-.868.1-1.73.238-2.6.359C193.931,311.689,194.128,311.636,194.227,311.533Z" transform="translate(-130.413 -244.913)" fill="#dd6d27"/>
  <path id="Path_744" data-name="Path 744" d="M178.49,323.116a.38.38,0,0,0,.369.186,6.978,6.978,0,0,1-3.87,1.71Z" transform="translate(-146.442 -234.41)" fill="#df7333"/>
  <path id="Path_745" data-name="Path 745" d="M191.7,317.467c.45.38.984.1,1.472.193-.435.389-.991.179-1.476.243-1.019.133-1.933.58-2.921.8A6.612,6.612,0,0,1,191.7,317.467Z" transform="translate(-134.826 -239.17)" fill="#e5853a"/>
  <path id="Path_746" data-name="Path 746" d="M182.992,315.783c.133.219.354.182.558.194q-1.711.655-3.422,1.312l-.088-.2Z" transform="translate(-142.185 -240.589)" fill="#e57b32"/>
  <path id="Path_747" data-name="Path 747" d="M187.971,316.47q-1.042.426-2.08.848a.356.356,0,0,1-.479-.122q1-.456,2-.916C187.545,316.5,187.766,316.459,187.971,316.47Z" transform="translate(-137.659 -240.17)" fill="#e27b34"/>
  <path id="Path_748" data-name="Path 748" d="M191.152,311.855l2.69-.451A4.6,4.6,0,0,1,191.152,311.855Z" transform="translate(-132.821 -244.279)" fill="#dd712e"/>
  <path id="Path_749" data-name="Path 749" d="M184.844,317.531c-.256-.313-.612-.142-.923-.192.28-.383.82.02,1.1-.365h1.1A2.965,2.965,0,0,1,184.844,317.531Z" transform="translate(-138.915 -239.585)" fill="#e47f38"/>
  <path id="Path_750" data-name="Path 750" d="M195.127,311.13l-.182.365c-.663-.1-1.286.339-2,.131A18.113,18.113,0,0,1,195.127,311.13Z" transform="translate(-131.313 -244.51)" fill="#d96b26"/>
  <path id="Path_751" data-name="Path 751" d="M193.978,314.452c-.217-.186-.4-.435-.744-.365a7.511,7.511,0,0,1,2.09-.407C194.9,314.179,194.155,313.805,193.978,314.452Z" transform="translate(-131.067 -242.361)" fill="#df7933"/>
  <path id="Path_752" data-name="Path 752" d="M201.162,307.617l.177-.348c.273.14.6.212.733.54A1.252,1.252,0,0,1,201.162,307.617Z" transform="translate(-124.386 -247.764)" fill="#882810"/>
  <path id="Path_753" data-name="Path 753" d="M209.58,314.7l.37.181c.306-.005.3.151.184.361l0,.37A1.822,1.822,0,0,1,209.58,314.7Z" transform="translate(-117.292 -241.503)" fill="#ab4117"/>
  <path id="Path_754" data-name="Path 754" d="M195.7,314.6l0,.363c-.092.144-.31.245-.361.127C195.209,314.8,195.514,314.724,195.7,314.6Z" transform="translate(-129.323 -241.587)" fill="#d96b28"/>
  <path id="Path_755" data-name="Path 755" d="M200.664,308.508c-.2-.028-.459-.026-.426-.313.024-.2.245-.219.424-.236A.48.48,0,0,0,200.664,308.508Z" transform="translate(-125.167 -247.182)" fill="#e37b31"/>
  <path id="Path_756" data-name="Path 756" d="M192.84,323.018c.2.029.459.026.426.313-.024.2-.245.221-.424.236A.473.473,0,0,0,192.84,323.018Z" transform="translate(-131.399 -234.492)" fill="#ac4217"/>
  <path id="Path_757" data-name="Path 757" d="M215.667,323.286a.4.4,0,0,0-.184-.361,17.35,17.35,0,0,0-4.721-7.64l.142-.175c.732.2,1.469.381,2.193.6.5.151.914.16,1.076-.44.12-.444.361-.381.687-.238,1.275.558,2.543,1.146,3.846,1.634.787.293.818.84.8,1.515a1.361,1.361,0,0,0,2.036,1.33c.339-.133.65-.334.986-.474.451-.19.466-.457.265-.864a4.819,4.819,0,0,0-1.095-1.548c-.612-.542-1.2-1.111-1.8-1.669l.138-.214c1.417.514,2.823,1.06,4.255,1.529a1.826,1.826,0,0,1,1.5,1.669,1.592,1.592,0,0,0,1.327,1.5c.757.184,1.445.615,2.23.743a.709.709,0,0,0,.665.035c-.041-.074-.066-.155-.105-.228a3.418,3.418,0,0,0-.75-1.019,21.436,21.436,0,0,1-1.856-2,6.241,6.241,0,0,0-1.891-1.533c-3.862-2.283-8.136-3.429-12.407-4.57a44.293,44.293,0,0,1-8.856-3.761c-.733-.38-.652-1.257-1.137-1.968a7.124,7.124,0,0,1,2.2.975c1.819,1.048,3.739,1.892,5.591,2.871a1.867,1.867,0,0,0,.958.24,19.326,19.326,0,0,1,9.311,2.325c2.921,1.426,5.766,2.989,8.581,4.6a23.1,23.1,0,0,1,3.015,2.172c.63.511.295,1.369.507,2.047a3.311,3.311,0,0,1,.024.908l0,0c-.345.23-.667.494-1.032.695-.619.448-1.463.58-1.867,1.33l-1.117,1.437a18.212,18.212,0,0,0-1.546,2.677c-.759,1.542-2.191,1.885-3.6,2.329-.109.035-.241,0-.317.123a10.876,10.876,0,0,1-2.372.9c-1.747.372-3.094-.778-4.627-1.225a.487.487,0,0,1-.324-.5c-.116-1.537-.252-3.07-.359-4.607C216.006,324.027,216.039,323.6,215.667,323.286Z" transform="translate(-122.824 -249.55)" fill="#6b1d0d"/>
  <path id="Path_758" data-name="Path 758" d="M212.6,320.092c-.938,1.592-1.778,2.869-3.4,3.4a12.438,12.438,0,0,0-3.525,1.861c-.521.387-.577.186-.722-.315-.569-1.966-.645-2.066,1.06-2.932C208.009,321.1,210.259,320.84,212.6,320.092Z" transform="translate(-121.495 -236.958)" fill="#811a0f"/>
  <path id="Path_759" data-name="Path 759" d="M201.26,325.315c-1.66,1.786-3.925,1.719-6.278,2.174C197.042,326.155,199.215,325.918,201.26,325.315Z" transform="translate(-129.594 -232.556)" fill="#b3581e"/>
  <path id="Path_760" data-name="Path 760" d="M197.692,325.138l4.413-2.69.142.219c-1.065,1.168-2.128,2.338-3.816,2.659C198.151,325.393,197.826,325.632,197.692,325.138Z" transform="translate(-127.31 -234.972)" fill="#b45017"/>
  <path id="Path_761" data-name="Path 761" d="M210.217,321.7c-.287.057-.321-.138-.343-.346.092-.221.2-.437.275-.663.439-1.334.437-1.334,1.732-.743.171.039.291.109.2.315-.256.444-.851.459-1.12.888A1.154,1.154,0,0,1,210.217,321.7Z" transform="translate(-117.044 -237.396)" fill="#fdfbfa"/>
  <path id="Path_762" data-name="Path 762" d="M204.895,322.674c-1.058.564-2.119,1.122-3.173,1.693-.313.169-.652.184-.779-.131-.118-.3.265-.332.47-.411,1.135-.446,2.274-.879,3.413-1.316Z" transform="translate(-124.59 -234.92)" fill="#8a2610"/>
  <path id="Path_763" data-name="Path 763" d="M211.158,320.536l-.2-.315a7.5,7.5,0,0,1,3.11-.971A19.556,19.556,0,0,1,211.158,320.536Z" transform="translate(-116.127 -237.667)" fill="#ac6041"/>
  <path id="Path_764" data-name="Path 764" d="M198.694,323.908c.193.273.483.16.739.188a12.861,12.861,0,0,1-2.93.5A6.149,6.149,0,0,1,198.694,323.908Z" transform="translate(-128.312 -233.742)" fill="#b14c16"/>
  <path id="Path_765" data-name="Path 765" d="M194.7,324.7a.413.413,0,0,0-.381-.2,1.5,1.5,0,0,1,.851-.439C195.17,324.441,194.915,324.553,194.7,324.7Z" transform="translate(-130.15 -233.61)" fill="#bd4f1c"/>
  <path id="Path_766" data-name="Path 766" d="M210.432,332.757c1.213.23,2.06-.545,3-1.082.466-.267.89-.663,1.5-.5.284.077.348-.146.47-.319a17.9,17.9,0,0,1,1.13-1.535c.671-.765,1.056-1.54.416-2.512-.236-.358-.076-.639.223-.861,1.647-1.224,3-2.829,4.859-3.776,1.609-.82,1.88-2.519,2.618-3.9.428-.8.75-1.655,1.12-2.486.625.1.73.682.978,1.1a1.752,1.752,0,0,0,1.373.892c1.327.208,2.67.068,4,.293a1.488,1.488,0,0,1,1.378.988,2.449,2.449,0,0,0,.247,1.266c.317.685.569,1.4.868,2.088a2.465,2.465,0,0,0,2.219,1.373,10,10,0,0,1,.47,2.635c.138.813.426,1.246,1.3,1.294.6.035,1.207.1,1.81.184a22.844,22.844,0,0,1,9.247,3.392c1.454.907,1.469.883,2.714-.363.451-.451.9-.908,1.356-1.351.238-.227.451-.505.829-.507.228.162.179.368.055.553a40.34,40.34,0,0,1-2.95,4.406l-.509.039a24.049,24.049,0,0,0-3.6-.383,10.744,10.744,0,0,1-4.64-1.426c-2.193-1.174-4.432-.68-6.7-.684-1.646,0-1.708,1.272-2.305,2.125a17.1,17.1,0,0,0-1.19,2.25c-1.157,2.336-3.169,3.954-4.916,5.784-.846.885-2.185.759-3.3,1.093l-.057-.124a9.847,9.847,0,0,1,2.427-3.7,7.811,7.811,0,0,0,1.763-3.73c.168-.682.3-1.338,1.281-1.063.346.1.536-.21.687-.488.245-.453.435-.938.719-1.371.1-.146.2-.341.415-.287s.238.262.254.439c.074.75.028,1.5.029,2.307.276-1.319.534-2.589.857-3.842a1.155,1.155,0,0,0-.63-1.483,1.983,1.983,0,0,0-2.7.2c-.175.164-.4.278-.581.439a1.651,1.651,0,0,1-2.082.2,21.358,21.358,0,0,0-5.32-1.839,3.121,3.121,0,0,1-2.578-1.8c-.4.815-.68,1.6-1.091,2.309-1.4,2.416-1.6,5.121-1.909,7.8a2.031,2.031,0,0,0,.483,1.605c.737.888,1.448,1.8,2.167,2.7a1.393,1.393,0,0,1,.433.877l-.059.123a10.907,10.907,0,0,1-3.459-2.093,5.051,5.051,0,0,0-2.93-1.375.285.285,0,0,1,0-.391c.1-.059.2-.166.308-.17,1.867-.039,2.117-1.426,2.381-2.818.087-.462.052-.711-.538-.555-.73.2-1.505.035-2.248.251a.99.99,0,0,1-1.008-.265,6.179,6.179,0,0,0-2.915-1.714C209.144,332.367,209.808,332.744,210.432,332.757Z" transform="translate(-118.13 -240.587)" fill="#f7ebe0"/>
  <path id="Path_767" data-name="Path 767" d="M231.957,334.2c.9-1.452,1.787-2.906,2.69-4.354.111-.177.271-.324.265-.555a45.125,45.125,0,0,0,.724-4.736,6.687,6.687,0,0,0-.181-3.324c-.439-1.611-.685-3.271-1.248-4.85a.912.912,0,0,1-.026-.792,7.8,7.8,0,0,0,3.923,1.119c.155.007.319.081.324.252s-.164.219-.308.278c-.89.365-1.778.741-2.915,1.218.813.087,1.4.2,1.944.2a1.488,1.488,0,0,1,1.655,1.034c.153.409.7.816.538,1.183-.2.442-.726-.09-1.133,0a4.71,4.71,0,0,1-1.612-.164c-.446-.053-.632.105-.433.568a8.907,8.907,0,0,0,.667,1.583c.846,1.231.444,2.351-.028,3.586a39.215,39.215,0,0,1-4.1,7.139A1.177,1.177,0,0,1,231.957,334.2Z" transform="translate(-98.435 -240.757)" fill="#df8f4e"/>
  <path id="Path_768" data-name="Path 768" d="M244.591,322.491c.258.888-.055,1.29-.888,1.583-2.278.8-4.483,1.808-6.82,2.449-.4.111-.7.3-1.15-.2-.5-.553-1.476-.376-2.364-.728a33.726,33.726,0,0,1,3.053-2.165c.888-.5,1.9.053,2.847.1a6.38,6.38,0,0,0,2.038-.134C242.383,323.108,243.456,322.8,244.591,322.491Z" transform="translate(-97.245 -234.936)" fill="#994926"/>
  <path id="Path_769" data-name="Path 769" d="M234.94,316.337a31.4,31.4,0,0,1,1.815,8.1c.017.291.092.614-.166.86a.6.6,0,0,1-.227-.566,6.677,6.677,0,0,0-.91-3.186,15.411,15.411,0,0,0-3.91-5.817c-.284-.252-.584-.553-.451-1.015.872-.1,1.706.236,2.572.206s.964.711,1.268,1.248Z" transform="translate(-99.192 -241.51)" fill="#f4b078"/>
  <path id="Path_770" data-name="Path 770" d="M187.263,314.982q1.075-1.288,2.15-2.578c.308-.37.337-.623-.251-.726a12.151,12.151,0,0,0-2.482-.5c.013.545.435.833.6,1.247.157.394.109.623-.339.551-2.512-.407-5.158-.144-7.478-1.517a13.732,13.732,0,0,1-2.119-1.072,19.615,19.615,0,0,1,7.07-.969c2.348-.015,4.7.647,7.078.943a22.339,22.339,0,0,0-3.52-2.09c.822-.593,1.406-1.31,2.585-.984a35.586,35.586,0,0,0,3.748.6,3.818,3.818,0,0,1,1.85.931,1.719,1.719,0,0,0,2.012.265c2.976-1.375,6.191-1.491,9.377-1.751-1.437.45-2.95.474-4.411.809a43.757,43.757,0,0,0-15.035,6.527c-.2.133-.363.332-.634.324A.126.126,0,0,1,187.263,314.982Z" transform="translate(-144.455 -247.82)" fill="#c64c1a"/>
  <path id="Path_771" data-name="Path 771" d="M186.545,311.424l.206.011c-1.681,1.286-3.617,2.16-5.375,3.321-.851.562-1.658,1.189-2.488,1.784a20.763,20.763,0,0,0-.643-3.453c-.07-.413-.146-.719.424-.744A73.868,73.868,0,0,0,186.545,311.424Z" transform="translate(-143.738 -244.262)" fill="#c64c1a"/>
  <path id="Path_772" data-name="Path 772" d="M179.195,318.952a16.825,16.825,0,0,1-2.676,4.38,23.693,23.693,0,0,0-3.89,5.3,13.156,13.156,0,0,1,2.045-4.286C176.11,322.488,177.306,320.432,179.195,318.952Z" transform="translate(-148.431 -237.919)" fill="#cb5b22"/>
  <path id="Path_773" data-name="Path 773" d="M197.9,309.4c-1.9,1.24-4.052.8-6.217,1.224A22.869,22.869,0,0,1,197.9,309.4Z" transform="translate(-132.371 -245.975)" fill="#faa650"/>
  <path id="Path_774" data-name="Path 774" d="M163.271,299.241a8.387,8.387,0,0,1-.542-3.464c.65.114.794.776,1.205,1.152.481.442.767,1.1,1.26,1.528,1.463,1.26,1.686,3.079,2.27,4.739.49,1.4-.308,2.558-.65,4.048C165.421,304.491,165,301.572,163.271,299.241Z" transform="translate(-156.779 -257.448)" fill="#d5562a"/>
  <path id="Path_775" data-name="Path 775" d="M242.172,316.787c.547,1.115,1.62,1.782,2.359,2.744a8.995,8.995,0,0,1,1.353,2.224c.295.761.7,1.48,1.074,2.209a6.042,6.042,0,0,1,.713,3.407c-.131,1.312-.251,2.624-.4,3.932a1.065,1.065,0,0,1-.52.813,27.847,27.847,0,0,0-2.8,2.722.937.937,0,0,1-1.388.214,27.735,27.735,0,0,0-6.241-3.075,31.3,31.3,0,0,0-4.677-.951,15.821,15.821,0,0,0-1.795-.188c-.37-.024-.42-.234-.464-.534-.173-1.159-.372-2.313-.56-3.47-.673-.422-.951-1.168-1.437-1.745-.286-.337-.51-.73-.792-1.074a5.109,5.109,0,0,0-.509-.684,1.664,1.664,0,0,1-.147-.2c-.134-.286-.462-.485-.383-.864-.426-1.3-1.625-.936-2.513-1.071-1-.151-2.032-.085-3.053-.19a1.324,1.324,0,0,1-1.146-.689c-.306-.516-.627-1.023-.94-1.533a.987.987,0,0,1,.332-.739,12.749,12.749,0,0,1,3.311-2.718,24.211,24.211,0,0,1,9.589-2.582c1.434-.094,2.858-.33,4.286-.5a.945.945,0,0,1,.848.2,46.583,46.583,0,0,0,4.756,3.457C241.418,316.185,241.792,316.49,242.172,316.787Z" transform="translate(-110.273 -243.587)" fill="#fff"/>
  <path id="Path_776" data-name="Path 776" d="M235.644,313.808c-.011,1.13-.293,1.3-1.279.813l-.733-.367c-1.634-.816-1.627-.807-.24-2.047.308-.273.516-.35.833-.026.293.3.652.536.971.813C235.452,313.215,235.7,313.451,235.644,313.808Z" transform="translate(-98.081 -243.803)" fill="#d7692f"/>
  <path id="Path_777" data-name="Path 777" d="M232.047,312.143h-3.081a3.362,3.362,0,0,1,.693-1.3c.179-.315.356-.345.634-.109C230.792,311.159,231.312,311.557,232.047,312.143Z" transform="translate(-100.956 -244.974)" fill="#de7435"/>
  <path id="Path_778" data-name="Path 778" d="M221.4,313.91a36.814,36.814,0,0,1-3.311,2.718l.37-1.089c-.033-.872.872-.73,1.251-1.159.2-.065.372-.252.606-.1Z" transform="translate(-110.122 -242.167)" fill="#f3dbbe"/>
  <path id="Path_779" data-name="Path 779" d="M219.722,314.278l-.555.173a.259.259,0,0,1-.372-.007,1.985,1.985,0,0,1,1.106-.534Z" transform="translate(-109.527 -242.168)" fill="#9a3613"/>
  <path id="Path_780" data-name="Path 780" d="M214.25,320.918c.179-.3.512-.321.785-.372,1.749-.333,2.646-1.6,3.44-3.02a5.515,5.515,0,0,1,1.24-1.738q-.8,1.777-1.607,3.555a.934.934,0,0,1-.5.507A13.32,13.32,0,0,1,214.25,320.918Z" transform="translate(-113.357 -240.585)" fill="#742d17"/>
  <path id="Path_781" data-name="Path 781" d="M219.73,330.875c-.868.23-1.732.481-2.606.682-.486.112-.864-.24-1.259-.446-.56-.293-1.089-.645-1.631-.971l.015-.026a.594.594,0,0,1,.5-.144c1.59.179,3.147.569,4.739.726.092.009.155.09.219.153Z" transform="translate(-113.369 -228.639)" fill="#ebd1b2"/>
  <path id="Path_782" data-name="Path 782" d="M211.214,320.979c.219-.221.372-.529.739-.549.158.387-.158.619-.35.816-.949.975-1.939,1.907-2.913,2.856.439-1.034,1.458-1.55,2.108-2.392C210.968,321.495,211.425,321.418,211.214,320.979Z" transform="translate(-118.042 -236.673)" fill="#b67457"/>
  <path id="Path_783" data-name="Path 783" d="M219.628,314.2l.372.007c-.389.418-1.111.435-1.3,1.089-.267.177-.5.435-.862.394-.125-.5.2-.7.577-.881C218.822,314.617,219.222,314.4,219.628,314.2Z" transform="translate(-110.359 -241.924)" fill="#b25f30"/>
  <path id="Path_784" data-name="Path 784" d="M211.241,325.087c-.612.1-1.268-.2-1.846.2q-.884-.111-1.769-.223A9.578,9.578,0,0,1,211.241,325.087Z" transform="translate(-118.939 -232.917)" fill="#e0c4a8"/>
  <path id="Path_785" data-name="Path 785" d="M211.364,327.965v.391h-1.3C210.542,327.832,210.984,328.031,211.364,327.965Z" transform="translate(-116.887 -230.323)" fill="#e3c7ab"/>
  <path id="Path_786" data-name="Path 786" d="M173.469,307.716c1.732.805,3.516,1.382,5.213,2.143a4.733,4.733,0,0,1,1.9,2.077c-1.8-.564-3.652-1.021-5.392-1.739C174.239,309.806,173.935,308.652,173.469,307.716Z" transform="translate(-147.723 -247.387)" fill="#ca551e"/>
  <path id="Path_787" data-name="Path 787" d="M177.53,310.484a12.806,12.806,0,0,1,5.648,1.983c-2.141-.56-4.528-.217-6.39-1.787C176.925,310.193,177.248,310.416,177.53,310.484Z" transform="translate(-144.927 -245.147)" fill="#7c180f"/>
  <path id="Path_788" data-name="Path 788" d="M174.619,314.62c1.353-1.413,1.419-1.417,2.867-.51.429.267.886.487,1.465.8-.822.21-1.463-.223-2.13-.109C176.119,314.923,175.465,314.562,174.619,314.62Z" transform="translate(-146.754 -242.526)" fill="#851c10"/>
  <path id="Path_789" data-name="Path 789" d="M201.525,306.551c-1.646-.17-2.27-1.19-2.425-2.884A33.088,33.088,0,0,1,201.525,306.551Z" transform="translate(-126.124 -250.799)" fill="#b94a14"/>
  <path id="Path_790" data-name="Path 790" d="M178.614,312.14a5.1,5.1,0,0,1-4.373-1.017Z" transform="translate(-147.072 -244.516)" fill="#851d10"/>
  <path id="Path_791" data-name="Path 791" d="M178.041,310.655c-.256.031-.549-.081-.743.2a3.021,3.021,0,0,1-1.119-.678A5.855,5.855,0,0,1,178.041,310.655Z" transform="translate(-145.438 -245.317)" fill="#821d0f"/>
  <path id="Path_792" data-name="Path 792" d="M217.867,313.208l.651.56a1.931,1.931,0,0,1-1.211-.367C217.51,313.389,217.733,313.427,217.867,313.208Z" transform="translate(-110.781 -242.759)" fill="#8c2c10"/>
  <path id="Path_793" data-name="Path 793" d="M225.786,306.113c.748-.726,1.017-1.531,1.751-2.014A2.581,2.581,0,0,1,225.786,306.113Z" transform="translate(-103.635 -250.435)" fill="#833613"/>
  <path id="Path_794" data-name="Path 794" d="M232.306,300.007a4.616,4.616,0,0,1-1.946,1.041C230.959,300.61,231.46,299.994,232.306,300.007Z" transform="translate(-99.781 -253.884)" fill="#9e4d21"/>
  <path id="Path_795" data-name="Path 795" d="M221.218,338c-1.868.105-3.639-.5-5.464-.735a31.6,31.6,0,0,0-2.672-3.427,2.4,2.4,0,0,1-.615-1.913,38.019,38.019,0,0,1,.6-4.57,20.782,20.782,0,0,1,1.424-3.433c.367-.827.768-1.638,1.152-2.447.107.026.2.026.212.053.47,1.421,1.666,1.815,2.943,2.045a19.341,19.341,0,0,1,5.193,1.861c.457.229.831.319,1.231-.07.173-.166.4-.276.586-.426,1.629-1.273,2.1-1.281,3.824-.175a.721.721,0,0,1,.345.85,48.614,48.614,0,0,1-1.358,5.172v-3.35l-.23-.061c-.295.575-.617,1.139-.873,1.732-.225.521-.472.809-1.089.527-.284-.127-.617-.2-.678.361a10.317,10.317,0,0,1-3.057,5.712C222.066,336.4,221.773,337.279,221.218,338Z" transform="translate(-114.874 -235.792)" fill="#f8f4ee"/>
  <path id="Path_796" data-name="Path 796" d="M217.32,322.781a5.958,5.958,0,0,1-.726,0c-1.314-.162-1.564-.685-.851-1.754.335-.5.693-.99,1.01-1.5.291-.47.566-.453.759.028.359.894.669,1.808,1,2.712.131.357-.022.514-.376.518C217.864,322.782,217.593,322.781,217.32,322.781Z" transform="translate(-112.428 -237.726)" fill="#f1dfc7"/>
  <path id="Path_797" data-name="Path 797" d="M223.129,318.977a17.6,17.6,0,0,1,2.152,2.941c-.018.151-.053.391-.223.321a3.778,3.778,0,0,1-1.859-1.205,14.071,14.071,0,0,1-1-2.595c-.107-.131-.109-.282.033-.357s.256.052.346.166l0,0A5.366,5.366,0,0,0,223.129,318.977Z" transform="translate(-106.724 -238.671)" fill="#d38e58"/>
  <path id="Path_798" data-name="Path 798" d="M222.713,318.57c-.2-.083-.387-.135-.38.192-.258-.328-.586-.645-.186-1.085C222.317,317.986,222.693,318.164,222.713,318.57Z" transform="translate(-106.859 -238.994)" fill="#daa474"/>
  <path id="Path_799" data-name="Path 799" d="M182.828,309.67c-1.469-.232-3.072.857-4.487-.72l4.505.44Z" transform="translate(-143.617 -246.347)" fill="#b2370f"/>
  <path id="Path_800" data-name="Path 800" d="M225.329,319.65l4.343,1.856c-1.548.322-1.85.247-3.333-.754-.275-.186-.553-.368-.829-.553C225.04,319.829,225.027,319.792,225.329,319.65Z" transform="translate(-104.192 -237.33)" fill="#f1dcc1"/>
  <path id="Path_801" data-name="Path 801" d="M225.833,319.871c-.219.275.186.345.181.549-.575-.146-.923-.6-1.487-1.021A1.544,1.544,0,0,1,225.833,319.871Z" transform="translate(-104.696 -237.552)" fill="#f4e4ca"/>
  <path id="Path_802" data-name="Path 802" d="M222.922,318.892a.8.8,0,0,1-.555-.733A.972.972,0,0,1,222.922,318.892Z" transform="translate(-106.517 -238.587)" fill="#daa474"/>
</svg>
