<svg xmlns="http://www.w3.org/2000/svg" xmlns:xlink="http://www.w3.org/1999/xlink" width="43.798" height="55.968" viewBox="0 0 43.798 55.968"><defs><style>.a,.c,.d,.e,.f{fill:none;}.b{clip-path:url(#a);}.c,.d,.e,.f{stroke:#1d1d1b;stroke-linecap:round;stroke-linejoin:round;}.c{stroke-width:1.676px;}.d{stroke-width:1.676px;}.e{stroke-width:1.676px;}.f{stroke-width:1.676px;}</style><clipPath id="a"><path class="a" d="M0 0h43.798v55.968H0z"/></clipPath></defs><g transform="translate(21.899 27.984)"><g transform="translate(-21.899 -27.984)"><g class="b"><path class="c" d="M22.928.0H0z" transform="translate(7.643 55.262)"/></g><path class="c" d="M0 0H18.225z" transform="translate(9.994 34.392)"/><g class="b"><path class="d" d="M2.352 20.87.0.0z" transform="translate(28.219 34.392)"/><path class="d" d="M1.176 20.87.0.0z" transform="translate(23.81 34.392)"/><path class="d" d="M0 20.87V0z" transform="translate(19.107 34.392)"/><path class="d" d="M0 20.87.882.0z" transform="translate(13.522 34.392)"/><path class="d" d="M0 20.87 2.352.0z" transform="translate(7.643 34.392)"/></g><path class="e" d="M0 0H27.337z" transform="translate(5.585 10.288)"/><path class="c" d="M18.225.0H0z" transform="translate(9.994 30.277)"/><path class="d" d="M0 0 4.409 19.988z" transform="translate(5.585 10.288)"/><path class="d" d="M0 0 2.058 19.988z" transform="translate(12.346 10.288)"/><path class="c" d="M0 0V19.988z" transform="translate(19.107 10.288)"/><path class="d" d="M2.058.0.0 19.988z" transform="translate(23.81 10.288)"/><path class="d" d="M4.703.0.0 19.988z" transform="translate(28.219 10.288)"/><path class="d" d="M13.816 5.585.0.0z" transform="translate(19.107 4.703)"/><path class="f" d="M6.761 5.585.0.0z" transform="translate(19.107 4.703)"/><path class="f" d="M0 5.585V0z" transform="translate(19.107 4.703)"/><path class="f" d="M0 5.585 6.761.0z" transform="translate(12.346 4.703)"/><path class="f" d="M0 5.585 13.522.0z" transform="translate(5.585 4.703)"/><path class="d" d="M9.133 4.121H6.488L5.9.3H9.721z" transform="translate(11.443 0.582)"/><g class="b"><path class="f" d="M5 3.5H2.064L.3 4.676 7.649 15.552" transform="translate(0.582 6.788)"/><path class="d" d="M10.7 3.5h7.643l4.115 4.115L16.285 23.488H13.346V21.431l1.764-1.47L18.343 7.027h-4.41" transform="translate(20.752 6.788)"/></g><path class="f" d="M0 0V4.115z" transform="translate(11.464 30.277)"/><path class="f" d="M0 0V4.115z" transform="translate(27.043 30.277)"/></g></g></svg>