<svg xmlns="http://www.w3.org/2000/svg" width="30" height="34.46" viewBox="0 0 51 34.46">
  <g id="Group_62" data-name="Group 62" transform="translate(-2576.962 954.249)">
    <path id="Path_7" data-name="Path 7" d="M2627.711-931.924h-.706a.259.259,0,0,1-.242-.213c-1.557-5.943-3.1-11.838-4.661-17.811a.26.26,0,0,0-.242-.208h-9.778a.276.276,0,0,1-.251-.3v-3.5a.279.279,0,0,0-.255-.3h-24.051a.28.28,0,0,0-.255.3V-943.7a.278.278,0,0,1-.259.292c-1.468,0-2.845,0-4.228.009-.285.005-.689.005-.834.2-.608.836-1.16,1.727-1.837,2.776a.3.3,0,0,0,.2.476h6.648a.275.275,0,0,1,.251.3v1.91a.279.279,0,0,1-.255.3c-2.454,0-4.836-.01-7.221.015a1.3,1.3,0,0,0-.987.317c-.6.8-1.119,1.663-1.74,2.648a.3.3,0,0,0,.2.471h9.764a.279.279,0,0,1,.255.3v1.495a.282.282,0,0,1-.225.292l-.6.089a.283.283,0,0,0-.225.293v4.726a.322.322,0,0,0,.09.228c.833.841,1.645,1.321,1.913,2.064,1.067,2.995,2.875,4.7,5.367,4.716,2.544.02,4.423-1.643,5.427-4.741.089-.272.429-.619.655-.624,3.938-.035,7.88-.025,11.827-.025a.264.264,0,0,1,.243.208c.834,3.127,2.513,5.1,5.414,5.151,3,.05,4.755-1.925,5.627-5.151a.255.255,0,0,1,.238-.208c.983,0,1.952,0,2.922-.01.221,0,.621-.04.638-.134.149-.89.693-.737,1.174-.752a.273.273,0,0,0,.247-.3v-5.261A.271.271,0,0,0,2627.711-931.924Zm-37.064-6.092v-6.973c0-.1,0-.094.085-.094h1.48c.064,0,.072.01.072.094v2.494h2.059v-2.494c0-.085.013-.094.094-.094h1.463c.081,0,.081-.01.081.094v6.973c0,.109,0,.1-.081.1h-1.463c-.081,0-.094-.015-.094-.1V-940.8h-2.059v2.786c0,.084-.009.1-.072.1h-1.48C2590.647-937.917,2590.647-937.907,2590.647-938.016Zm5.844,12.412a3.2,3.2,0,0,1-2.314,2.7c-1.99.435-3.692-1.43-3.5-3.722a3.249,3.249,0,0,1,2.586-3.073C2595.231-929.959,2596.861-927.944,2596.491-925.6Zm6.128-12.313h-1.642c-.072,0-.063-.025-.118-.129-.281-.633-1.136-2.494-1.136-2.494l-.744,1.227v1.3c0,.084-.009.1-.081.1h-1.471c-.081,0-.081.01-.081-.1v-6.973c0-.1,0-.094.081-.094h1.471c.072,0,.081.01.081.094v3.172s1.263-2.242,1.761-3.2a.114.114,0,0,1,.111-.065h1.642c.089,0,.11.03.055.129-.608.96-1.807,2.906-1.807,2.906s1.361,2.821,1.943,3.983C2602.739-937.942,2602.7-937.917,2602.619-937.917Zm6.9.01h-1.48c-.063,0-.072-.035-.072-.084l-.051-3.078s-1.021,1.227-1.382,1.648a.121.121,0,0,1-.073.054c-.017,0-.038-.02-.064-.054-.353-.421-1.408-1.658-1.408-1.658l-.063,3.014c0,.134-.008.149-.1.149h-1.365c-.081,0-.081.03-.081-.064.017-2.262.1-5,.183-7.112.008-.074.025-.1.055-.119a.1.1,0,0,1,.072.045c.791.911,2.361,2.747,2.769,3.286.383-.529,1.9-2.375,2.752-3.341a.085.085,0,0,1,.089-.03.1.1,0,0,1,.038.084c.127,2.757.179,4.563.243,7.112C2609.585-937.972,2609.615-937.907,2609.521-937.907Zm7.341,15.046a3.258,3.258,0,0,1-2.569-3.079c-.183-2.321,1.548-4.182,3.547-3.7a3.235,3.235,0,0,1,2.28,2.742C2620.464-924.565,2618.827-922.595,2616.862-922.862Zm4.916-16.436H2614.8a.28.28,0,0,1-.256-.3V-946.7a.275.275,0,0,1,.256-.292h5.129a.259.259,0,0,1,.242.207l1.854,7.107A.29.29,0,0,1,2621.778-939.3Z" transform="translate(0 0)"/>
  </g>
</svg>
