<svg xmlns="http://www.w3.org/2000/svg" xmlns:xlink="http://www.w3.org/1999/xlink" width="49.828" height="59.771" viewBox="0 0 49.828 59.771"><defs><style>.a,.c,.d,.e,.f,.g,.h,.i,.j,.k,.l{fill:none;}.b{clip-path:url(#a);}.c,.d,.e,.f,.g,.h,.i,.j,.k,.l{stroke:#1d1d1b;stroke-linecap:round;stroke-linejoin:round;}.c{stroke-width:1.268px;}.d{stroke-width:1.268px;}.e{stroke-width:1.268px;}.f{stroke-width:1.268px;}.g{stroke-width:1.268px;}.h{stroke-width:1.268px;}.i{stroke-width:1.268px;}.j{stroke-width:1.268px;}.k{stroke-width:1.268px;}.l{stroke-width:1.268px;}</style><clipPath id="a"><path class="a" d="M0 0h49.828v59.771H0z"/></clipPath></defs><g transform="translate(24.914 29.885)"><g class="b" transform="translate(-24.914 -29.885)"><path class="c" d="M5.2 4.526l.89-3.114A99.209 99.209.0 0 1 18.547.3 79.19 79.19.0 0 1 31.226 1.635l.89 2.892" transform="translate(6.367 0.367)"/><path class="d" d="M0 0H26.916z" transform="translate(11.567 25.581)"/><path class="d" d="M49.015 26.414s-18.24 1.112-24.247 1.112S.3 26.414.3 26.414V23.3H49.015z" transform="translate(0.367 28.53)"/><path class="d" d="M11.78 15v3.337H10V15" transform="translate(12.245 18.367)"/><path class="e" d="M13.8 15v3.337h-2V15" transform="translate(14.449 18.367)"/><path class="f" d="M0 0h8.898v7.719H0z" transform="translate(20.687 25.581)"/><path class="g" d="M2.7 25.622l2.224 2.447H38.736l2-2.669" transform="translate(3.306 31.101)"/><path class="h" d="M.7 24.7l.445 3.337H4.259" transform="translate(0.857 30.244)"/><path class="i" d="M23.859 25.4l-.445 1.78H20.3" transform="translate(24.856 31.101)"/><path class="j" d="M6.5 11.5c0 .89 2.669 3.337 4.894 4.226" transform="translate(7.959 14.081)"/><path class="h" d="M18.894 11.5a2.447 2.447.0 0 1-.667 1.112A15.126 15.126.0 0 1 14 15.726" transform="translate(17.142 14.081)"/><path class="c" d="M0 0V2.002z" transform="translate(16.906 6.228)"/><path class="c" d="M0 0V2.002z" transform="translate(22.245 6.228)"/><path class="c" d="M0 0V2.002z" transform="translate(27.806 6.228)"/><path class="c" d="M0 0V2.002z" transform="translate(33.144 6.228)"/><path class="f" d="M7.039 6.969A2.669 2.669.0 1 1 4.369 4.3 2.669 2.669.0 0 1 7.039 6.969z" transform="translate(2.082 5.265)"/><path class="e" d="M23.639 6.969A2.669 2.669.0 1 1 20.969 4.3 2.669 2.669.0 0 1 23.639 6.969z" transform="translate(22.407 5.265)"/><path class="c" d="M0 0h3.559v4.961H0z" transform="translate(41.82 25.804)"/><path class="k" d="M19.1 15.028V8.8h2.224v6.228" transform="translate(23.387 10.775)"/><path class="c" d="M21.324 13.9v4.449H19.1V13.9" transform="translate(23.387 17.02)"/><path class="c" d="M1.335.0H0z" transform="translate(42.932 37.371)"/><path class="k" d="M16.369 9.114A3.337 3.337.0 1 1 13.033 6a3.337 3.337.0 0 1 3.337 3.114z" transform="translate(11.881 7.347)"/><path class="d" d="M17.119 29.367A22.467 22.467.0 0 0 18.454 17.8H9.334a22.467 22.467.0 0 0 1.335 11.567" transform="translate(11.131 21.795)"/><path class="l" d="M11.7 29.367A22.467 22.467.0 0 0 13.035 17.8" transform="translate(14.326 21.795)"/><path class="f" d="M0 0H9.565z" transform="translate(20.243 42.265)"/><path class="f" d="M0 0H7.563z" transform="translate(21.132 50.05)"/><path class="d" d="M10.832 49.136H.6V3.09L10.832 2.2z" transform="translate(0.735 2.694)"/><path class="d" d="M17.3 49.136H27.532V3.09L17.3 2.2z" transform="translate(21.183 2.694)"/><path class="d" d="M0 0H25.359z" transform="translate(11.567 8.23)"/><path class="f" d="M0 0H25.581z" transform="translate(12.902 6.228)"/></g></g></svg>