<svg xmlns="http://www.w3.org/2000/svg" xmlns:xlink="http://www.w3.org/1999/xlink" viewBox="0 0 431 493.43"><defs><radialGradient id="Neues_Verlaufsfeld_4" cx="271.33" cy="83.82" r="628.91" gradientUnits="userSpaceOnUse"><stop offset="0" stop-color="#e30613"/><stop offset="1" stop-color="#8a1812"/></radialGradient></defs><title>HKM_Logo</title><g id="Designelemente"><path d="M421.46.0a8 8 0 0 1-8 7.92 8 8 0 0 1-8-7.92h-7.32a8 8 0 0 1-8 7.92 8 8 0 0 1-8-7.92h-7.32a8 8 0 0 1-8 7.92A8 8 0 0 1 359 0h-7.32a8 8 0 0 1-8 7.92 8 8 0 0 1-8-7.92h-7.33a8 8 0 0 1-8 7.92 8 8 0 0 1-8-7.92h-7.32a8 8 0 0 1-8 7.92 8 8 0 0 1-8-7.92h-7.32a8 8 0 0 1-8 7.92 8 8 0 0 1-8-7.92h-7.32a8 8 0 0 1-8 7.92 8 8 0 0 1-8-7.92h-7.33a8 8 0 0 1-8 7.92 8 8 0 0 1-8-7.92H212a8 8 0 0 1-8 7.92A8 8 0 0 1 196 0h-7.32a8 8 0 0 1-8 7.92 8 8 0 0 1-8-7.92h-7.32a8 8 0 0 1-8 7.92 8 8 0 0 1-8-7.92h-7.32a8 8 0 0 1-8 7.92 8 8 0 0 1-8-7.92h-7.32a8 8 0 0 1-8 7.92A8 8 0 0 1 103 0H95.63a8 8 0 0 1-8 7.92 8 8 0 0 1-8-7.92H72.36a8 8 0 0 1-8 7.92 8 8 0 0 1-8-7.92H49.09a8 8 0 0 1-8 7.92 8 8 0 0 1-8-7.92H25.82a8 8 0 0 1-8 7.92A8 8 0 0 1 9.87.0H0V493.43H9.87s0 0 0 0a8 8 0 0 1 16 0s0 0 0 0h7.32v0a8 8 0 0 1 16 0s0 0 0 0h7.32s0 0 0 0a8 8 0 0 1 16 0s0 0 0 0h7.32s0 0 0 0a8 8 0 0 1 16 0s0 0 0 0H103s0 0 0 0a8 8 0 0 1 16 0s0 0 0 0h7.32s0 0 0 0a8 8 0 0 1 16 0s0 0 0 0h7.32s0 0 0 0a8 8 0 0 1 16 0s0 0 0 0h7.32s0 0 0 0a8 8 0 0 1 16 0s0 0 0 0H196s0 0 0 0a8 8 0 0 1 16 0s0 0 0 0h7.32s0 0 0 0a8 8 0 0 1 16 0s0 0 0 0h7.32v0a8 8 0 0 1 16 0s0 0 0 0h7.32s0 0 0 0a8 8 0 0 1 16 0s0 0 0 0h7.32s0 0 0 0a8 8 0 0 1 16 0v0h7.32s0 0 0 0a8 8 0 0 1 16 0s0 0 0 0h7.32v0a8 8 0 0 1 16 0v0H359s0 0 0 0a8 8 0 0 1 16 0s0 0 0 0h7.32v0a8 8 0 0 1 16 0s0 0 0 0h7.32s0 0 0 0a8 8 0 0 1 16 0s0 0 0 0H431V0z" style="fill:url(#Neues_Verlaufsfeld_4)"/><path d="M117.59 105.7l3.22-2.11L123 107l2.94-1.93-2.23-3.4L127 99.54l6.32 9.63-3.22 2.11-2.26-3.45-2.94 1.93 2.27 3.45-3.21 2.11z" style="fill:#cda35f"/><path d="M137 93.85l3.4-1.73 9.58 8.15-3.73 1.89-1.24-1.1-3.6 1.82.17 1.65L138 106.39zm5.93 5.2-2.21-2 .33 3z" style="fill:#cda35f"/><path d="M151 87.34l3.38-1.26L160 89.41l-1.78-4.76 3.57-1.33 4 10.79-3.21 1.2-5.87-3.48 1.86 5L155 98.13z" style="fill:#cda35f"/><path d="M169 81.09 173.29 80c4.43-1.12 7.2.51 8 3.81v0c.83 3.3-.84 6.22-5.36 7.36l-4.15 1zm4.56 2.32 1.17 4.66.62-.16c1.71-.43 2.63-1.41 2.22-3v0c-.41-1.61-1.68-2-3.39-1.61z" style="fill:#cda35f"/><path d="M187.62 82.72v0a6 6 0 0 1 5.46-6.83 7.12 7.12.0 0 1 5 1.06l-1.78 2.87a3.85 3.85.0 0 0-2.66-.64 2.58 2.58.0 0 0-2.19 3v0a2.63 2.63.0 0 0 3.1 2.35 2.57 2.57.0 0 0 1.27-.44L195.68 83l-2 .27-.34-2.44 5.53-.77.73 5.28a8 8 0 0 1-4.8 2.42C191.29 88.24 188.11 86.26 187.62 82.72z" style="fill:#cda35f"/><path d="M205.52 74.81l9.82-.35.11 3.16-6 .21V79l5.62-.2.1 2.78-5.62.2v1.25l6.11-.21.11 3.16-9.9.35z" style="fill:#cda35f"/><path d="M222.61 74.56l5.62.37a5.62 5.62.0 0 1 4.05 1.58 3.65 3.65.0 0 1 .87 2.8v0a3.72 3.72.0 0 1-2.5 3.37l2.42 4.09-4.39-.29-2-3.43-.82-.05-.22 3.28-3.84-.25zm5.14 5.83c.92.06 1.5-.31 1.55-1v0c.05-.74-.5-1.14-1.39-1.19L226.24 78l-.15 2.25z" style="fill:#cda35f"/><path d="M238.92 81.71v0a6.29 6.29.0 0 1 12.39 2.12v0a6.29 6.29.0 0 1-12.39-2.12zm8.56 1.49v0a2.46 2.46.0 0 0-1.94-3 2.42 2.42.0 0 0-2.79 2.12v0a2.47 2.47.0 0 0 1.94 3A2.43 2.43.0 0 0 247.48 83.2zm-4.12-9.94 3 .52-.42 2.43-3-.52zm3.63.63 3 .52-.42 2.43-3-.52z" style="fill:#cda35f"/><path d="M255.34 88.91l2.64-1.8a6.6 6.6.0 0 0 3.51 2.4c.66.19 1 .1 1.08-.2v0c.09-.32-.21-.59-1.33-1.17-2.33-1.21-4.32-2.54-3.65-4.89v0c.6-2.11 2.71-3.27 5.76-2.4a8 8 0 0 1 4.57 2.94l-2.52 2a6 6 0 0 0-3-2c-.55-.16-.86.0-.94.23v0c-.09.3.16.58 1.27 1.13 2.68 1.32 4.35 2.69 3.71 4.92v0c-.66 2.33-3 3.21-6 2.36A8.87 8.87.0 0 1 255.34 88.91z" style="fill:#cda35f"/><path d="M276.07 88.61l-3.16-1.23 1.18-3 9.9 3.87-1.18 3L279.66 90l-3 7.7-3.59-1.4z" style="fill:#cda35f"/><path d="M290.07 91l8.76 4.45-1.43 2.82L292 95.5l-.53 1 5 2.55-1.26 2.48-5-2.55-.57 1.11 5.46 2.78-1.43 2.82-8.83-4.49z" style="fill:#cda35f"/><path d="M305.56 103.19l-2.85-1.83 1.76-2.75 9 5.73-1.75 2.75-2.86-1.83-4.45 7-3.24-2.07z" style="fill:#cda35f"/><path d="M74 232.83c0 .28.0.26-.28.26h-6c-.24.0-.27.0-.27-.26v-6.51H62.27v6.51c0 .22.0.26-.29.26H56c-.29.0-.29.0-.29-.26V214.22c0-.29.0-.25.29-.25h6c.25.0.29.0.29.25v6.09h5.19v-6.09c0-.23.0-.25.27-.25h6c.28.0.28.0.28.25v18.62z" style="fill:#fff"/><path d="M88.51 230.71c-.36.8-.56 1.39-.9 2.06-.13.26-.18.32-.57.32H81.28c-.24.0-.29-.11-.13-.4 3.41-6.16 7.61-14.2 10.25-19.08a4.62 4.62.0 0 1 1.33.0c2.93 5.31 7 12.87 10.46 19.08.2.4.2.4-.12.4H96.45a.43.43.0 0 1-.4-.23c-.33-.76-.62-1.44-1-2.15zm5-4.17s-.7-1.69-1.23-2.87c-.25-.59-.45-1.12-.45-1.12s-.21.53-.45 1.12c-.51 1.21-1.27 2.87-1.27 2.87z" style="fill:#fff"/><path d="M110.54 213.69c0-.32.11-.32.31-.18 4.46 2.8 12 7.94 12 7.94V214.3c0-.32.0-.34.26-.34h5.39c.31.0.31.05.31.34.05 5.49.08 11.59.0 18.92.0.34.0.5-.37.28-4.79-2.93-12-7.84-12-7.84v7.16c0 .26.0.26-.28.26h-5.33a.28.28.0 0 1-.31-.29C110.45 225.36 110.48 221.15 110.54 213.69z" style="fill:#fff"/><path d="M139.55 213.69c0-.32.12-.32.32-.18 4.46 2.8 12 7.94 12 7.94V214.3c0-.32.0-.34.25-.34h5.39c.3.0.3.05.3.34.06 5.49.08 11.59.0 18.92.0.34.0.5-.37.28-4.79-2.93-12-7.84-12-7.84v7.16c0 .26.0.26-.28.26h-5.33a.29.29.0 0 1-.32-.29C139.47 225.36 139.49 221.15 139.55 213.69z" style="fill:#fff"/><path d="M187.58 223.58a10.19 10.19.0 0 1-10.36 10.19 10.2 10.2.0 1 1 10.36-10.19zm-13.93-.06a3.39 3.39.0 0 0 3.57 3.7 3.46 3.46.0 0 0 3.58-3.7 3.58 3.58.0 0 0-7.16.0z" style="fill:#fff"/><path d="M205 233.23c-.25.5-.64.54-.9.06-3.5-6.23-6.32-11.37-10.19-18.82-.25-.44-.25-.49.19-.49h7.08c.25.0.25.0.34.22 1 2.34 3.24 7.69 3.24 7.69s1.88-5.24 2.73-7.57c.12-.26.12-.34.35-.34h6.71c.43.0.45.0.2.49C210.74 222.19 208.53 226.38 205 233.23z" style="fill:#fff"/><path d="M222.34 233.09c-.32.0-.33-.06-.33-.4V214.25c0-.26.0-.28.31-.28h14.07c.31.0.34.0.34.39v3.72c0 .31.0.4-.34.4h-7.87V221h7.68c.31.0.33.06.33.4v4.29c0 .3.0.36-.33.36h-7.68v2.37h8.13c.31.0.31.0.31.36v4c0 .34.0.4-.31.4z" style="fill:#fff"/><path d="M257.32 214c4.82.0 7 3 7 6.46.0 2.59-1 4.39-2.77 5.14l4.69 6.75c.47.68.42.78-.05.78h-7.25c-.25.0-.36-.06-.67-.57-1.09-1.84-2.87-4.88-2.87-4.88l-2 .12v5.07c0 .22.0.26-.27.26h-6c-.28.0-.28.0-.28-.26V214.22c0-.29.14-.25.28-.25zm-2.69 9.13c1.65.0 2.6-.59 2.6-2.22s-.79-2.25-2.63-2.25h-1.17v4.47z" style="fill:#fff"/><path d="M274.36 228.91l4.2-1.58c.26-.11.29-.09.34.11a2.84 2.84.0 0 0 2.69 1.87c1.32.0 2-.59 2-1.45s-.8-1.26-2.46-1.46l-.69-.08c-2.15-.18-5.87-1.16-5.87-5.74.0-4.4 2.85-7.21 8.21-7.21 3.95.0 6.32 1.69 6.85 4.14.05.34.08.37-.2.48l-4 1.46c-.22.12-.24.12-.34-.1a2.46 2.46.0 0 0-2.56-1.61c-1.33.0-1.85.57-1.85 1.32s.75 1.13 2.84 1.45c.27.0.61.07 1 .13 3.15.48 5.72 1.84 5.72 5.81.0 4.71-3.75 7.32-8.43 7.32-3.83.0-6.46-1.66-7.55-4.32C274.09 229 274.11 229 274.36 228.91z" style="fill:#fff"/><path d="M312.83 225.33l5.5 1.69c.31.0.34.2.25.37a10.23 10.23.0 0 1-9.45 6.38c-6.08.0-10.29-4.09-10.29-10.16a10 10 0 0 1 10.39-10.24 9.4 9.4.0 0 1 9.19 6c.11.34.0.42-.14.49l-5.5 2c-.17.0-.2-.07-.25-.17a3.34 3.34.0 0 0-3.33-1.87 3.5 3.5.0 0 0-3.75 3.8 3.56 3.56.0 0 0 3.83 3.73 3.44 3.44.0 0 0 3.23-1.83C312.58 225.33 312.61 225.27 312.83 225.33z" style="fill:#fff"/><path d="M346 232.83c0 .28.0.26-.29.26h-6c-.25.0-.28.0-.28-.26v-6.51h-5.19v6.51c0 .22.0.26-.29.26h-6c-.27.0-.27.0-.27-.26V214.22c0-.29.0-.25.27-.25h6c.26.0.29.0.29.25v6.09h5.19v-6.09c0-.23.0-.25.28-.25h6c.29.0.29.0.29.25v18.62z" style="fill:#fff"/><path d="M357.12 233.09c-.3.0-.32-.06-.32-.4V214.25c0-.26.0-.28.3-.28h14.07c.31.0.34.0.34.39v3.72c0 .31-.06.4-.34.4h-7.86V221H371c.32.0.34.06.34.4v4.29c0 .3.0.36-.34.36h-7.66v2.37h8.11c.31.0.31.0.31.36v4c0 .34.0.4-.31.4z" style="fill:#fff"/><path d="M70 297.39c0 .63-.09.72-.72.72H56.56c-.71.0-.71.07-.71-.72V245.34c0-.79.0-.7.71-.7H69.32c.64.0.72.08.72.7V269s11-16.73 15.29-23.9a1 1 0 0 1 .94-.46h14.29c.78.0.94.22.47.94-5.28 7.18-15.7 21.69-15.7 21.69S97.17 288.33 102.22 297c.48 1 .15 1.11-.55 1.11H87.39c-.63.0-.56-.16-1-1-2.44-4.72-9.86-18.6-9.86-18.6L70 287.69z" style="fill:#cda35f"/><path d="M125 290.45c-.95 2.21-2 4.89-2.76 6.79-.24.63-.39.87-1.43.87H107.69c-.63.0-.71-.32-.39-1.11 8.2-17.42 19.64-40.7 26.82-54.1.08-.24 1.82-.16 1.89.0 7.57 14.75 18.3 36.68 27 54.1.47 1 .41 1.11-.29 1.11H147.92a.89.89.0 0 1-.95-.63c-1-2.13-2.12-5-2.91-7zm14.91-10.25-5.58-12-5.38 12z" style="fill:#cda35f"/><path d="M174.27 298.11c-.46.0-.64.07-.64-1.11V245.66c0-.95.09-1 .64-1H208.9c.63.0.55.15.63.78a70.2 70.2.0 0 1 0 10.73c-.08.71.0.79-.63.79l-21.07-.15v10.72l15.36-.23c.71.0 1 .32 1 .94a99.09 99.09.0 0 1 0 10.66c-.09.71-.39.87-1.11.87l-15.28-.16V297c0 .87-.07 1.11-.7 1.11z" style="fill:#cda35f"/><path d="M224.6 298.11c-.47.0-.65.07-.65-1.11V245.66c0-.95.09-1 .65-1h34.63c.62.0.56.15.62.78a68.5 68.5.0 0 1 0 10.73c-.07.71.0.79-.62.79l-21.06-.15v10.72l15.34-.23c.71.0 1 .32 1 .94a94.75 94.75.0 0 1 0 10.66c-.08.71-.4.87-1.1.87l-15.27-.16V297c0 .87-.07 1.11-.71 1.11z" style="fill:#cda35f"/><path d="M276.81 298.11c-.8.0-.87-.16-.87-1.11V245.41c0-.71-.09-.78.7-.78h35.65c.79.0.86.08.86 1v9.62c0 .71-.22 1.1-.86 1.1l-22.56-.23v8.91h22.09c.71.0.79.16.79 1.1v9.61c0 1-.09 1.11-.79 1.11H289.73V286l23.12-.23c.86.0.86.0.86 1V297c0 1-.07 1.11-.86 1.11z" style="fill:#cda35f"/><path d="M336.09 298.11c-.78.0-.87-.16-.87-1.11V245.41c0-.71-.07-.78.72-.78h35.65c.8.0.87.08.87 1v9.62c0 .71-.23 1.1-.87 1.1L349 256.14v8.91h22.09c.72.0.79.16.79 1.1v9.61c0 1-.07 1.11-.79 1.11H349V286l23.11-.23c.87.0.87.0.87 1V297c0 1-.08 1.11-.87 1.11z" style="fill:#cda35f"/><path d="M81.49 332.29c0 .27.1.48-.23.48h-7c-.28.0-.31-.1-.31-.28l-.3-8.78s-3.76 3.1-5.17 4.21c-.3.25-.3.25-.61.0-1.51-1.21-4.74-4.21-4.74-4.21l-.23 8.54c0 .44-.06.47-.43.47H56.29c-.34.0-.34.09-.34-.21.07-7.22.4-16 .77-22.72.0-.4.15-.47.48-.23 3.78 2.78 9.62 7.7 11.21 9.12 1.66-1.42 7.71-6.49 11.58-9.29.33-.27.42-.27.47.17C81 318.42 81.24 324.15 81.49 332.29z" style="fill:#cda35f"/><path d="M99.71 329.89c-.45 1-.68 1.65-1.08 2.46-.17.31-.2.38-.67.38H91c-.26.0-.34-.14-.13-.47 4.08-7.37 9.12-17 12.25-22.83a5.5 5.5.0 0 1 1.6.0c3.5 6.35 8.32 15.39 12.52 22.83.24.47.24.47-.13.47h-7.95a.48.48.0 0 1-.46-.28c-.41-.91-.74-1.72-1.15-2.56zm6-5s-.85-2-1.48-3.43c-.31-.71-.54-1.35-.54-1.35s-.25.64-.55 1.35c-.6 1.45-1.51 3.43-1.51 3.43z" style="fill:#cda35f"/><path d="M127.39 309.51c0-.38.15-.38.38-.21 5.32 3.35 14.34 9.48 14.34 9.48v-8.54c0-.37.0-.4.31-.4h6.44c.38.0.38.08.38.4.06 6.59.1 13.88.0 22.66.0.41.0.6-.45.33-5.74-3.52-14.3-9.38-14.3-9.38v8.57c0 .31.0.31-.34.31h-6.38a.33.33.0 0 1-.38-.34C127.28 323.48 127.32 318.45 127.39 309.51z" style="fill:#cda35f"/><path d="M161.76 310c0-.2.0-.2.17-.2h7.87c.23.0.23.0.23.27v13.06c0 2.3 1 3.25 2.83 3.25s2.84-.91 2.84-3.25V310.08c0-.2.0-.24.25-.24h7.31c.17.0.17.0.17.24v14.58c0 5.43-3.81 8.91-11.11 8.91-6.62.0-10.57-4-10.57-9.25z" style="fill:#cda35f"/><path d="M196.5 332.73c-.3.0-.34.0-.34-.47V310.31c0-.44.0-.47.34-.47h16.38c.29.0.26.08.26.34v5c0 .26.0.3-.26.3h-8.82v4.42H212c.31.0.26.14.26.4v5.21c0 .3.0.33-.26.33h-7.9v6.41c0 .38.0.47-.31.47z" style="fill:#cda35f"/><path d="M227.74 329.89c-.44 1-.67 1.65-1.08 2.46-.17.31-.2.38-.67.38h-6.93c-.26.0-.34-.14-.13-.47 4.08-7.37 9.11-17 12.25-22.83a5.48 5.48.0 0 1 1.59.0c3.51 6.35 8.33 15.39 12.52 22.83.23.47.23.47-.14.47h-7.93a.5.5.0 0 1-.48-.28c-.4-.91-.72-1.72-1.15-2.56zm6-5s-.85-2-1.49-3.43c-.32-.71-.54-1.35-.54-1.35s-.24.64-.55 1.35c-.6 1.45-1.51 3.43-1.51 3.43z" style="fill:#cda35f"/><path d="M261.68 332.42c0 .28.0.31-.33.31h-7.07c-.33.0-.33.0-.33-.31V310.15c0-.35.0-.31.33-.31h7.07c.3.0.33.0.33.31v8.33s3.71-5.3 5.73-8.44a.48.48.0 0 1 .46-.2h8.19c.42.0.47.14.25.4l-7.49 9.26s5.87 9 8.22 12.76c.29.41.11.47-.23.47h-8.89c-.34.0-.3-.07-.51-.41-1.18-2-3.53-6.55-3.53-6.55l-2.2 2.5z" style="fill:#cda35f"/><path d="M300.4 332.42c0 .28.0.31-.34.31h-7.31c-.34.0-.34.0-.34-.31V315.78l-6.15.37c-.23.0-.23.0-.23-.22v-5.75c0-.26.0-.34.26-.34h20c.25.0.28.08.28.34v5.75c0 .19.0.22-.24.22l-5.94-.37z" style="fill:#cda35f"/><path d="M317.36 310c0-.2.0-.2.17-.2h7.86c.23.0.23.0.23.27v13.06c0 2.3 1 3.25 2.83 3.25s2.84-.91 2.84-3.25V310.08c0-.2.0-.24.23-.24h7.33c.18.0.18.0.18.24v14.58c0 5.43-3.82 8.91-11.12 8.91-6.61.0-10.56-4-10.56-9.25z" style="fill:#cda35f"/><path d="M364.22 309.84c5.77.0 8.41 3.58 8.41 7.73.0 3.1-1.19 5.27-3.31 6.15.94 1.39 3.43 5 5.6 8.09.57.82.51.92-.05.92h-8.68c-.31.0-.44-.07-.82-.68-1.28-2.19-3.44-5.84-3.44-5.84l-2.36.15v6.06c0 .28.0.31-.34.31H352.1c-.32.0-.32.0-.32-.31V310.15c0-.35.15-.31.32-.31zM361 320.78c2 0 3.11-.71 3.11-2.67s-.95-2.7-3.14-2.7h-1.41v5.37z" style="fill:#cda35f"/><path d="M215.5 348.06 95.22 349.82V350.78L215.5 352.54 335.78 350.78V349.82L215.5 348.06z" style="fill:#fff"/><path d="M77.4 383.27h7.54v2.2H80v1.43h4.5v2H80v1.49h5v2.21H77.4z" style="fill:#fff"/><path d="M88 383.27h4.44a4.16 4.16.0 0 1 3.05 1 2.94 2.94.0 0 1 .83 2.19v0a3 3 0 0 1-1.93 2.89l2.24 3.27h-3l-1.89-2.84H90.55v2.84H88zm4.33 4.5c.87.0 1.39-.43 1.39-1.11v0c0-.75-.55-1.12-1.41-1.12H90.55v2.26z" style="fill:#fff"/><path d="M99.19 383.27h2.6v7.1h4.54v2.28H99.19z" style="fill:#fff"/><path d="M108.26 383.27h7.54v2.2h-5v1.43h4.5v2h-4.5v1.49h5v2.21h-7.61z" style="fill:#fff"/><path d="M118.11 391.26l1.45-1.73a4.83 4.83.0 0 0 3 1.13c.71.0 1.08-.24 1.08-.64v0c0-.4-.31-.6-1.59-.91-2-.46-3.54-1-3.54-2.93v0c0-1.74 1.38-3 3.63-3a5.9 5.9.0 0 1 3.86 1.25l-1.3 1.84a4.59 4.59.0 0 0-2.62-.93c-.63.0-.94.26-.94.6v0c0 .43.32.62 1.63.91 2.14.47 3.49 1.16 3.49 2.92v0c0 1.91-1.51 3.05-3.79 3.05A6.57 6.57.0 0 1 118.11 391.26z" style="fill:#fff"/><path d="M129.16 383.27h7.54v2.2h-5v1.43h4.5v2h-4.5v1.49h5v2.21h-7.61z" style="fill:#fff"/><path d="M139.71 383.27h2.42l3.86 5v-5h2.57v9.37H146.3l-4-5.14v5.14h-2.57z" style="fill:#fff"/><path d="M151.83 383.27h7.54v2.2h-5v1.43h4.5v2h-4.5v1.49h5v2.21h-7.61z" style="fill:#fff"/><path d="M167.7 383.27h2.6v3.8l3.24-3.8h3.07l-3.55 4 3.67 5.36h-3.11l-2.37-3.48-.95 1v2.44h-2.6z" style="fill:#fff"/><path d="M181.52 383.21H184l4 9.44h-2.79l-.67-1.69h-3.63l-.67 1.69h-2.72zm2.28 5.73-1-2.65-1.06 2.65z" style="fill:#fff"/><path d="M190 383.27h7.5v2.28h-4.9v1.59H197v2.16H192.6v3.35H190z" style="fill:#fff"/><path d="M199.77 383.27h7.5v2.28h-4.9v1.59h4.43v2.16h-4.43v3.35h-2.6z" style="fill:#fff"/><path d="M209.53 383.27h7.54v2.2h-5v1.43h4.5v2h-4.5v1.49h5v2.21h-7.6z" style="fill:#fff"/><path d="M220.08 383.27h7.54v2.2h-5v1.43h4.5v2h-4.5v1.49h5v2.21h-7.61z" style="fill:#fff"/><path d="M229.93 391.26l1.45-1.73a4.84 4.84.0 0 0 3 1.13c.71.0 1.08-.24 1.08-.64v0c0-.4-.31-.6-1.59-.91-2-.46-3.54-1-3.54-2.93v0c0-1.74 1.38-3 3.63-3a5.89 5.89.0 0 1 3.86 1.25l-1.3 1.84a4.59 4.59.0 0 0-2.62-.93c-.63.0-.94.26-.94.6v0c0 .43.32.62 1.63.91 2.14.47 3.48 1.16 3.48 2.92v0c0 1.91-1.51 3.05-3.79 3.05A6.58 6.58.0 0 1 229.93 391.26z" style="fill:#fff"/><path d="M241 383.27h4c2.36.0 3.89 1.22 3.89 3.28v0c0 2.22-1.7 3.39-4 3.39h-1.3v2.68H241zm3.85 4.66c.91.0 1.49-.5 1.49-1.23v0c0-.8-.58-1.22-1.5-1.22h-1.23v2.48z" style="fill:#fff"/><path d="M251.6 383.27h7.54v2.2h-5v1.43h4.5v2h-4.5v1.49h5v2.21H251.6z" style="fill:#fff"/><path d="M261.87 390.76l4.69-5.3H262v-2.19h8.11v1.88l-4.7 5.3h4.7v2.19h-8.27z" style="fill:#fff"/><path d="M273.18 383.27h2.6v9.37h-2.6z" style="fill:#fff"/><path d="M281.53 383.21H284l4 9.44h-2.79l-.67-1.69h-3.63l-.67 1.69h-2.72zm2.28 5.73-1-2.65-1.06 2.65z" style="fill:#fff"/><path d="M289.74 383.27h2.6v7.1h4.54v2.28h-7.14z" style="fill:#fff"/><path d="M298.61 383.27h2.6v9.37h-2.6z" style="fill:#fff"/><path d="M306.29 385.55h-2.8v-2.28h8.21v2.28h-2.82v7.1h-2.6z" style="fill:#fff"/><path d="M316.48 383.21H319l4 9.44h-2.78l-.67-1.69h-3.63l-.67 1.69H312.5zm-1.34-2.56h2.21v1.85h-2.21zm3.62 8.29-1-2.65-1.05 2.65zm-.66-8.29h2.21v1.85H318.1z" style="fill:#fff"/><path d="M326.58 385.55h-2.8v-2.28H332v2.28h-2.81v7.1h-2.6z" style="fill:#fff"/><path d="M334.19 383.27h7.54v2.2h-5v1.43h4.5v2h-4.5v1.49h5v2.21h-7.61z" style="fill:#fff"/><path d="M344.75 383.27h2.43l3.86 5v-5h2.57v9.37h-2.27l-4-5.14v5.14h-2.57z" style="fill:#fff"/><path d="M109.68 400.54h2.5l4 9.44h-2.79l-.67-1.69h-3.63l-.67 1.69H105.7zm2.28 5.73-1-2.65-1.06 2.65z" style="fill:#fff"/><path d="M118.21 405.87v-5.26h2.62v5.21c0 1.35.68 2 1.73 2s1.74-.62 1.74-1.93v-5.28h2.62v5.2c0 3-1.73 4.35-4.39 4.35S118.21 408.8 118.21 405.87z" style="fill:#fff"/><path d="M129.37 408.59l1.45-1.73a4.84 4.84.0 0 0 3 1.13c.71.0 1.09-.24 1.09-.64v0c0-.4-.31-.6-1.59-.91-2-.45-3.54-1-3.54-2.93v0c0-1.74 1.38-3 3.63-3a5.9 5.9.0 0 1 3.86 1.24l-1.3 1.84a4.61 4.61.0 0 0-2.63-.92c-.63.0-.94.25-.94.6v0c0 .43.32.62 1.63.91 2.14.47 3.48 1.17 3.48 2.92v0c0 1.91-1.51 3.05-3.79 3.05A6.58 6.58.0 0 1 129.37 408.59z" style="fill:#fff"/><path d="M145.73 400.61h3.63c3.34.0 5.28 1.93 5.28 4.63v0c0 2.71-2 4.71-5.33 4.71h-3.57zm2.6 2.29v4.78h1.06a2.3 2.3.0 0 0 2.6-2.37v0a2.32 2.32.0 0 0-2.6-2.38z" style="fill:#fff"/><path d="M157.6 400.61h7.54v2.19h-5v1.44h4.5v2h-4.5v1.49h5V410H157.6z" style="fill:#fff"/><path d="M168.16 400.61h4.43a4.15 4.15.0 0 1 3.05 1 2.92 2.92.0 0 1 .83 2.18v0a3 3 0 0 1-1.93 2.89l2.24 3.27h-3l-1.89-2.84h-1.15V410h-2.6zm4.33 4.5c.87.0 1.39-.43 1.39-1.11v0c0-.75-.55-1.12-1.41-1.12h-1.71v2.26z" style="fill:#fff"/><path d="M184.71 400.61h4c2.36.0 3.88 1.22 3.88 3.28v0c0 2.22-1.7 3.39-4 3.39h-1.3V410h-2.6zm3.85 4.66c.91.0 1.49-.5 1.49-1.23v0c0-.81-.58-1.22-1.5-1.22h-1.23v2.48z" style="fill:#fff"/><path d="M195.33 400.61h4.43a4.16 4.16.0 0 1 3.06 1 2.94 2.94.0 0 1 .83 2.18v0a3 3 0 0 1-1.93 2.89L204 410h-3l-1.89-2.84h-1.15V410h-2.6zm4.33 4.5c.87.0 1.39-.43 1.39-1.11v0c0-.75-.55-1.12-1.41-1.12h-1.71v2.26z" style="fill:#fff"/><path d="M206.64 400.61h2.6V410h-2.6z" style="fill:#fff"/><path d="M211.29 400.61h2.89l2.13 5.93 2.14-5.93h2.84l-3.8 9.44h-2.41z" style="fill:#fff"/><path d="M225.71 400.54h2.5l4 9.44h-2.79l-.67-1.69h-3.63l-.67 1.69h-2.72zm2.28 5.73-1-2.65-1.06 2.65z" style="fill:#fff"/><path d="M235.54 402.88h-2.8v-2.27h8.21v2.27h-2.82V410h-2.59z" style="fill:#fff"/><path d="M243.7 400.61h4.43a4.15 4.15.0 0 1 3.06 1 2.92 2.92.0 0 1 .83 2.18v0a3 3 0 0 1-1.93 2.89l2.24 3.27h-3l-1.89-2.84h-1.15V410h-2.6zm4.32 4.5c.88.0 1.39-.43 1.39-1.11v0c0-.75-.55-1.12-1.41-1.12h-1.71v2.26z" style="fill:#fff"/><path d="M254.62 405.32v0a4.92 4.92.0 0 1 5.06-4.88 4.86 4.86.0 0 1 5 4.85v0a5.05 5.05.0 0 1-10.1.0zm2.45-7.34h2.21v1.85h-2.21zm5 7.34v0a2.42 2.42.0 0 0-2.4-2.53 2.39 2.39.0 0 0-2.38 2.5v0a2.44 2.44.0 0 0 2.41 2.53A2.39 2.39.0 0 0 262.06 405.32zM260 398h2.21v1.85H260z" style="fill:#fff"/><path d="M266.89 408.59l1.45-1.73a4.85 4.85.0 0 0 3 1.13c.71.0 1.08-.24 1.08-.64v0c0-.4-.31-.6-1.59-.91-2-.45-3.54-1-3.54-2.93v0c0-1.74 1.38-3 3.63-3a5.88 5.88.0 0 1 3.85 1.24l-1.29 1.84a4.63 4.63.0 0 0-2.63-.92c-.63.0-.94.25-.94.6v0c0 .43.32.62 1.64.91 2.14.47 3.48 1.17 3.48 2.92v0c0 1.91-1.51 3.05-3.79 3.05A6.58 6.58.0 0 1 266.89 408.59z" style="fill:#fff"/><path d="M280 402.88h-2.8v-2.27h8.21v2.27h-2.81V410H280z" style="fill:#fff"/><path d="M287.86 400.61h7.54v2.19h-5v1.44h4.5v2h-4.5v1.49h5V410h-7.61z" style="fill:#fff"/><path d="M298.41 400.61h4.43a4.15 4.15.0 0 1 3.06 1 2.93 2.93.0 0 1 .83 2.18v0a3 3 0 0 1-1.93 2.89L307 410h-3l-1.89-2.84H301V410h-2.59zm4.32 4.5c.87.0 1.39-.43 1.39-1.11v0c0-.75-.55-1.12-1.41-1.12H301v2.26z" style="fill:#fff"/><path d="M309.65 400.61h7.54v2.19h-5v1.44h4.5v2h-4.5v1.49h5V410h-7.61z" style="fill:#fff"/><path d="M320.27 400.61h2.6V410h-2.6z" style="fill:#fff"/><path d="M285.32 193.5V172.28h.45v-.73h-.45v-1.37l-.84-1.43-.23-5.86h-.34l-.19 4.55-3-5.15v-2.42l-.34-.57-.07-1.85h-.37l-.05 1L279 157l-.94 1.56v-1.09h-.37l-.08 1.92-.29.5v2.41h-3.46v.82h-.87l-.85-2.27H272v-1.49h-.17l-.06 1.49h-2.48v-2.89a.85.85.0 0 0-.6-.8l-.15-3.52h-.15l-.15 3.52a.84.84.0 0 0-.6.8v2.89H266.4V155l.64-.37v-2.46l-.77-.08v-1.63h-.62l-.48.93v-3.17l-2.74-7.94-.16-4.8a3.8 3.8.0 0 0-1.43-2l-.2-4.63h-.33l-.19 4.58c-.5.19-1 .85-1.28 2a1.16 1.16.0 0 0 0 .89v3.89l-2.71 7.83v4.71l-.53.42v-1h-.37l-.05 1.4-.37.3V163L252 159.41l-.11-2.6h-.37l-.09 2.22h-5.23v-2.62a.82.82.0 0 0-.6-.8l-.14-3.53h-.16l-.15 3.53a.82.82.0 0 0-.6.8V159h-8.4v-9.25a.8.8.0 0 0-.61-.78l-.14-3.53h-.15l-.15 3.53a.79.79.0 0 0-.62.78v4.55h-4.1l-1.55-2 .07-1.85-1.37-1.87v-2.9L227 132.88h-.34l-.23 5.77c-.4-6.86-3.5-10.47-6.73-12.05h0v-4.24h-.64a24 24 0 0 0-.14-3.52c-.23-1.72-.8-1.79-.8-1.79l.22-.8-.46-1.36-.21-4.06h-.25l-.16 3-1-.76-.14-3.47a.53.53.0 0 0 .35-.5.5.5.0 0 0-.38-.49v-.25l-.08-1.76h-.1l-.08 1.81v.19a.52.52.0 0 0 0 1l-.13 3.47-1 .76-.14-3h-.28l-.19 4.06-.46 1.36.21.8s-.58.07-.79 1.79a25.46 25.46.0 0 0-.14 3.52h-.64v4.24h0c-3.22 1.59-6.32 5.2-6.72 12.05l-.24-5.77h-.33l-.54 12.87v2.9L203 150.52l.06 1.85-1.55 2h-4.1v-4.55a.79.79.0 0 0-.61-.78l-.14-3.53h-.16l-.15 3.53a.8.8.0 0 0-.61.78V159h-8.4v-2.62a.82.82.0 0 0-.61-.8l-.15-3.53h-.15l-.14 3.53a.82.82.0 0 0-.62.8V159h-5.23l-.08-2.22H180l-.11 2.6L177.13 163v-9.09l-.37-.3v-1.4h-.38v1l-.52-.42v-4.71l-2.71-7.83v-3.89a1.1 1.1.0 0 0 0-.89c-.33-1.16-.78-1.82-1.28-2l-.19-4.58h-.34l-.19 4.63a3.68 3.68.0 0 0-1.44 2l-.17 4.8-2.75 7.94v3.17l-.46-.93h-.62v1.63l-.77.08v2.46l.64.38v5.81h-1.16v-2.89a.84.84.0 0 0-.6-.8l-.15-3.52h-.15l-.15 3.52a.84.84.0 0 0-.6.8v2.89H160.2l-.06-1.49H160l-.07 1.49h-.09L159 163.1h-.89v-.82h-3.45v-2.41l-.3-.5-.07-1.92h-.38v1.09l-.93-1.56-.92 1.51v-1h-.37l-.08 1.85-.32.57v2.42l-3 5.15-.19-4.55h-.33l-.24 5.86-.84 1.43v1.37h-.44v.73h.44v21.21l-51.35.82v1L215.49 197l120.27-1.76v-1zM152.43 160.56a.46.46.0 1 1 .91.0V162h-.91zm-1.73 6.05h.13l.28.76 1.49-1.55 1.54 1.53.25-.74h.13l.11 1.38-2-1.21s-2 1.22-2 1.22zm-2.07 7.86a1 1 0 0 1 2.06.0v1.93h-2.06zm2.12 17.88h-1.36v-1.27a.68.68.0 0 1 1.36.0zm.35-4.94H149v-1.93a1 1 0 0 1 2.07.0zm0-5.74H149v-1.93a1 1 0 1 1 2.07.0zm2.54-5.27h-2.05v-1.93a1 1 0 0 1 2.05.0zm0-5.25h-2.05v-1.93a1 1 0 1 1 2.05.0zm2.21 21.2h-1.37v-1.27a.68.68.0 0 1 1.37.0zm.35-4.94h-2.06v-1.93a1 1 0 0 1 2.06.0zm0-5.74h-2.06v-1.93a1 1 0 1 1 2.06.0zm.41-5.27h-2.05v-1.93a1 1 0 0 1 2.05.0zm3.79-7.26h.78v1.15h-.78zm-1 0h.77v1.15h-.77zm2.46 23.21h-2.06v-1.92a1 1 0 1 1 2.06.0zm0-4.94h-2.06v-1.93a1 1 0 0 1 2.06.0zm0-5.74h-2.06v-1.93a1 1 0 1 1 2.06.0zm0-5.27h-2.06v-1.93a1 1 0 0 1 2.06.0zm.41-6.11h-.78v-1.15h.78zm2-1.15H165v1.15h-.78zm-1.53-3.34h.79V167h-.79zm.49 3.34H164v1.15h-.78zm2.46 23.21H163.6v-1.92a1 1 0 1 1 2.06.0zm0-4.94H163.6v-1.93a1 1 0 0 1 2.06.0zm0-5.74H163.6v-1.93a1 1 0 1 1 2.06.0zm0-5.27H163.6v-1.93a1 1 0 0 1 2.06.0zm.42-6.11h-.79v-1.15h.79zm4.84-5.55V163h.45v1.75zm.45 2.48V169h-.45v-1.74zm-.36-7h-.73v-1.55H171zm-.46 12h1.2v2.52h-1.2zm.72-12v-1.55H172v1.55zm.06-6.8v-1.05h.9v1.05zm0-1.42v-2.13a.45.45.0 1 1 .9.0V152zm-.69-13.37a.5.5.0 0 1 .51-.51.53.53.0 0 1 .52.51v1.61h-1zm.51 8.31a1 1 0 1 1-1 1A1 1 0 0 1 171.15 147zm-1.09 2.93a.45.45.0 1 1 .9.0V152h-.9zm0 2.49h.9v1.05h-.9zm-1.13 19.9h1.2v2.52h-1.2zm3.62 20.07h-2.8v-1.43a1.4 1.4.0 1 1 2.8.0zm-2.43-4.94v-1.93a1 1 0 0 1 2.06.0v1.93zm2.43-5.74h-2.8v-2.25a1.4 1.4.0 1 1 2.8.0zm.81-6.88h-1.2v-2.52h1.2zM176 165h.14l.27.75 1.5-1.54s1.4 1.38 1.55 1.51l.25-.72h.12l.11 1.38-2-1.22s-2 1.23-2 1.23zm2.94 3.29v1.93H176.9v-1.93a1 1 0 1 1 2.06.0zm-3.14 8.45a2.11 2.11.0 1 1 4.21.0v.15h-4.21zm0 2.08a1 1 0 0 1 1.92.0v2.88H175.8zm2.13 5.17a2.1 2.1.0 0 1 2.11 2.1v1.37h-4.21v-1.37A2.1 2.1.0 0 1 177.93 184zm-.21 8.4H175.8v-1.91h1.92zm2.36.0h-1.92v-1.91h1.92zm0-10.69h-1.92v-2.88a1 1 0 0 1 1.92.0zm3-16.7h.12l.27.75 1.5-1.54s1.39 1.38 1.53 1.51l.27-.72h.12l.11 1.38s-2-1.22-2-1.22-2 1.23-2 1.23zm2.93 3.29v1.93H184v-1.93a1 1 0 1 1 2.05.0zm-3.11 8.45a2.1 2.1.0 1 1 4.2.0v.15h-4.2zm0 2.08a.94.94.0 0 1 1-.91.93.93.0 0 1 1 .91v2.88h-1.92zM185 184a2.09 2.09.0 0 1 2.11 2.1v1.37H182.9v-1.37A2.11 2.11.0 0 1 185 184zm-.21 8.4h-1.92v-1.91h1.92zm2.33.0h-1.91v-1.91h1.91zm0-10.69h-1.92v-2.88a1 1 0 0 1 1.92.0zm3-16.7h.12l.28.75c.12-.14 1.5-1.54 1.5-1.54s1.39 1.38 1.53 1.51l.26-.72H194l.11 1.38s-2.05-1.22-2-1.22-2 1.23-2 1.23zm2.93 3.29v1.93h-2.06v-1.93a1 1 0 1 1 2.06.0zM190 176.7a2.1 2.1.0 0 1 2.1-2.11 2.12 2.12.0 0 1 2.12 2.11v.15H190zm0 2.08a1 1 0 0 1 1.91.0v2.88H190zm2.13 5.17a2.11 2.11.0 0 1 2.12 2.1v1.37H190v-1.37A2.09 2.09.0 0 1 192.09 184zm-.22 8.4H190v-1.91h1.91zm2.36.0h-1.92v-1.91h1.92zm0-10.69h-1.92v-2.88a1 1 0 0 1 1.92.0zM226 143.42c0-.34.14-.62.33-.62s.31.28.31.62v2.22H226zm0 13.8h.18l.37 1.17c.19-.2 2.07-2.4 2.07-2.4s1.92 2.16 2.12 2.37l.35-1.14h.18l.14 2.15-2.79-1.89s-2.77 1.9-2.77 1.9zm2.25 15.55v1.9l-.31.08-1-1.62A3.25 3.25.0 0 1 228.3 172.78zm-.64-2.58v-2.66h2.11v2.66zm.88 5a1.24 1.24.0 0 1 1.21 1.26v5.27h-2.42v-5.27A1.25 1.25.0 0 1 228.55 175.15zm-1-.16a2.14 2.14.0 0 0-.4.41l-1.69-.71a3.46 3.46.0 0 1 1.12-1.3zm-.62.86a1.73 1.73.0 0 0-.11.56v.07h-1.72v-.28a3.4 3.4.0 0 1 .18-1.06zm-.11 1.13v3h-1.72v-3zm0 3.54v1.16h-1.72v-1.16zm-.91 6.91a2.62 2.62.0 0 1 5.23.0v4.19h-5.23zM229.58 175l1-1.61a3.52 3.52.0 0 1 1.07 1.27l-1.69.72A2.07 2.07.0 0 0 229.58 175zm-.44-.24a1.5 1.5.0 0 0-.35-.1v-1.9a3.28 3.28.0 0 1 1.34.37zm-2.27-8.9v-3.69a1.87 1.87.0 1 1 3.74.0v3.69zm-2.23 1.61h2.12v2.67h-2.12zm-1.79-24.07a.62.62.0 0 1 .62-.62.62.62.0 0 1 .62.62v2.22h-1.24zm-1.85.0a.62.62.0 0 1 1.25.0v2.22H221zm-1.15 24.07v2.67h-2.12v-2.67zM215.94 144a3.19 3.19.0 1 1 2.69-3.16A3 3 0 0 1 215.94 144zm1.5 4.86a.67.67.0 1 1 1.35.0v3.37h-1.35zm-.58-2.77v.93H215v-.93a1 1 0 0 1 1-1A1 1 0 0 1 216.86 146.14zm-1.9 3a1 1 0 0 1 1-.95.94.94.0 0 1 .94.95v3.11H215zm.94 6.82s1.91 2.16 2.09 2.37l.37-1.14h.17l.15 2.15-2.79-1.89s-2.78 1.9-2.78 1.9l.14-2.17h.18l.38 1.17C214 158.2 215.9 156 215.9 156zm-1.82 6.19a1.87 1.87.0 1 1 3.74.0v3.69h-3.74zm2.85 12.8 1-1.6a3.52 3.52.0 0 1 1.12 1.3l-1.69.71A1.94 1.94.0 0 0 216.93 175zm.23 1.42v5.27h-2.43v-5.27a1.21 1.21.0 1 1 2.43.0zm-.66-1.65-.3-.08v-1.9a3.34 3.34.0 0 1 1.29.36zm-1.78-4.56v-2.66h2.12v2.66zm1 2.58v1.9a1.32 1.32.0 0 0-.35.1l-1-1.63A3.28 3.28.0 0 1 215.7 172.78zm-.77 2.24a1.62 1.62.0 0 0-.37.38l-1.69-.72a3.47 3.47.0 0 1 1.08-1.27zm-.58.83a1.4 1.4.0 0 0-.11.56v.07h-1.72v-.28a3.92 3.92.0 0 1 .16-1.05zm-.11 1.13v3h-1.72v-3zm0 3.54v1.16h-1.72v-1.16zm-.91 6.91a2.62 2.62.0 0 1 5.24.0v4.19h-5.24zm4.32-5.75v-1.16h1.74v1.16zm0-1.67v-3h1.74v3zm0-3.53v-.07a1.63 1.63.0 0 0-.09-.56l1.65-.71a3.22 3.22.0 0 1 .18 1.06v.28zm1.14-29.41h-1.35v-1.75a.67.67.0 0 1 1.35.0zm-1.85-24.92H218v1.49h-1.08zm-1.59-5.55h1.21V119h-1.21zm1.14 5.55v1.49h-1.06v-1.49zm-2.59.0H215v1.49h-1.08zm-.63 13.1h.18l.38 1.17c.18-.2 2.08-2.4 2.08-2.4s1.91 2.16 2.09 2.38l.37-1.14h.17l.15 2.15s-2.83-1.9-2.79-1.9-2.78 1.91-2.78 1.91zm-.14 10.08a.67.67.0 0 1 .66-.67.68.68.0 0 1 .68.67v1.75h-1.35zm0 3.6a.67.67.0 0 1 .66-.67.68.68.0 0 1 .68.67v3.37h-1.35zM212 167.49h2.11v2.67H212zm-2.4-24.07a.62.62.0 0 1 .62-.62.61.61.0 0 1 .61.62v2.22h-1.24zm-1.85.0a.62.62.0 1 1 1.24.0v2.22H207.8zm-3.57 26.77h-2.11v-2.66h2.11zm.66 2.94-1 1.62-.3-.08v-1.9A3 3 0 0 1 204.88 173.13zm-.32 3.27v5.27h-2.42v-5.27a1.21 1.21.0 1 1 2.42.0zm-.24-1.42 1-1.6a3.39 3.39.0 0 1 1.11 1.3l-1.68.72A1.64 1.64.0 0 0 204.32 175zm.7-9.11h-3.74v-3.69a1.87 1.87.0 0 1 3.74.0zm-1.92 6.9v1.9a1.63 1.63.0 0 0-.34.1l-1-1.63A3.25 3.25.0 0 1 203.1 172.78zm-.77 2.24a1.86 1.86.0 0 0-.38.38l-1.68-.72a3.43 3.43.0 0 1 1.08-1.27zm-.58.83a1.65 1.65.0 0 0-.1.56v.07h-1.74v-.28a3 3 0 0 1 .18-1.05zm-.1 1.13v3h-1.74v-3zm1.7 7.84a2.61 2.61.0 0 1 2.62 2.61v4.19h-5.24v-4.19A2.62 2.62.0 0 1 203.35 184.81zm1.7-3.14v-1.16h1.72v1.16zm0-1.67v-3h1.72v3zm0-3.53v-.07a1.84 1.84.0 0 0-.09-.56l1.65-.71a3.64 3.64.0 0 1 .16 1.06v.28zm.08-6.31v-2.67h2.11v2.67zm.09-26.73c0-.34.15-.62.34-.62s.33.28.33.62v2.22h-.66zm-4.74 13.8h.18l.38 1.17 2.08-2.4 2.11 2.37.36-1.14h.17l.14 2.15-2.79-1.89s-2.78 1.9-2.78 1.9zm-1 10.26h2.12v2.67h-2.12zm.46 13h1.74v1.16h-1.74zm31.46 14.77H200.55v-1.2h30.81zm.6-13.61h-1.72v-1.16H232zm0-1.67h-1.72v-3H232zm0-3.53h-1.72v-.07a1.78 1.78.0 0 0-.11-.56l1.66-.71a3.08 3.08.0 0 1 .17 1.05zm.47-6.31h-2.11v-2.67h2.11zm5.45-5.2H238l.28.75c.13-.14 1.5-1.54 1.5-1.54l1.52 1.51.27-.72h.12l.11 1.38s-2-1.22-2-1.22-2 1.23-2 1.23zm2.94 3.29v1.93h-2.07v-1.93a1 1 0 0 1 2.07.0zm-3.14 8.45a2.11 2.11.0 1 1 4.22.0v.15H237.7zm0 2.08a1 1 0 0 1 1.92.0v2.88h-1.92zM239.8 184a2.11 2.11.0 0 1 2.12 2.1v1.37H237.7v-1.37A2.1 2.1.0 0 1 239.8 184zm-.22 8.4h-1.91v-1.91h1.91zm2.35.0H240v-1.91h1.91zm0-10.69H240v-2.88a1 1 0 0 1 1.91.0zm5.14.0v-2.88a1 1 0 0 1 1.93.0v2.88zm1.91 4.39v1.37h-4.21v-1.37a2.1 2.1.0 0 1 4.21.0zM245 165h.11l.29.75 1.51-1.54 1.52 1.51.26-.72h.13l.11 1.38s-2-1.22-2-1.22-2 1.23-2 1.23zm2.94 3.29v1.93h-2.06v-1.93a1 1 0 1 1 2.06.0zm-3.16 8.45a2.11 2.11.0 0 1 4.22.0v.15h-4.22zm0 2.08a1 1 0 0 1 1.93.0v2.88h-1.93zm1.94 13.57h-1.92v-1.91h1.92zm2.36.0h-1.92v-1.91H249zM252 165h.13l.27.75 1.5-1.54s1.39 1.38 1.53 1.51l.27-.72h.13l.1 1.38-2-1.22s-2 1.23-2 1.23zm2.95 3.29v1.93h-2.06v-1.93a1 1 0 0 1 1-1A1 1 0 0 1 255 168.25zm-3.15 8.45a2.12 2.12.0 0 1 4.23.0v.15h-4.23zm0 2.08a1 1 0 0 1 1.91.0v2.88h-1.91zM254 184a2.11 2.11.0 0 1 2.13 2.1v1.37h-4.23v-1.37A2.11 2.11.0 0 1 254 184zm-.21 8.4h-1.91v-1.91h1.91zm2.35.0h-1.9v-1.91h1.9zm0-10.69h-1.91v-2.88a1 1 0 0 1 1.91.0zm4.31-16.92V163h.46v1.75zm.46 2.48V169h-.46v-1.74zm-.35-7h-.75v-1.55h.75zm-.47 12h1.19v2.52H260zm.72-12v-1.55h.74v1.55zm.05-6.8v-1.05h.91v1.05zm0-1.42v-2.13a.45.45.0 0 1 .45-.46.46.46.0 0 1 .46.46V152zm-.68-13.37a.5.5.0 0 1 .5-.51.51.51.0 0 1 .52.51v1.61h-1zm.5 8.31a1 1 0 1 1-1 1A1 1 0 0 1 260.63 147zm-1.09 2.93a.46.46.0 1 1 .91.0V152h-.91zm0 2.49h.91v1.05h-.91zm-1.12 19.9h1.2v2.52h-1.2zM262 192.35h-2.8v-1.43a1.4 1.4.0 1 1 2.8.0zm-2.43-4.94v-1.93a1 1 0 0 1 2.05.0v1.93zm2.43-5.74h-2.8v-2.25a1.4 1.4.0 1 1 2.8.0zm.81-6.88h-1.2v-2.52h1.2zm4-5.65h.79v1.15h-.79zm-1 0h.79v1.15h-.79zm2.47 23.21h-2v-1.92a1 1 0 1 1 2 0zm0-4.94h-2v-1.93a1 1 0 0 1 2 0zm0-5.74h-2v-1.93a1 1 0 1 1 2 0zm0-5.27h-2v-1.93a1 1 0 0 1 2 0zm.42-6.11h-.78v-1.15h.78zm.47-3.34h-.78V165.8h.78zm1.55 2.19h.77v1.15h-.77zm-1.05.0h.77v1.15h-.77zm2.47 23.21h-2.06v-1.92a1 1 0 1 1 2.06.0zm0-4.94h-2.06v-1.93a1 1 0 0 1 2.06.0zm0-5.74h-2.06v-1.93a1 1 0 1 1 2.06.0zm0-5.27h-2.06v-1.93a1 1 0 0 1 2.06.0zm.42-6.11h-.78v-1.15h.78zm6-9.73a.46.46.0 0 1 .46-.46.46.46.0 0 1 .46.46V162h-.92zm-1.16 6.05h.14l.26.76 1.51-1.55 1.53 1.53.26-.74h.12l.11 1.38-2-1.21s-2 1.22-2 1.22zm-2.08 7.86a1 1 0 0 1 2.06.0v1.93h-2.06zm2.12 17.88h-1.36v-1.27a.68.68.0 0 1 1.36.0zm.35-4.94H275.7v-1.93a1 1 0 0 1 2.07.0zm0-5.74H275.7v-1.93a1 1 0 1 1 2.07.0zm2.55-5.27h-2.07v-1.93a1 1 0 0 1 2.07.0zm0-5.25h-2.07v-1.93a1 1 0 0 1 2.07.0zm2.19 21.2h-1.36v-1.27a.68.68.0 0 1 1.36.0zm.36-4.94H280.8v-1.93a1 1 0 0 1 2.07.0zm0-5.74H280.8v-1.93a1 1 0 1 1 2.07.0zm.41-5.27h-2.06v-1.93a1 1 0 0 1 2.06.0zm-67.51-38s-.08.0-.1.05a.09.09.0 0 0 0 .11s.62.53-.27 2.35a1.16 1.16.0 0 1-.09.21 2.05 2.05.0 0 0-.18 1.72 1.51 1.51.0 0 0 .84.8h0a.1.1.0 0 0 .06-.17s-.61-.55.25-2.34a1.12 1.12.0 0 1 .1-.22 2.08 2.08.0 0 0 .18-1.72A1.49 1.49.0 0 0 215.77 138.37z" style="fill:#fff"/></g></svg>