<svg xmlns="http://www.w3.org/2000/svg" xmlns:xlink="http://www.w3.org/1999/xlink" width="50.865" height="50.896" viewBox="0 0 50.865 50.896"><defs><style>.a,.c,.d,.e,.f,.g,.h{fill:none;}.b{clip-path:url(#a);}.c,.d,.e,.f,.g,.h{stroke:#000;stroke-linecap:round;stroke-linejoin:round;}.c,.g,.h{stroke-width:1.476px;}.d{stroke-width:1.476px;}.e{stroke-width:1.476px;}.f{stroke-width:0.47px;}.g{stroke-dasharray:0 0.82;}.h{stroke-dasharray:0 0.85;}</style><clipPath id="a"><path class="a" d="M0 0h50.865v50.896H0z"/></clipPath></defs><g transform="translate(25.432 25.448)"><g class="b" transform="translate(-25.432 -25.448)"><path class="c" d="M0 0H49.609z" transform="translate(0.628 15.071)"/><path class="c" d="M41.361 4.8 32.57 33.686A4.082 4.082.0 0 1 29.116 36.2H14.359a4.082 4.082.0 0 1-3.454-2.512L1.8 4.8" transform="translate(3.852 10.271)"/><path class="d" d="M3.042 6.94 2.1 3.8H40.091L39.15 6.94" transform="translate(4.494 8.131)"/><path class="e" d="M0 0H31.398z" transform="translate(10.361 46.469)"/><path class="e" d="M21.5 14.8v3.768H5.8V14.8" transform="translate(12.411 31.669)"/><path class="c" d="M5.7 24.727S8.84 8.4 13.549 8.4s7.222 16.327 7.222 16.327" transform="translate(12.197 17.974)"/><line class="f" transform="translate(34.538 0.628)"/><path class="g" d="M0 0V3.768z" transform="translate(34.538 3.454)"/><line class="f" transform="translate(34.538 8.477)"/><line class="f" transform="translate(38.619 0.628)"/><path class="g" d="M0 0V3.768z" transform="translate(38.619 3.454)"/><line class="f" transform="translate(38.619 8.477)"/><line class="f" transform="translate(36.736 2.198)"/><path class="h" d="M0 0V1.256z" transform="translate(36.736 4.396)"/><line class="f" transform="translate(36.736 7.535)"/><line class="f" transform="translate(30.456 0.628)"/><path class="g" d="M0 0V3.768z" transform="translate(30.456 3.454)"/><line class="f" transform="translate(30.456 8.477)"/><line class="f" transform="translate(32.654 2.198)"/><path class="h" d="M0 0V1.256z" transform="translate(32.654 4.396)"/><line class="f" transform="translate(32.654 7.535)"/></g></g></svg>