<svg xmlns="http://www.w3.org/2000/svg" xmlns:xlink="http://www.w3.org/1999/xlink" width="34.439" height="61.99" viewBox="0 0 34.439 61.99"><defs><style>.a,.b,.d,.e,.f,.g,.h,.i{fill:none;}.b,.d,.e,.f,.g,.h,.i{stroke:#000;stroke-linecap:round;stroke-linejoin:round;}.b{stroke-width:1.239px;}.c{clip-path:url(#a);}.d{stroke-width:1.239px;}.e{stroke-width:1.239px;}.f{stroke-width:0.4px;}.g,.h{stroke-width:0.991px;}.g{stroke-dasharray:0 0.73;}.h{stroke-dasharray:0 0.75;}.i{stroke-width:1.239px;}</style><clipPath id="a"><path class="a" d="M0 0h34.439v61.99H0z"/></clipPath></defs><g transform="translate(17.219 30.995)"><g transform="translate(-17.219 -30.995)"><path class="b" d="M21.269 23.59H3.678L1.2.3H23.5z" transform="translate(1.773 0.443)"/><path class="b" d="M17.566 9.9v1.239H2.948L2.7 9.9" transform="translate(3.99 14.628)"/><path class="b" d="M0 0h5.698v2.304H0z" transform="translate(11.397 25.767)"/><path class="b" d="M0 0h7.928v2.478H0z" transform="translate(10.158 28.245)"/><g class="c"><path class="d" d="M33.5 26.426H.3l.5-.5A5.946 5.946.0 0 1 5.5 23.7h28z" transform="translate(0.443 35.019)"/><path class="b" d="M0 0h2.725v18.557H0z" transform="translate(12.884 30.722)"/><path class="b" d="M0 0h2.725v1.71H0z" transform="translate(18.087 28.492)"/><path class="b" d="M0 0h1.982v4.212H0z" transform="translate(20.812 27.254)"/><path class="e" d="M15.518 12.5l.5 1.487s8.176 4.46 8.176 11.893-4.955 9.663-11.645 9.663S.9 32.321.9 25.879 9.076 13.987 9.076 13.987l.5-1.487" transform="translate(1.33 18.47)"/><path class="e" d="M9.2 11.4h4.955a4.46 4.46.0 0 1 4.46 4.46V41.627H16.137V16.851a2.973 2.973.0 0 0-2.973-2.973H9.2" transform="translate(13.594 16.845)"/><line class="f" transform="translate(9.91 5.203)"/><path class="g" d="M0 0V2.725z" transform="translate(9.91 6.937)"/><line class="f" transform="translate(9.91 10.406)"/><line class="f" transform="translate(12.884 5.203)"/><path class="g" d="M0 0V2.725z" transform="translate(12.884 6.937)"/><line class="f" transform="translate(12.884 10.406)"/><line class="f" transform="translate(11.397 6.194)"/><path class="h" d="M0 0V.743z" transform="translate(11.397 7.433)"/><line class="f" transform="translate(11.397 9.91)"/><line class="f" transform="translate(6.937 5.203)"/><path class="g" d="M0 0V2.725z" transform="translate(6.937 6.937)"/><line class="f" transform="translate(6.937 10.406)"/><line class="f" transform="translate(8.424 6.194)"/><path class="h" d="M0 0V.743z" transform="translate(8.424 7.433)"/><line class="f" transform="translate(8.424 9.91)"/><path class="i" d="M2.1 7.387C3.587 7.387 5.816 5.9 8.046 5.9S11.019 7.139 13 7.139s4.46-.991 7.185-.991" transform="translate(3.103 8.718)"/><path class="b" d="M1.3 19.743c2.478-.991 4.212.743 6.69.743S14.431 19 16.661 19a9.663 9.663.0 0 1 5.7 1.982" transform="translate(1.921 28.075)"/><path d="M4.1 7.691H3.848L3.6 7.443V7.2l.248-.248V6.7l.5.248h.248v.5l-.248.248H4.1z" transform="translate(5.319 9.9)"/><path d="M4.5 8.291H4.248L4 8.043V7.8l.248-.248V7.3l.743.248V7.8h0v.5H4.5z" transform="translate(5.91 10.787)"/><path d="M3.7 9.691H3.448V9.443H3.2V9.2l.248-.5h.743v.743h0l-.248.248z" transform="translate(4.728 12.855)"/><path d="M7.3 19.9a.5.5.0 0 1 .5-.5.619.619.0 0 1 0 1.239.5.5.0 0 1-.5-.5" transform="translate(10.787 28.666)"/><path d="M8.4 8.091H7.9V7.348L8.148 7.1l.5.248.248.248-.248.5z" transform="translate(11.673 10.491)"/><path d="M7.4 8.5a.5.5.0 1 1 .5.5.5.5.0 0 1-.5-.5" transform="translate(10.934 11.821)"/></g></g></g></svg>